<svg width="102" height="81" viewBox="0 0 102 81" fill="none" xmlns="http://www.w3.org/2000/svg">
<path d="M51.749 21.198C57.6027 21.198 62.348 16.4527 62.348 10.599C62.348 4.74534 57.6027 0 51.749 0C45.8954 0 41.15 4.74534 41.15 10.599C41.15 16.4527 45.8954 21.198 51.749 21.198Z" fill="#82C4C4"/>
<path d="M58.073 75.8233C57.523 77.6653 56.189 79.2653 54.47 80.1293C53.266 80.7383 51.886 80.9833 50.545 80.8473C49.267 80.9383 47.965 80.6893 46.823 80.1123C45.107 79.2473 43.773 77.6473 43.224 75.8063C44.421 76.1563 45.724 76.1423 46.942 75.8523C48.097 75.5753 49.225 75.0333 49.981 74.1193C50.275 73.7653 50.503 73.3493 50.646 72.9043C50.786 73.3523 51.017 73.7793 51.315 74.1403C52.071 75.0503 53.199 75.5933 54.354 75.8703C55.573 76.1593 56.876 76.1733 58.073 75.8233Z" fill="#82C4C4"/>
<path d="M72.789 47.6289C72.624 45.7279 71.606 43.9699 70.958 42.1569C69.477 37.9839 69.922 33.2539 68.08 29.2269C66.708 26.2259 64.057 23.8419 60.945 22.7569C60.64 22.6479 60.329 22.5539 60.014 22.4729C56.884 21.6639 53.442 22.1749 50.666 23.8279C47.883 22.1609 44.427 21.6429 41.283 22.4559C40.968 22.5369 40.656 22.6309 40.352 22.7399C40.317 22.7539 40.282 22.7639 40.247 22.7789C37.18 23.8779 34.579 26.2449 33.22 29.2109C31.375 33.2369 31.823 37.9639 30.342 42.1369C30.275 42.3259 30.205 42.5119 30.128 42.6969C29.886 43.3129 29.617 43.9219 29.368 44.5349C28.955 45.5399 28.601 46.5549 28.507 47.6129C28.486 47.8129 28.475 48.0189 28.479 48.2259C28.5 49.7099 29.092 51.0689 29.876 52.3539C29.88 52.3579 29.883 52.3649 29.883 52.3679C29.939 52.4589 29.995 52.5469 30.051 52.6339C30.107 52.7249 30.163 52.8089 30.223 52.8999C30.65 53.5579 31.116 54.1949 31.564 54.8259C32.39 55.9849 33.174 57.1719 33.92 58.3829C36.038 61.8279 37.824 65.4799 39.242 69.2679C39.242 69.2679 39.242 69.2679 39.242 69.2719C39.379 69.4229 39.501 69.5799 39.61 69.7479C39.75 69.0789 39.974 68.4179 40.216 67.7769C41.946 63.1829 44.529 58.9679 46.725 54.5739C48.581 50.8589 50.177 46.9059 50.65 42.8029C51.119 46.9129 52.719 50.8699 54.578 54.5949C56.77 58.9849 59.357 63.2009 61.087 67.7939C61.329 68.4309 61.553 69.0959 61.693 69.7649C61.802 69.5929 61.928 69.4319 62.064 69.2819C62.064 69.2779 62.068 69.2749 62.068 69.2749C63.983 64.1599 66.567 59.2929 69.736 54.8429C70.184 54.2129 70.65 53.5759 71.077 52.9169C72.026 51.4709 72.8 49.9409 72.821 48.2429C72.82 48.0349 72.813 47.8319 72.789 47.6289ZM37.336 45.8049C36.489 46.7499 34.864 46.8479 33.912 46.0119C32.956 45.1749 32.841 43.5509 33.667 42.5879C33.023 42.3879 32.358 42.2549 31.685 42.1889C33.411 41.6179 35.41 41.9719 36.835 43.0959C38.144 44.1289 38.932 45.7879 38.932 47.4509H38.936C38.936 47.6439 38.94 47.8329 38.943 48.0249C38.617 47.1599 38.057 46.3859 37.336 45.8049ZM67.386 46.0289C66.434 46.8659 64.809 46.7679 63.962 45.8219C63.241 46.4029 62.681 47.1769 62.355 48.0419C62.355 47.8529 62.359 47.6599 62.362 47.4709H62.366C62.366 45.8039 63.154 44.1479 64.463 43.1119C65.888 41.9879 67.887 41.6379 69.613 42.2089C68.941 42.2719 68.276 42.4049 67.631 42.6049C68.458 43.5679 68.342 45.1919 67.386 46.0289Z" fill="#352D2A"/>
<path d="M67.631 42.6036C68.457 43.5666 68.342 45.1906 67.386 46.0276C66.434 46.8646 64.809 46.7666 63.962 45.8206C63.241 46.4016 62.681 47.1756 62.355 48.0406C62.355 47.8516 62.359 47.6586 62.362 47.4696H62.366C62.366 45.8026 63.154 44.1466 64.463 43.1106C65.888 41.9866 67.887 41.6366 69.613 42.2076C68.941 42.2706 68.276 42.4036 67.631 42.6036Z" fill="#82C4C4"/>
<path d="M38.943 48.0231C38.617 47.1581 38.057 46.3841 37.336 45.8031C36.489 46.7481 34.864 46.8461 33.912 46.0101C32.956 45.1731 32.841 43.5491 33.667 42.5861C33.023 42.3861 32.358 42.2531 31.685 42.1871C33.411 41.6161 35.41 41.9701 36.835 43.0941C38.144 44.1271 38.932 45.7861 38.932 47.4491H38.936C38.936 47.6411 38.939 47.8301 38.943 48.0231Z" fill="#82C4C4"/>
<path d="M58.08 67.9352C57.877 68.0232 57.649 67.9172 57.446 67.8262C56.105 67.2172 54.488 67.2622 53.182 67.9452C51.957 68.5822 51.032 69.7662 50.696 71.1032C50.682 71.0612 50.668 71.0222 50.651 70.9802C50.633 71.0262 50.619 71.0712 50.605 71.1172C50.279 69.7662 49.348 68.5682 48.116 67.9242C46.81 67.2452 45.192 67.1992 43.848 67.8082C43.648 67.8992 43.421 68.0042 43.218 67.9172C42.85 67.7632 42.962 67.2102 43.186 66.8842C44.058 65.6202 45.717 65.0422 47.24 65.2242C48.504 65.3752 49.677 65.9842 50.657 66.8102C51.634 65.9942 52.796 65.3922 54.057 65.2412C55.58 65.0592 57.24 65.6372 58.111 66.9012C58.336 67.2282 58.444 67.7812 58.08 67.9352Z" fill="#352D2A"/>
<path d="M61.69 69.7628C61.55 69.0938 61.326 68.4288 61.084 67.7918C59.354 63.1978 56.767 58.9828 54.575 54.5928C52.716 50.8678 51.116 46.9108 50.647 42.8008C50.174 46.9038 48.578 50.8568 46.722 54.5718C44.527 58.9658 41.943 63.1808 40.213 67.7748C39.971 68.4158 39.747 69.0768 39.607 69.7458C39.446 70.5088 39.393 71.2828 39.547 72.0428C39.852 73.5628 40.993 74.8438 42.397 75.4988C42.663 75.6218 42.94 75.7268 43.223 75.8068C44.42 76.1568 45.723 76.1428 46.941 75.8528C48.096 75.5758 49.224 75.0338 49.98 74.1198C50.274 73.7658 50.502 73.3498 50.645 72.9048C50.785 73.3528 51.016 73.7798 51.314 74.1408C52.07 75.0508 53.198 75.5938 54.353 75.8708C55.571 76.1618 56.874 76.1758 58.071 75.8248C58.355 75.7438 58.631 75.6388 58.897 75.5168C60.301 74.8618 61.439 73.5808 61.747 72.0608C61.903 71.2998 61.851 70.5268 61.69 69.7628ZM58.08 67.9358C57.877 68.0238 57.649 67.9178 57.446 67.8268C56.105 67.2178 54.488 67.2628 53.182 67.9458C51.957 68.5828 51.032 69.7668 50.696 71.1038V71.1078C50.678 71.1778 50.661 71.2478 50.651 71.3178C50.637 71.2508 50.623 71.1848 50.605 71.1178C50.279 69.7668 49.348 68.5688 48.116 67.9248C46.81 67.2458 45.192 67.1998 43.848 67.8088C43.648 67.8998 43.421 68.0048 43.218 67.9178C42.85 67.7638 42.962 67.2108 43.186 66.8848C44.058 65.6208 45.717 65.0428 47.24 65.2248C48.504 65.3758 49.677 65.9848 50.657 66.8108C51.634 65.9948 52.796 65.3928 54.057 65.2418C55.58 65.0598 57.24 65.6378 58.111 66.9018C58.336 67.2288 58.444 67.7818 58.08 67.9358Z" fill="#82C4C4"/>
<path d="M50.586 70.5716C50.561 71.9166 50.529 73.4356 49.635 74.5306C48.808 75.5426 47.469 76.0286 46.203 76.1706C43.659 76.4546 40.924 75.3466 39.859 72.9026C39.31 71.6426 39.252 70.1536 39.867 68.9066C39.966 68.7056 39.665 68.5276 39.565 68.7296C38.357 71.1756 39.499 74.1896 41.752 75.5766C42.932 76.3036 44.35 76.6216 45.728 76.5576C47.095 76.4946 48.547 76.0776 49.562 75.1206C50.81 73.9446 50.906 72.1776 50.936 70.5706C50.941 70.3466 50.59 70.3466 50.586 70.5716Z" fill="#352D2A"/>
<path d="M50.722 70.5247C50.747 71.8697 50.779 73.3887 51.673 74.4837C52.5 75.4957 53.839 75.9817 55.105 76.1237C57.649 76.4077 60.384 75.2997 61.449 72.8557C61.998 71.5957 62.056 70.1067 61.441 68.8597C61.342 68.6587 61.643 68.4807 61.743 68.6827C62.951 71.1287 61.809 74.1427 59.556 75.5297C58.376 76.2567 56.958 76.5747 55.58 76.5107C54.213 76.4477 52.761 76.0307 51.746 75.0737C50.498 73.8977 50.402 72.1307 50.372 70.5237C50.368 70.2997 50.718 70.2997 50.722 70.5247Z" fill="#352D2A"/>
<path d="M26.23 41.7818C27.357 42.6008 28.415 43.5188 29.367 44.5338C30.148 45.3598 30.859 46.2458 31.478 47.1948C31.569 47.3388 31.664 47.4858 31.751 47.6288C32.003 48.0388 32.238 48.4548 32.455 48.8818C33.929 51.7948 34.542 55.1838 33.919 58.3808C33.894 58.5138 33.866 58.6468 33.835 58.7768C33.086 62.0928 30.918 65.1178 27.883 66.6478C25.271 67.9638 22.145 68.1188 19.337 67.2958C16.529 66.4728 14.043 64.7188 12.132 62.5028C8.42803 58.2108 6.95703 52.1118 8.21403 46.5898C6.73303 46.6638 5.27303 47.1638 4.06503 48.0288C2.61603 49.0688 1.53703 50.6228 1.08203 52.3488C0.998027 52.6538 0.924029 52.9858 0.690029 53.1998C0.602029 53.2768 0.490028 53.3258 0.368028 53.3368L0.350028 53.0988C-0.689972 49.2058 0.65803 44.8568 3.45903 41.9578C5.50003 39.8468 8.23103 38.4918 11.12 37.9208C11.957 34.9448 13.42 32.0248 15.37 29.5108C17.32 26.9968 19.757 24.8858 22.537 23.5238C27.995 20.8488 34.581 20.5728 40.246 22.7778C37.179 23.8768 34.578 26.2438 33.219 29.2098C31.374 33.2358 31.822 37.9628 30.341 42.1358C30.274 42.3248 30.204 42.5108 30.127 42.6958C28.989 41.9498 27.581 41.6208 26.23 41.7818Z" fill="#82C4C4"/>
<path d="M26.606 41.6886C23.18 39.1706 18.983 37.7506 14.737 37.6156C13.543 37.5776 12.349 37.6476 11.166 37.8136C10.944 37.8446 11.038 38.1826 11.259 38.1516C15.401 37.5676 19.712 38.2966 23.45 40.1666C24.493 40.6886 25.49 41.2986 26.43 41.9896C26.611 42.1236 26.785 41.8206 26.606 41.6886Z" fill="#352D2A"/>
<path d="M21.591 51.4741C19.641 48.8031 16.631 46.9871 13.397 46.3551C11.576 45.9991 9.69004 46.0171 7.88404 46.4531C7.66504 46.5061 7.75804 46.8431 7.97704 46.7911C11.011 46.0591 14.273 46.5511 17.021 48.0051C18.383 48.7261 19.618 49.6811 20.636 50.8391C21.781 52.1421 22.807 53.7971 22.772 55.5901C22.754 56.5381 22.427 57.5101 21.718 58.1651C21.051 58.7811 20.094 59.0851 19.207 58.8371C18.99 58.7761 18.897 59.1141 19.114 59.1751C19.912 59.3981 20.769 59.2321 21.466 58.7951C22.201 58.3351 22.703 57.6031 22.946 56.7771C23.497 54.8971 22.691 52.9811 21.591 51.4741Z" fill="#352D2A"/>
<path d="M75.031 41.7877C73.904 42.6067 72.846 43.5247 71.894 44.5397C71.113 45.3657 70.402 46.2517 69.783 47.2007C69.692 47.3447 69.597 47.4917 69.51 47.6347C69.258 48.0447 69.023 48.4607 68.806 48.8877C67.332 51.8007 66.719 55.1897 67.342 58.3867C67.367 58.5197 67.395 58.6527 67.426 58.7827C68.175 62.0987 70.343 65.1237 73.378 66.6537C75.99 67.9697 79.116 68.1237 81.924 67.3017C84.732 66.4787 87.218 64.7247 89.129 62.5087C92.833 58.2167 94.304 52.1177 93.047 46.5957C94.528 46.6697 95.988 47.1697 97.196 48.0347C98.645 49.0747 99.724 50.6287 100.179 52.3547C100.263 52.6597 100.337 52.9917 100.571 53.2057C100.659 53.2827 100.771 53.3317 100.893 53.3427L100.911 53.1047C101.951 49.2117 100.603 44.8627 97.802 41.9637C95.761 39.8527 93.03 38.4977 90.141 37.9267C89.304 34.9507 87.841 32.0307 85.891 29.5167C83.941 27.0027 81.504 24.8917 78.724 23.5297C73.266 20.8547 66.68 20.5787 61.015 22.7837C64.082 23.8827 66.683 26.2497 68.042 29.2157C69.887 33.2417 69.439 37.9687 70.92 42.1417C70.987 42.3307 71.057 42.5167 71.134 42.7017C72.272 41.9557 73.68 41.6267 75.031 41.7877Z" fill="#82C4C4"/>
<path d="M61.105 15.559C59.324 18.907 55.801 21.188 51.743 21.188C45.893 21.188 41.15 16.445 41.15 10.595C41.15 4.743 45.893 0 51.743 0C54.884 0 57.704 1.366 59.643 3.538C58.771 3.149 57.804 2.934 56.788 2.934C52.893 2.934 49.736 6.09 49.736 9.986C49.736 13.879 52.892 17.038 56.788 17.038C58.414 17.037 59.913 16.486 61.105 15.559Z" fill="#352D2A"/>
<path d="M33.763 14.7638C36.0655 14.7638 37.932 12.8973 37.932 10.5948C37.932 8.2923 36.0655 6.42578 33.763 6.42578C31.4605 6.42578 29.594 8.2923 29.594 10.5948C29.594 12.8973 31.4605 14.7638 33.763 14.7638Z" fill="#82C4C4"/>
<path d="M24.13 13.3519C25.6532 13.3519 26.888 12.1171 26.888 10.5939C26.888 9.07073 25.6532 7.83594 24.13 7.83594C22.6068 7.83594 21.372 9.07073 21.372 10.5939C21.372 12.1171 22.6068 13.3519 24.13 13.3519Z" fill="#352D2A"/>
<path d="M69.574 14.7638C71.8765 14.7638 73.743 12.8973 73.743 10.5948C73.743 8.2923 71.8765 6.42578 69.574 6.42578C67.2716 6.42578 65.405 8.2923 65.405 10.5948C65.405 12.8973 67.2716 14.7638 69.574 14.7638Z" fill="#82C4C4"/>
<path d="M79.207 13.3519C80.7302 13.3519 81.965 12.1171 81.965 10.5939C81.965 9.07073 80.7302 7.83594 79.207 7.83594C77.6838 7.83594 76.449 9.07073 76.449 10.5939C76.449 12.1171 77.6838 13.3519 79.207 13.3519Z" fill="#352D2A"/>
<path d="M35.487 71.248L37.125 74.206L35.487 77.311L33.911 74.184L35.487 71.248Z" fill="#352D2A"/>
<path d="M29.513 71.6816C28.387 71.6816 28.385 73.4326 29.513 73.4326C30.64 73.4316 30.641 71.6816 29.513 71.6816Z" fill="#352D2A"/>
<path d="M36.002 67.8008C34.876 67.8008 34.874 69.5518 36.002 69.5518C37.128 69.5508 37.13 67.8008 36.002 67.8008Z" fill="#352D2A"/>
<path d="M31.204 66.9258C30.078 66.9258 30.076 68.6768 31.204 68.6768C32.331 68.6768 32.332 66.9258 31.204 66.9258Z" fill="#352D2A"/>
<path d="M86.013 20.8945L87.651 23.8525L86.013 26.9585L84.436 23.8305L86.013 20.8945Z" fill="#352D2A"/>
<path d="M81.228 21.2012C80.102 21.2012 80.1 22.9522 81.228 22.9522C82.355 22.9522 82.356 21.2012 81.228 21.2012Z" fill="#352D2A"/>
<path d="M86.889 17.8867C85.763 17.8867 85.761 19.6377 86.889 19.6377C88.015 19.6377 88.017 17.8867 86.889 17.8867Z" fill="#352D2A"/>
<path d="M81.499 15.3711C80.373 15.3711 80.371 17.1221 81.499 17.1221C82.625 17.1221 82.627 15.3711 81.499 15.3711Z" fill="#352D2A"/>
<path d="M58.996 38.8643C60.661 38.7703 62.255 39.3593 63.902 39.4893C65.175 39.5933 66.574 39.3903 67.55 38.4913C67.686 38.3663 67.854 38.2143 67.952 38.0393C68.034 38.0803 68.113 38.1233 68.195 38.1643C68.481 38.3033 71.416 39.8773 71.707 40.0033L71.843 39.6983C71.546 39.5633 68.605 37.9853 68.313 37.8383C68.337 37.7983 68.349 37.7453 68.329 37.6863C68.227 37.3943 68.179 37.0913 68.16 36.7853C68.131 36.2793 68.195 35.7613 68.263 35.2583C68.356 34.5483 68.463 33.8313 68.38 33.1163C68.297 32.3853 67.968 31.7303 67.527 31.1483C66.641 29.9853 65.268 29.0613 64.869 27.5863C64.82 27.4053 64.566 27.4073 64.541 27.6013C64.353 29.0403 64.169 30.5103 64.383 31.9573C64.579 33.2733 65.166 34.4513 65.942 35.5213C66.341 36.0703 66.779 36.5923 67.222 37.1073C67.273 37.1683 67.357 37.2463 67.437 37.3313C67.461 37.3603 67.488 37.3913 67.513 37.4213C66.966 37.1193 66.424 36.7973 65.901 36.4553C65.725 36.3403 65.55 36.2223 65.381 36.1033C65.376 36.0873 65.371 36.0713 65.359 36.0593C65.217 35.8663 65.079 35.6673 64.945 35.4673C64.929 35.4433 64.913 35.4203 64.897 35.3963C64.472 34.7563 64.08 34.0933 63.648 33.4573C63.143 32.7163 62.572 32.0063 61.866 31.4463C61.226 30.9453 60.485 30.6223 59.708 30.4043C58.223 29.9843 56.584 29.8853 55.301 28.9503C55.127 28.8203 54.944 29.0873 55.109 29.2243C55.836 29.8233 56.336 30.6303 56.824 31.4243C57.262 32.1393 57.704 32.8523 58.29 33.4543C58.896 34.0743 59.613 34.5763 60.397 34.9423C61.923 35.6473 63.715 35.5693 65.176 36.4243C65.205 36.4403 65.242 36.4463 65.276 36.4453C65.421 36.5473 65.568 36.6453 65.719 36.7393C65.98 36.9143 66.249 37.0773 66.518 37.2413C66.298 37.1893 66.078 37.1413 65.854 37.1063C63.443 36.7153 60.911 37.2393 58.864 38.5713C58.705 38.6733 58.853 38.8703 58.996 38.8643Z" fill="#82C4C4"/>
<path d="M42.649 37.9737C40.602 36.6407 38.07 36.1177 35.659 36.5087C35.435 36.5437 35.215 36.5907 34.995 36.6437C35.264 36.4797 35.533 36.3167 35.794 36.1417C35.945 36.0487 36.092 35.9497 36.237 35.8477C36.27 35.8487 36.307 35.8437 36.337 35.8267C37.798 34.9707 39.591 35.0497 41.116 34.3447C41.9 33.9787 42.617 33.4767 43.223 32.8567C43.809 32.2547 44.252 31.5407 44.689 30.8267C45.177 30.0317 45.677 29.2257 46.404 28.6267C46.57 28.4907 46.386 28.2227 46.212 28.3527C44.929 29.2877 43.29 29.3877 41.805 29.8067C41.028 30.0247 40.287 30.3477 39.647 30.8487C38.941 31.4077 38.37 32.1187 37.865 32.8597C37.434 33.4957 37.041 34.1587 36.616 34.7987C36.6 34.8227 36.584 34.8457 36.568 34.8697C36.434 35.0697 36.296 35.2677 36.154 35.4617C36.142 35.4737 36.137 35.4897 36.132 35.5057C35.962 35.6247 35.788 35.7427 35.612 35.8577C35.089 36.1997 34.547 36.5217 34 36.8237C34.024 36.7947 34.051 36.7637 34.076 36.7337C34.156 36.6497 34.239 36.5707 34.291 36.5097C34.734 35.9957 35.172 35.4727 35.571 34.9237C36.347 33.8537 36.934 32.6757 37.13 31.3597C37.344 29.9127 37.16 28.4427 36.972 27.0037C36.946 26.8097 36.692 26.8077 36.644 26.9887C36.245 28.4637 34.873 29.3877 33.986 30.5507C33.545 31.1327 33.216 31.7877 33.133 32.5187C33.05 33.2337 33.156 33.9507 33.25 34.6607C33.317 35.1647 33.382 35.6817 33.353 36.1877C33.335 36.4937 33.286 36.7977 33.184 37.0887C33.164 37.1477 33.176 37.1997 33.2 37.2407C32.908 37.3887 29.967 38.9667 29.67 39.1007L29.806 39.4057C30.097 39.2797 33.032 37.7057 33.318 37.5667C33.4 37.5257 33.479 37.4827 33.561 37.4417C33.66 37.6177 33.827 37.7697 33.964 37.8937C34.94 38.7927 36.339 38.9967 37.612 38.8917C39.259 38.7627 40.853 38.1727 42.518 38.2667C42.659 38.2737 42.806 38.0757 42.649 37.9737Z" fill="#82C4C4"/>
<path d="M32.417 21.1454C30.786 26.3604 29.156 31.5764 27.525 36.7914C27.06 38.2774 26.596 39.7634 26.131 41.2494C26.06 41.4754 26.414 41.5714 26.485 41.3464C28.116 36.1314 29.746 30.9154 31.377 25.7004C31.842 24.2144 32.306 22.7284 32.771 21.2424C32.842 21.0174 32.488 20.9204 32.417 21.1454Z" fill="#352D2A"/>
<path d="M25.4471 22.1076C24.8531 26.7596 24.2581 31.4106 23.6631 36.0626C23.4931 37.3916 23.323 38.7206 23.153 40.0496C23.123 40.2826 23.49 40.2806 23.52 40.0496C24.114 35.3976 24.709 30.7466 25.304 26.0946C25.474 24.7656 25.6441 23.4366 25.8141 22.1076C25.8431 21.8746 25.4761 21.8766 25.4471 22.1076Z" fill="#352D2A"/>
<path d="M2.88904 49.4383C1.97304 48.7043 1.11104 47.9043 0.310039 47.0453C0.149039 46.8723 -0.10996 47.1323 0.0510399 47.3043C0.85204 48.1633 1.71404 48.9633 2.63004 49.6973C2.70804 49.7593 2.81304 49.7723 2.88904 49.6973C2.95404 49.6343 2.96604 49.4993 2.88904 49.4383Z" fill="#352D2A"/>
<path d="M4.79402 47.7857C4.00202 46.4487 3.21102 45.1117 2.42002 43.7737C2.30002 43.5707 1.98302 43.7547 2.10302 43.9587C2.89402 45.2957 3.68602 46.6327 4.47702 47.9707C4.59702 48.1737 4.91502 47.9897 4.79402 47.7857Z" fill="#352D2A"/>
<path d="M8.50505 46.7333C7.85205 44.3563 7.11705 42.0023 6.29905 39.6763C6.22105 39.4553 5.86705 39.5503 5.94505 39.7733C6.76305 42.0993 7.49805 44.4533 8.15105 46.8303C8.21405 47.0583 8.56805 46.9613 8.50505 46.7333Z" fill="#352D2A"/>
<path d="M10.986 37.7714C10.929 37.5424 10.576 37.6394 10.632 37.8684C11.289 40.5214 11.663 43.2364 11.748 45.9684C11.755 46.2034 12.122 46.2044 12.115 45.9684C12.029 43.2054 11.65 40.4544 10.986 37.7714Z" fill="#352D2A"/>
<path d="M14.6581 37.9504C14.6051 40.9634 14.5521 43.9764 14.4991 46.9894C14.4951 47.2254 14.8621 47.2254 14.8661 46.9894C14.9191 43.9764 14.9721 40.9634 15.0251 37.9504C15.0291 37.7144 14.6621 37.7144 14.6581 37.9504Z" fill="#352D2A"/>
<path d="M20.821 38.7775C19.821 41.9025 18.821 45.0275 17.821 48.1515C17.749 48.3765 18.103 48.4735 18.175 48.2485C19.175 45.1235 20.175 41.9985 21.175 38.8745C21.246 38.6505 20.892 38.5535 20.821 38.7775Z" fill="#352D2A"/>
<path d="M25.9531 41.7257L20.0871 50.4547C19.9551 50.6507 20.2731 50.8347 20.4041 50.6397C22.3591 47.7297 24.3151 44.8207 26.2701 41.9107C26.4021 41.7147 26.0841 41.5307 25.9531 41.7257Z" fill="#352D2A"/>
<path d="M30.484 44.557C28.437 46.751 26.284 48.846 24.031 50.828C23.395 51.388 22.751 51.938 22.1 52.48C21.918 52.631 22.179 52.889 22.359 52.739C24.665 50.819 26.878 48.788 28.984 46.651C29.579 46.048 30.164 45.436 30.742 44.816C30.904 44.644 30.645 44.384 30.484 44.557Z" fill="#352D2A"/>
<path d="M34.886 54.7227C31.759 54.7267 28.633 54.8397 25.515 55.0667C24.626 55.1307 23.738 55.2047 22.851 55.2877C22.618 55.3097 22.616 55.6757 22.851 55.6547C25.964 55.3657 29.087 55.1867 32.213 55.1207C33.104 55.1017 33.995 55.0917 34.886 55.0907C35.122 55.0887 35.122 54.7217 34.886 54.7227Z" fill="#352D2A"/>
<path d="M31.963 63.1732C28.922 60.9842 25.881 58.7952 22.84 56.6062C22.648 56.4682 22.465 56.7862 22.655 56.9232C25.696 59.1122 28.737 61.3012 31.778 63.4902C31.97 63.6282 32.153 63.3102 31.963 63.1732Z" fill="#352D2A"/>
<path d="M25.739 67.5856C24.238 64.5526 22.737 61.5206 21.237 58.4876C21.132 58.2766 20.816 58.4616 20.92 58.6726C22.421 61.7056 23.922 64.7376 25.422 67.7706C25.527 67.9826 25.843 67.7966 25.739 67.5856Z" fill="#352D2A"/>
<path d="M74.933 41.7471C78.359 39.2291 82.556 37.8092 86.802 37.6742C87.996 37.6362 89.19 37.7061 90.373 37.8731C90.595 37.9041 90.501 38.2422 90.28 38.2112C86.138 37.6272 81.827 38.3562 78.089 40.2262C77.046 40.7482 76.049 41.3582 75.109 42.0492C74.928 42.1822 74.753 41.8791 74.933 41.7471Z" fill="#352D2A"/>
<path d="M79.947 51.5327C81.897 48.8617 84.907 47.0457 88.141 46.4137C89.962 46.0577 91.848 46.0757 93.654 46.5117C93.873 46.5647 93.7801 46.9017 93.5611 46.8497C90.5271 46.1177 87.265 46.6097 84.517 48.0637C83.155 48.7847 81.92 49.7397 80.902 50.8977C79.757 52.2007 78.731 53.8557 78.766 55.6487C78.784 56.5967 79.111 57.5687 79.82 58.2237C80.487 58.8397 81.444 59.1437 82.331 58.8957C82.548 58.8347 82.641 59.1727 82.424 59.2337C81.626 59.4567 80.769 59.2907 80.072 58.8537C79.337 58.3937 78.835 57.6617 78.592 56.8357C78.042 54.9557 78.847 53.0397 79.947 51.5327Z" fill="#352D2A"/>
<path d="M69.121 21.204C70.752 26.419 72.382 31.635 74.013 36.85C74.478 38.336 74.942 39.822 75.407 41.308C75.478 41.534 75.124 41.63 75.053 41.405C73.422 36.19 71.792 30.974 70.161 25.759C69.696 24.273 69.232 22.787 68.767 21.301C68.697 21.076 69.051 20.979 69.121 21.204Z" fill="#352D2A"/>
<path d="M76.092 22.1662C76.686 26.8182 77.281 31.4692 77.876 36.1212C78.046 37.4502 78.216 38.7792 78.386 40.1082C78.416 40.3412 78.049 40.3392 78.019 40.1082C77.425 35.4562 76.83 30.8052 76.235 26.1532C76.065 24.8242 75.895 23.4952 75.725 22.1662C75.695 21.9332 76.062 21.9352 76.092 22.1662Z" fill="#352D2A"/>
<path d="M98.649 49.4988C99.565 48.7648 100.427 47.9648 101.228 47.1058C101.389 46.9328 101.648 47.1928 101.487 47.3648C100.686 48.2238 99.824 49.0238 98.908 49.7578C98.83 49.8198 98.725 49.8328 98.649 49.7578C98.585 49.6948 98.572 49.5598 98.649 49.4988Z" fill="#352D2A"/>
<path d="M96.745 47.8443C97.537 46.5073 98.328 45.1703 99.119 43.8323C99.239 43.6293 99.556 43.8133 99.436 44.0173C98.645 45.3543 97.853 46.6913 97.062 48.0293C96.941 48.2323 96.624 48.0483 96.745 47.8443Z" fill="#352D2A"/>
<path d="M93.034 46.7919C93.687 44.4149 94.422 42.0609 95.24 39.7349C95.318 39.5139 95.672 39.6089 95.594 39.8319C94.776 42.1579 94.041 44.5119 93.388 46.8889C93.325 47.1169 92.971 47.0199 93.034 46.7919Z" fill="#352D2A"/>
<path d="M90.553 37.8319C90.61 37.6029 90.9631 37.6999 90.9071 37.9289C90.2501 40.5819 89.876 43.2969 89.791 46.0289C89.784 46.2639 89.417 46.2649 89.424 46.0289C89.51 43.2659 89.888 40.5149 90.553 37.8319Z" fill="#352D2A"/>
<path d="M86.88 38.009C86.933 41.022 86.986 44.035 87.039 47.048C87.043 47.284 86.676 47.284 86.672 47.048C86.619 44.035 86.566 41.022 86.513 38.009C86.51 37.773 86.876 37.773 86.88 38.009Z" fill="#352D2A"/>
<path d="M80.718 38.8361C81.718 41.9611 82.718 45.0861 83.718 48.2101C83.79 48.4351 83.436 48.5321 83.364 48.3071C82.364 45.1821 81.364 42.0571 80.364 38.9331C80.292 38.7091 80.646 38.6121 80.718 38.8361Z" fill="#352D2A"/>
<path d="M75.585 41.7843L81.451 50.5132C81.583 50.7092 81.265 50.8933 81.134 50.6983C79.179 47.7883 77.223 44.8793 75.268 41.9693C75.137 41.7733 75.454 41.5893 75.585 41.7843Z" fill="#352D2A"/>
<path d="M71.055 44.6156C73.102 46.8096 75.255 48.9046 77.508 50.8866C78.144 51.4466 78.788 51.9966 79.439 52.5386C79.621 52.6896 79.36 52.9476 79.18 52.7976C76.874 50.8776 74.661 48.8466 72.555 46.7096C71.96 46.1066 71.375 45.4946 70.797 44.8746C70.635 44.7026 70.893 44.4426 71.055 44.6156Z" fill="#352D2A"/>
<path d="M66.653 54.7813C69.78 54.7853 72.906 54.8982 76.024 55.1252C76.913 55.1892 77.801 55.2632 78.688 55.3462C78.921 55.3682 78.923 55.7343 78.688 55.7133C75.575 55.4243 72.452 55.2452 69.326 55.1792C68.435 55.1602 67.544 55.1502 66.653 55.1492C66.417 55.1472 66.416 54.7803 66.653 54.7813Z" fill="#352D2A"/>
<path d="M69.575 63.2338C72.616 61.0448 75.657 58.8558 78.698 56.6668C78.89 56.5288 79.073 56.8468 78.883 56.9838C75.842 59.1728 72.801 61.3618 69.76 63.5508C69.568 63.6888 69.385 63.3708 69.575 63.2338Z" fill="#352D2A"/>
<path d="M75.8 67.6442C77.301 64.6112 78.802 61.5792 80.302 58.5462C80.407 58.3352 80.723 58.5202 80.619 58.7312C79.118 61.7642 77.617 64.7962 76.117 67.8292C76.012 68.0412 75.695 67.8552 75.8 67.6442Z" fill="#352D2A"/>
</svg>
