<svg width="87" height="93" viewBox="0 0 87 93" fill="none" xmlns="http://www.w3.org/2000/svg">
<path d="M26.6257 52.0663C25.5817 52.6733 24.5407 53.2813 23.4967 53.8883C22.8397 54.2723 22.1817 54.6563 21.4767 54.9423C19.0097 55.9523 16.0497 55.6573 13.8327 54.1773C13.0857 53.6773 12.4237 53.0593 11.7157 52.5053C9.88068 51.0693 7.70268 50.0653 5.41768 49.6023L5.42068 49.5913C8.48368 48.4973 11.9547 48.5893 14.9557 49.8433C16.1047 50.3223 17.2277 50.9763 18.4717 51.0453C19.6577 51.1113 20.7987 50.6353 21.9427 50.3143C23.0867 49.9963 24.4017 49.8513 25.3927 50.5063C25.9547 50.8743 26.3337 51.4553 26.6257 52.0663Z" fill="#352D2A"/>
<path d="M27.0487 43.284L27.1227 43.331C26.8967 43.699 26.6917 44.086 26.5157 44.48C24.7087 43.065 22.1897 42.884 19.8947 43.136C18.2227 43.323 16.5737 43.704 14.9877 44.267C11.9037 43.823 8.88968 42.868 6.10768 41.453C4.01468 40.388 1.97369 38.976 0.893692 36.893C-0.221308 34.75 -0.166319 32.17 0.370681 29.812C1.85368 23.32 6.56069 18.147 10.2187 12.583C11.8597 10.088 13.3087 7.466 14.5527 4.752C15.2447 3.245 15.8807 1.66 15.8857 0C16.7697 3.676 15.7807 7.568 14.1927 11C12.6047 14.429 10.4327 17.558 8.74968 20.945C7.92968 22.594 7.21368 24.384 7.34268 26.223C7.53168 28.995 9.68869 31.361 12.2577 32.418C14.8247 33.475 17.7277 33.407 20.4597 32.907C22.8237 32.478 25.1197 31.742 27.4547 31.177C27.8017 31.18 28.1487 31.174 28.4937 31.161C26.6547 34.932 25.6767 39.337 27.0487 43.284Z" fill="#352D2A"/>
<path d="M74.4997 45.6276C73.5137 45.0966 72.4877 44.6416 71.4337 44.2686C69.8477 43.7056 68.1997 43.3246 66.5267 43.1376C64.2307 42.8856 61.7117 43.0666 59.9057 44.4816C59.7297 44.0876 59.5247 43.7006 59.2987 43.3326L59.3727 43.2856C60.7457 39.3386 59.7647 34.9336 57.9317 31.1636C56.0437 31.0956 54.1637 30.8196 52.3357 30.3326C49.3227 29.5336 46.2617 28.1686 43.2107 28.7836H43.2077C40.1577 28.1686 37.1017 29.5326 34.0857 30.3326C32.2577 30.8186 30.3777 31.0956 28.4897 31.1636C26.6547 34.9346 25.6757 39.3386 27.0487 43.2856L27.1227 43.3326C26.8967 43.7006 26.6917 44.0876 26.5157 44.4816C24.7087 43.0666 22.1897 42.8856 19.8947 43.1376C18.2227 43.3246 16.5737 43.7056 14.9877 44.2686C13.9337 44.6416 12.9077 45.0966 11.9217 45.6276C9.60769 46.8766 7.51469 48.5466 5.07669 49.5376C5.18969 49.5586 5.30569 49.5796 5.41869 49.6036L5.42169 49.5926C8.48469 48.4986 11.9557 48.5906 14.9567 49.8446C16.1057 50.3236 17.2287 50.9776 18.4727 51.0466C19.6587 51.1126 20.7997 50.6366 21.9437 50.3156C23.0877 49.9976 24.4027 49.8526 25.3937 50.5076C25.9567 50.8756 26.3347 51.4566 26.6267 52.0666C26.6737 52.1666 26.7187 52.2636 26.7607 52.3636C28.7487 56.9996 27.3627 62.5926 29.5327 67.1466C30.2977 68.7506 31.4837 70.1706 31.9337 71.8926C32.5627 74.2956 31.6447 76.7966 30.9237 79.1736C30.2027 81.5536 29.7197 84.2986 31.0607 86.3896C31.6337 87.2806 32.4907 87.9596 33.4117 88.4796C33.7457 88.6686 34.0897 88.8376 34.4427 88.9876C36.1127 89.6976 37.9687 89.9736 39.7727 89.7656C40.4407 89.6896 41.1217 89.5496 41.7977 89.4426C42.2417 89.3216 42.7027 89.2826 43.1707 89.2926H43.2547C43.7227 89.2816 44.1827 89.3216 44.6277 89.4426C45.3037 89.5506 45.9847 89.6896 46.6497 89.7656C48.4567 89.9736 50.3127 89.6976 51.9827 88.9846H51.9857C52.3377 88.8376 52.6797 88.6666 53.0117 88.4796C53.9347 87.9586 54.7917 87.2806 55.3647 86.3896C56.7057 84.2986 56.2217 81.5536 55.5017 79.1736C54.7807 76.7966 53.8637 74.2956 54.4917 71.8926C54.9417 70.1706 56.1277 68.7506 56.8927 67.1466C59.0617 62.5926 57.6767 56.9986 59.6647 52.3636C59.7067 52.2636 59.7517 52.1666 59.7987 52.0666C60.0907 51.4566 60.4697 50.8756 61.0317 50.5076C62.0227 49.8526 63.3377 49.9976 64.4817 50.3156C65.6257 50.6366 66.7647 51.1126 67.9527 51.0466C69.1967 50.9786 70.3197 50.3236 71.4687 49.8446C74.4687 48.5906 77.9397 48.4986 81.0037 49.5926L81.0067 49.6036C81.1197 49.5796 81.2357 49.5586 81.3487 49.5376C78.9067 48.5466 76.8137 46.8766 74.4997 45.6276ZM32.1427 54.7576C32.0717 55.3226 31.4827 55.7096 30.9147 55.7546C29.9867 55.8256 29.0947 55.1656 28.7457 54.3026C28.3937 53.4406 28.5277 52.4326 28.9427 51.5996C28.4377 51.1236 27.7727 50.8186 27.0807 50.7426C28.5347 50.1906 30.2937 50.7086 31.4067 51.8156C32.5927 52.9966 33.1207 54.7156 33.1637 56.3886C32.8817 55.8116 32.5367 55.2616 32.1427 54.7576ZM37.4837 85.6596C37.2527 85.8596 36.9287 85.9176 36.6207 85.9066C35.7717 85.8776 34.9877 85.3756 34.4667 84.7046C33.9457 84.0336 33.6617 83.2086 33.4857 82.3796C33.3197 81.6036 33.2407 80.7916 33.4197 80.0186C33.6327 79.0986 34.2007 78.2646 34.2557 77.3236C34.2847 76.8506 34.1897 76.3326 34.4477 75.9356C34.7347 76.5636 34.7657 77.2716 34.8367 77.9576C34.9737 79.2696 35.2627 80.5666 35.6937 81.8126C36.1197 83.0296 36.7117 84.2446 37.7237 85.0416C37.7617 85.2626 37.6597 85.5076 37.4837 85.6596ZM52.9347 82.3806C52.7587 83.2086 52.4747 84.0346 51.9537 84.7056C51.4327 85.3766 50.6467 85.8786 49.7997 85.9076C49.4917 85.9176 49.1687 85.8606 48.9367 85.6606C48.7607 85.5076 48.6577 85.2636 48.6947 85.0426C49.7047 84.2456 50.2987 83.0306 50.7247 81.8136C51.1557 80.5676 51.4457 79.2706 51.5817 77.9586C51.6497 77.2726 51.6847 76.5646 51.9707 75.9366C52.2287 76.3336 52.1337 76.8516 52.1627 77.3246C52.2177 78.2656 52.7857 79.0996 52.9987 80.0196C53.1787 80.7926 53.1007 81.6056 52.9347 82.3806ZM57.6757 54.3026C57.3257 55.1656 56.4347 55.8256 55.5067 55.7546C54.9387 55.7096 54.3497 55.3236 54.2787 54.7576C53.8817 55.2626 53.5397 55.8116 53.2587 56.3876C53.3007 54.7156 53.8297 52.9956 55.0157 51.8146C56.1277 50.7076 57.8877 50.1896 59.3417 50.7416C58.6497 50.8176 57.9827 51.1226 57.4797 51.5986C57.8937 52.4326 58.0277 53.4396 57.6757 54.3026Z" fill="#82C4C4"/>
<path d="M51.9797 88.9863C51.3037 90.1253 50.5707 91.2903 49.4397 91.9713C47.9747 92.8523 46.1477 92.7553 44.4437 92.6283C44.0337 92.5963 43.6207 92.5683 43.2107 92.5363C42.8007 92.5683 42.3877 92.5963 41.9777 92.6283C40.2737 92.7543 38.4457 92.8523 36.9817 91.9713C35.8507 91.2903 35.1197 90.1283 34.4417 88.9893C36.1117 89.6993 37.9677 89.9753 39.7717 89.7673C40.4397 89.6913 41.1207 89.5513 41.7967 89.4443C42.2597 89.3703 42.7167 89.3103 43.1697 89.2943H43.2537C43.7057 89.3103 44.1637 89.3703 44.6267 89.4443C45.3027 89.5523 45.9837 89.6913 46.6487 89.7673C48.4537 89.9753 50.3107 89.6983 51.9797 88.9863Z" fill="#82C4C4"/>
<path d="M37.4837 85.6595C37.2527 85.8595 36.9287 85.9175 36.6207 85.9065C35.7717 85.8775 34.9877 85.3755 34.4667 84.7045C33.9457 84.0335 33.6617 83.2085 33.4857 82.3795C33.3197 81.6035 33.2407 80.7916 33.4197 80.0186C33.6327 79.0986 34.2007 78.2645 34.2557 77.3235C34.2847 76.8505 34.1897 76.3325 34.4477 75.9355C34.7347 76.5635 34.7657 77.2716 34.8367 77.9576C34.9737 79.2696 35.2627 80.5665 35.6937 81.8125C36.1197 83.0295 36.7117 84.2445 37.7237 85.0415C37.7617 85.2625 37.6597 85.5075 37.4837 85.6595Z" fill="#352D2A"/>
<path d="M52.9347 82.3796C52.7587 83.2076 52.4747 84.0336 51.9537 84.7046C51.4327 85.3756 50.6467 85.8775 49.7997 85.9065C49.4917 85.9165 49.1687 85.8596 48.9367 85.6596C48.7607 85.5066 48.6577 85.2625 48.6947 85.0415C49.7047 84.2445 50.2987 83.0296 50.7247 81.8126C51.1557 80.5666 51.4457 79.2695 51.5817 77.9575C51.6497 77.2715 51.6847 76.5635 51.9707 75.9355C52.2287 76.3325 52.1337 76.8505 52.1627 77.3235C52.2177 78.2645 52.7857 79.0985 52.9987 80.0185C53.1787 80.7915 53.1007 81.6046 52.9347 82.3796Z" fill="#352D2A"/>
<path d="M33.1627 56.3872C32.8817 55.8112 32.5367 55.2622 32.1427 54.7572C32.0717 55.3222 31.4827 55.7092 30.9147 55.7542C29.9867 55.8252 29.0947 55.1652 28.7457 54.3022C28.3937 53.4402 28.5277 52.4322 28.9427 51.5992C28.4377 51.1232 27.7727 50.8182 27.0807 50.7422C28.5347 50.1902 30.2937 50.7082 31.4067 51.8152C32.5917 52.9952 33.1207 54.7152 33.1627 56.3872Z" fill="#352D2A"/>
<path d="M57.4787 51.5982C57.8937 52.4322 58.0287 53.4392 57.6757 54.3012C57.3257 55.1642 56.4347 55.8242 55.5067 55.7532C54.9387 55.7082 54.3497 55.3222 54.2787 54.7562C53.8817 55.2612 53.5397 55.8102 53.2587 56.3862C53.3007 54.7142 53.8297 52.9942 55.0157 51.8132C56.1277 50.7062 57.8877 50.1882 59.3417 50.7402C58.6487 50.8182 57.9807 51.1232 57.4787 51.5982Z" fill="#352D2A"/>
<path d="M81.0027 49.6032C78.7177 50.0662 76.5407 51.0702 74.7047 52.5062C73.9947 53.0612 73.3347 53.6792 72.5877 54.1782C70.3687 55.6582 67.4097 55.9532 64.9437 54.9432C64.2387 54.6562 63.5817 54.2722 62.9247 53.8892C61.8807 53.2822 60.8367 52.6742 59.7957 52.0672C60.0877 51.4572 60.4667 50.8762 61.0287 50.5082C62.0197 49.8532 63.3347 49.9982 64.4787 50.3162C65.6227 50.6372 66.7617 51.1132 67.9497 51.0472C69.1937 50.9792 70.3167 50.3242 71.4657 49.8452C74.4657 48.5912 77.9367 48.4992 81.0007 49.5932L81.0027 49.6032Z" fill="#352D2A"/>
<path d="M85.5277 36.894C84.4467 38.977 82.4037 40.389 80.3137 41.4539C77.5347 42.8689 74.5207 43.823 71.4337 44.268C69.8477 43.705 68.1997 43.324 66.5267 43.137C64.2307 42.885 61.7117 43.0659 59.9057 44.4809C59.7297 44.0869 59.5247 43.7 59.2987 43.332L59.3727 43.285C60.7457 39.338 59.7647 34.9329 57.9317 31.1629C58.2757 31.1759 58.6237 31.181 58.9707 31.179C61.3057 31.744 63.6017 32.4809 65.9657 32.909C68.6977 33.409 71.5987 33.477 74.1677 32.42C76.7367 31.363 78.8927 28.996 79.0827 26.225C79.2117 24.387 78.4937 22.596 77.6757 20.947C75.9927 17.56 73.8207 14.431 72.2327 11.002C70.6447 7.56995 69.6557 3.67895 70.5397 0.00195312C70.5447 1.66095 71.1817 3.24695 71.8727 4.75395C73.1167 7.46795 74.5657 10.089 76.2067 12.585C79.8647 18.149 84.5717 23.3219 86.0517 29.8139C86.5877 32.1709 86.6427 34.7509 85.5277 36.894Z" fill="#352D2A"/>
<path d="M37.1557 56.165C36.4537 54.17 35.2257 52.357 33.6077 50.991C31.7287 49.405 29.3787 48.431 26.9317 48.206C26.6967 48.184 26.6987 48.551 26.9317 48.573C29.0937 48.772 31.1827 49.589 32.9117 50.901C34.6157 52.193 35.9397 53.987 36.6997 55.984C38.4947 60.701 36.6847 65.612 35.8027 70.311C35.3097 72.939 35.0727 75.681 35.8367 78.283C35.9027 78.509 36.2567 78.413 36.1907 78.186C34.7337 73.228 36.9047 68.208 37.6107 63.321C37.9567 60.929 37.9667 58.469 37.1557 56.165Z" fill="#352D2A"/>
<path d="M51.9037 88.8522C49.8727 90.0042 47.4597 89.3502 45.2757 89.2052C42.9307 89.0502 40.6647 89.8162 38.3277 89.7692C37.1567 89.7462 35.9837 89.4982 35.0057 88.8292C34.8107 88.6952 34.6267 89.0132 34.8207 89.1462C36.6577 90.4042 38.9897 90.2112 41.0797 89.9042C42.3247 89.7212 43.5697 89.5092 44.8327 89.5502C46.0807 89.5912 47.3127 89.8311 48.5607 89.8771C49.7727 89.9231 51.0187 89.7762 52.0887 89.1692C52.2947 89.0522 52.1097 88.7362 51.9037 88.8522Z" fill="#352D2A"/>
<path d="M12.5957 13.7605C11.9187 13.1205 11.1467 12.5855 10.3087 12.1785C10.0977 12.0755 9.91068 12.3925 10.1237 12.4955C10.9347 12.8895 11.6807 13.4015 12.3367 14.0205C12.5087 14.1815 12.7677 13.9225 12.5957 13.7605Z" fill="#82C4C4"/>
<path d="M10.6467 16.8707C9.86668 16.2987 9.02567 15.8178 8.13767 15.4348C8.04567 15.3958 7.94168 15.4088 7.88668 15.5008C7.84068 15.5778 7.86168 15.7128 7.95268 15.7518C8.84068 16.1348 9.68168 16.6157 10.4617 17.1877C10.5417 17.2467 10.6657 17.2007 10.7127 17.1217C10.7677 17.0287 10.7257 16.9287 10.6467 16.8707Z" fill="#82C4C4"/>
<path d="M8.15468 21.4142C6.95068 21.0132 5.70468 20.7592 4.44168 20.6492C4.20668 20.6292 4.20768 20.9952 4.44168 21.0162C5.67268 21.1232 6.88468 21.3772 8.05768 21.7672C8.28168 21.8422 8.37868 21.4882 8.15468 21.4142Z" fill="#82C4C4"/>
<path d="M7.31068 24.7829C5.41068 25.4509 3.48568 26.0439 1.53868 26.5609C1.31068 26.6209 1.40768 26.9749 1.63568 26.9149C3.58268 26.3989 5.50768 25.8059 7.40768 25.1369C7.62968 25.0589 7.53468 24.7039 7.31068 24.7829Z" fill="#82C4C4"/>
<path d="M8.11468 29.4598C5.49368 31.5778 3.06669 33.9278 0.865688 36.4798C0.712688 36.6578 0.970675 36.9178 1.12467 36.7388C3.32568 34.1868 5.75268 31.8368 8.37368 29.7188C8.55768 29.5708 8.29668 29.3128 8.11468 29.4598Z" fill="#82C4C4"/>
<path d="M11.9217 32.4382C10.2317 35.5342 8.54168 38.6292 6.85168 41.7252C6.73868 41.9322 7.05468 42.1172 7.16868 41.9102C8.85868 38.8142 10.5487 35.7192 12.2387 32.6232C12.3517 32.4162 12.0357 32.2312 11.9217 32.4382Z" fill="#82C4C4"/>
<path d="M17.2397 32.8066C16.5887 36.5226 15.9377 40.2386 15.2867 43.9546C15.2467 44.1856 15.5997 44.2846 15.6407 44.0516C16.2917 40.3356 16.9427 36.6196 17.5937 32.9036C17.6337 32.6736 17.2797 32.5736 17.2397 32.8066Z" fill="#82C4C4"/>
<path d="M23.1707 32.3087C22.8457 35.9547 22.5217 39.6007 22.1967 43.2477C22.1757 43.4827 22.5427 43.4817 22.5637 43.2477C22.8887 39.6017 23.2127 35.9557 23.5377 32.3087C23.5587 32.0737 23.1917 32.0747 23.1707 32.3087Z" fill="#82C4C4"/>
<path d="M49.2917 56.2666C49.9937 54.2716 51.2217 52.4586 52.8397 51.0926C54.7187 49.5066 57.0687 48.5326 59.5157 48.3076C59.7507 48.2856 59.7487 48.6526 59.5157 48.6746C57.3537 48.8736 55.2647 49.6906 53.5357 51.0026C51.8317 52.2946 50.5077 54.0886 49.7477 56.0856C47.9527 60.8026 49.7627 65.7136 50.6447 70.4126C51.1377 73.0406 51.3747 75.7826 50.6107 78.3846C50.5447 78.6106 50.1907 78.5146 50.2567 78.2876C51.7137 73.3296 49.5427 68.3096 48.8367 63.4226C48.4907 61.0296 48.4807 58.5696 49.2917 56.2666Z" fill="#352D2A"/>
<path d="M73.8517 13.8621C74.5287 13.2221 75.3007 12.6871 76.1387 12.2801C76.3497 12.1771 76.5367 12.4941 76.3237 12.5971C75.5127 12.9911 74.7667 13.5031 74.1107 14.1221C73.9397 14.2841 73.6797 14.0251 73.8517 13.8621Z" fill="#82C4C4"/>
<path d="M75.8007 16.9704C76.5807 16.3984 77.4217 15.9174 78.3097 15.5344C78.4017 15.4954 78.5057 15.5084 78.5607 15.6004C78.6067 15.6774 78.5857 15.8124 78.4947 15.8514C77.6067 16.2344 76.7657 16.7154 75.9857 17.2874C75.9057 17.3464 75.7817 17.3004 75.7347 17.2214C75.6797 17.1294 75.7217 17.0294 75.8007 16.9704Z" fill="#82C4C4"/>
<path d="M78.2927 21.5158C79.4967 21.1148 80.7417 20.8608 82.0057 20.7508C82.2407 20.7308 82.2397 21.0968 82.0057 21.1178C80.7747 21.2248 79.5627 21.4788 78.3897 21.8688C78.1657 21.9438 78.0697 21.5908 78.2927 21.5158Z" fill="#82C4C4"/>
<path d="M79.1367 24.8842C81.0367 25.5522 82.9617 26.1452 84.9087 26.6622C85.1367 26.7222 85.0397 27.0762 84.8117 27.0162C82.8647 26.5002 80.9397 25.9072 79.0397 25.2382C78.8177 25.1602 78.9137 24.8062 79.1367 24.8842Z" fill="#82C4C4"/>
<path d="M78.3327 29.5614C80.9537 31.6794 83.3807 34.0294 85.5817 36.5814C85.7347 36.7594 85.4767 37.0194 85.3227 36.8404C83.1217 34.2884 80.6947 31.9384 78.0737 29.8204C77.8897 29.6724 78.1507 29.4144 78.3327 29.5614Z" fill="#82C4C4"/>
<path d="M74.5257 32.5397C76.2157 35.6357 77.9057 38.7307 79.5957 41.8267C79.7087 42.0337 79.3927 42.2187 79.2787 42.0117C77.5887 38.9157 75.8987 35.8207 74.2087 32.7247C74.0957 32.5177 74.4127 32.3327 74.5257 32.5397Z" fill="#82C4C4"/>
<path d="M69.2077 32.9077C69.8587 36.6237 70.5097 40.3397 71.1607 44.0557C71.2007 44.2867 70.8477 44.3857 70.8067 44.1527C70.1557 40.4367 69.5047 36.7207 68.8537 33.0047C68.8137 32.7747 69.1677 32.6757 69.2077 32.9077Z" fill="#82C4C4"/>
<path d="M63.2767 32.4099C63.6017 36.0559 63.9257 39.7019 64.2507 43.3489C64.2717 43.5839 63.9047 43.5829 63.8837 43.3489C63.5587 39.7029 63.2347 36.0569 62.9097 32.4099C62.8897 32.1749 63.2567 32.1769 63.2767 32.4099Z" fill="#82C4C4"/>
<path d="M49.5507 79.2615C46.5707 81.2675 42.7687 81.7585 39.3827 80.5485C38.4327 80.2095 37.5337 79.7405 36.7057 79.1655C36.5117 79.0305 36.3277 79.3485 36.5207 79.4825C39.5457 81.5835 43.4667 82.1455 46.9547 80.9565C47.9377 80.6215 48.8737 80.1575 49.7357 79.5785C49.9297 79.4475 49.7467 79.1295 49.5507 79.2615Z" fill="#352D2A"/>
<path d="M47.2687 85.9196C44.9397 86.9406 42.2387 86.9646 39.8827 86.0186C39.6637 85.9306 39.5687 86.2856 39.7857 86.3726C42.2387 87.3576 45.0377 87.2956 47.4547 86.2366C47.6697 86.1416 47.4837 85.8256 47.2687 85.9196Z" fill="#352D2A"/>
<path d="M43.2107 31.7656L44.6197 38.6426L48.4197 36.8356L46.6137 40.6356L53.4907 42.0456L46.6137 43.4556L48.4197 47.2556L44.6197 45.4486L43.2107 52.3256L41.8007 45.4486L38.0007 47.2556L39.8067 43.4556L32.9307 42.0456L39.8067 40.6356L38.0007 36.8356L41.8007 38.6426L43.2107 31.7656Z" fill="#352D2A"/>
<path d="M38.0287 27.628C35.2687 25.655 33.6607 22.261 34.1387 18.663C34.8277 13.475 39.5927 9.82697 44.7797 10.515C49.9687 11.204 53.6177 15.969 52.9287 21.157C52.5587 23.942 51.0157 26.283 48.8617 27.747C49.3097 27.02 49.6137 26.187 49.7337 25.286C50.1927 21.832 47.7647 18.661 44.3097 18.202C40.8567 17.744 37.6847 20.171 37.2257 23.626C37.0347 25.067 37.3467 26.461 38.0287 27.628Z" fill="#82C4C4"/>
<path d="M25.3857 23.8257L23.7477 20.8677L25.3857 17.7617L26.9617 20.8897L25.3857 23.8257Z" fill="#352D2A"/>
<path d="M31.3587 23.3916C32.4847 23.3916 32.4867 21.6406 31.3587 21.6406C30.2327 21.6406 30.2307 23.3916 31.3587 23.3916Z" fill="#352D2A"/>
<path d="M24.8707 27.2725C25.9967 27.2725 25.9987 25.5215 24.8707 25.5215C23.7437 25.5215 23.7427 27.2725 24.8707 27.2725Z" fill="#352D2A"/>
<path d="M29.6677 28.1475C30.7937 28.1475 30.7957 26.3965 29.6677 26.3965C28.5417 26.3975 28.5397 28.1475 29.6677 28.1475Z" fill="#352D2A"/>
<path d="M56.7007 17.7661L55.0627 14.8081L56.7007 11.7031L58.2767 14.8301L56.7007 17.7661Z" fill="#352D2A"/>
<path d="M56.8637 7.12492C56.8637 8.25092 58.6147 8.25292 58.6147 7.12492C58.6147 5.99792 56.8637 5.99692 56.8637 7.12492Z" fill="#352D2A"/>
<path d="M54.3357 9.20998C55.4617 9.20998 55.4637 7.45898 54.3357 7.45898C53.2097 7.45998 53.2077 9.20998 54.3357 9.20998Z" fill="#352D2A"/>
<path d="M59.4807 11.7041C60.6067 11.7041 60.6087 9.95312 59.4807 9.95312C58.3547 9.95312 58.3527 11.7041 59.4807 11.7041Z" fill="#352D2A"/>
<path d="M72.0857 67.7667C69.4067 67.8387 66.7937 68.9447 64.8597 70.7997C64.6787 70.9707 64.5097 71.1507 64.3437 71.3357C64.4847 71.0207 64.6247 70.7047 64.7517 70.3847C64.8297 70.2067 64.9007 70.0257 64.9687 69.8437C64.9997 69.8237 65.0297 69.7957 65.0457 69.7627C65.8317 68.0797 67.4997 67.0327 68.4377 65.4457C68.9177 64.6267 69.2527 63.7267 69.4137 62.7887C69.5677 61.8797 69.5227 60.9597 69.4727 60.0407C69.4177 59.0187 69.3667 57.9787 69.6497 56.9847C69.7147 56.7587 69.3817 56.6307 69.3057 56.8567C68.7297 58.5007 67.3117 59.6127 66.2317 60.9167C65.6657 61.5977 65.1977 62.3517 64.9317 63.2027C64.6427 64.1477 64.5697 65.1457 64.5757 66.1297C64.5827 66.9737 64.6407 67.8167 64.6567 68.6597C64.6567 68.6907 64.6567 68.7227 64.6567 68.7537C64.6607 69.0167 64.6597 69.2827 64.6517 69.5457C64.6487 69.5637 64.6537 69.5817 64.6587 69.5997C64.5797 69.8127 64.4957 70.0277 64.4087 70.2417C64.1487 70.8767 63.8607 71.5047 63.5547 72.1187C63.5587 72.0767 63.5637 72.0317 63.5677 71.9907C63.5867 71.8647 63.6137 71.7417 63.6217 71.6547C63.7017 70.9137 63.7707 70.1687 63.7897 69.4247C63.8237 67.9747 63.6197 66.5447 62.9767 65.2347C62.2687 63.7937 61.1857 62.5817 60.1187 61.3987C59.9747 61.2397 59.7437 61.3967 59.8127 61.5897C60.3717 63.1707 59.7077 64.8597 59.6327 66.4637C59.5977 67.2637 59.7077 68.0607 60.0887 68.7727C60.4597 69.4697 61.0017 70.0507 61.5287 70.6337C61.9037 71.0467 62.2847 71.4737 62.5727 71.9487C62.7477 72.2367 62.8927 72.5407 62.9817 72.8677C63.0007 72.9337 63.0447 72.9727 63.0907 72.9947C62.9187 73.3097 62.7397 73.6227 62.5557 73.9297L62.8687 74.1197C63.0527 73.8247 63.2287 73.5187 63.4007 73.2147C63.4487 73.1267 63.4937 73.0377 63.5417 72.9507C63.7407 73.0477 63.9867 73.0807 64.1877 73.1087C65.6297 73.3127 67.0197 72.6237 68.1047 71.7367C69.5117 70.5937 70.5837 69.0667 72.1467 68.1147C72.2817 68.0307 72.2917 67.7607 72.0857 67.7667Z" fill="#352D2A"/>
<path d="M72.9287 74.1076C69.9617 73.4196 66.8107 72.9486 63.8597 73.9756C63.4337 74.1226 63.0247 74.3066 62.6297 74.5156C62.7127 74.3866 62.7927 74.2556 62.8707 74.1196L62.5577 73.9296C62.3687 74.2386 62.1767 74.5426 61.9797 74.8416C61.7347 74.3436 61.7517 73.7086 61.6387 73.1696C61.3507 71.8306 60.7737 70.5596 59.9707 69.4476C59.0547 68.1876 57.8507 67.1536 56.4597 66.4526C56.3117 66.3776 56.1667 66.5666 56.2277 66.6986C56.8437 68.0306 56.9587 69.5096 57.3497 70.9096C57.7377 72.2976 58.4687 73.5196 59.6247 74.4076C60.2127 74.8566 60.8807 75.1956 61.5887 75.4076C61.2857 75.8426 60.9737 76.2746 60.6427 76.6906C60.1127 77.3586 59.5507 77.9976 58.9577 78.6146C59.2837 76.0756 58.4727 73.4586 56.7227 71.5676C56.1927 70.9946 55.5857 70.4916 54.9257 70.0776C54.7837 69.9856 54.5507 70.1296 54.6517 70.3006C55.3407 71.4876 55.1797 72.9106 55.2657 74.2256C55.2997 74.7346 55.3847 75.2316 55.5257 75.7146C55.7597 76.5176 56.1407 77.2696 56.6667 77.9386C57.1037 78.4886 57.6357 78.9636 58.2247 79.3466C57.5117 80.0326 56.7607 80.6756 55.9747 81.2756L56.1947 81.5686C56.3867 81.4206 56.5857 81.2756 56.7717 81.1216C57.4087 80.6076 58.0157 80.0586 58.6037 79.4866C60.0717 80.2316 61.7037 80.8066 63.3717 80.5816C64.7997 80.3926 66.0797 79.6836 67.3987 79.1566C68.1557 78.8556 68.9367 78.6176 69.7567 78.5696C69.9437 78.5606 69.9537 78.2716 69.7897 78.2176C66.9037 77.2586 63.7247 76.8126 60.8067 77.8946C60.3977 78.0476 60.0047 78.2306 59.6247 78.4446C60.0787 77.9486 60.5137 77.4416 60.9287 76.9146C61.3017 76.4466 61.6557 75.9686 61.9987 75.4776C62.5297 75.9846 63.3197 76.2696 64.0167 76.4356C65.4987 76.7836 66.9527 76.4826 68.3547 75.9626C69.8487 75.4066 71.2957 74.6496 72.8967 74.4546C73.0687 74.4376 73.1097 74.1476 72.9287 74.1076Z" fill="#352D2A"/>
<path d="M14.2977 68.115C15.8607 69.068 16.9327 70.594 18.3397 71.737C19.4247 72.625 20.8147 73.313 22.2567 73.109C22.4577 73.081 22.7037 73.049 22.9017 72.951C22.9497 73.039 22.9947 73.128 23.0427 73.215C23.2147 73.519 23.3907 73.825 23.5747 74.12L23.8877 73.93C23.7037 73.623 23.5247 73.31 23.3527 72.995C23.3997 72.974 23.4437 72.934 23.4617 72.868C23.5517 72.541 23.6967 72.237 23.8707 71.949C24.1597 71.474 24.5407 71.047 24.9147 70.634C25.4417 70.051 25.9837 69.47 26.3547 68.773C26.7357 68.06 26.8467 67.264 26.8107 66.464C26.7347 64.861 26.0717 63.171 26.6307 61.59C26.6997 61.396 26.4687 61.239 26.3247 61.399C25.2587 62.582 24.1757 63.794 23.4667 65.235C22.8237 66.546 22.6197 67.975 22.6537 69.425C22.6717 70.169 22.7417 70.914 22.8217 71.655C22.8307 71.742 22.8567 71.865 22.8757 71.991C22.8797 72.033 22.8847 72.078 22.8887 72.119C22.5827 71.505 22.2937 70.877 22.0347 70.242C21.9477 70.028 21.8637 69.813 21.7847 69.6C21.7897 69.582 21.7947 69.565 21.7917 69.546C21.7837 69.283 21.7827 69.017 21.7867 68.754C21.7867 68.723 21.7867 68.691 21.7867 68.66C21.8017 67.817 21.8607 66.974 21.8677 66.13C21.8737 65.146 21.7997 64.148 21.5117 63.203C21.2457 62.351 20.7777 61.598 20.2117 60.917C19.1327 59.613 17.7137 58.501 17.1377 56.857C17.0617 56.631 16.7297 56.758 16.7937 56.985C17.0767 57.979 17.0257 59.019 16.9707 60.041C16.9207 60.959 16.8757 61.88 17.0297 62.789C17.1907 63.727 17.5247 64.627 18.0057 65.446C18.9437 67.034 20.6117 68.08 21.3977 69.763C21.4137 69.796 21.4437 69.824 21.4747 69.844C21.5427 70.026 21.6137 70.207 21.6917 70.385C21.8187 70.706 21.9597 71.021 22.0997 71.336C21.9337 71.151 21.7647 70.972 21.5837 70.8C19.6497 68.945 17.0367 67.839 14.3577 67.767C14.1537 67.761 14.1647 68.031 14.2977 68.115Z" fill="#352D2A"/>
<path d="M13.5497 74.4605C15.1517 74.6555 16.5987 75.4124 18.0917 75.9684C19.4937 76.4874 20.9467 76.7885 22.4297 76.4415C23.1267 76.2765 23.9167 75.9905 24.4477 75.4835C24.7907 75.9745 25.1447 76.4524 25.5177 76.9205C25.9327 77.4465 26.3677 77.9544 26.8217 78.4504C26.4407 78.2364 26.0487 78.0535 25.6397 77.9005C22.7217 76.8175 19.5437 77.2634 16.6567 78.2234C16.4927 78.2764 16.5027 78.5664 16.6897 78.5754C17.5097 78.6224 18.2897 78.8605 19.0477 79.1625C20.3657 79.6895 21.6467 80.3985 23.0747 80.5875C24.7427 80.8125 26.3747 80.2375 27.8427 79.4925C28.4307 80.0645 29.0377 80.6135 29.6747 81.1275C29.8607 81.2815 30.0597 81.4265 30.2517 81.5745L30.4717 81.2814C29.6857 80.6814 28.9337 80.0385 28.2217 79.3525C28.8107 78.9695 29.3417 78.4945 29.7797 77.9445C30.3057 77.2755 30.6877 76.5235 30.9207 75.7205C31.0617 75.2375 31.1467 74.7404 31.1807 74.2314C31.2667 72.9164 31.1057 71.4935 31.7947 70.3065C31.8957 70.1365 31.6617 69.9915 31.5207 70.0835C30.8607 70.4975 30.2537 71.0004 29.7237 71.5734C27.9737 73.4634 27.1627 76.0814 27.4887 78.6204C26.8957 78.0034 26.3337 77.3645 25.8037 76.6965C25.4727 76.2795 25.1597 75.8484 24.8577 75.4134C25.5647 75.2014 26.2337 74.8634 26.8217 74.4134C27.9787 73.5254 28.7097 72.3035 29.0967 70.9155C29.4877 69.5145 29.6027 68.0364 30.2187 66.7044C30.2787 66.5724 30.1347 66.3835 29.9867 66.4585C28.5967 67.1595 27.3927 68.1934 26.4757 69.4534C25.6727 70.5654 25.0967 71.8364 24.8077 73.1754C24.6947 73.7144 24.7117 74.3495 24.4667 74.8475C24.2697 74.5495 24.0787 74.2444 23.8887 73.9354L23.5757 74.1255C23.6537 74.2605 23.7337 74.3914 23.8167 74.5214C23.4217 74.3124 23.0137 74.1274 22.5867 73.9814C19.6347 72.9544 16.4847 73.4255 13.5177 74.1135C13.3357 74.1485 13.3777 74.4385 13.5497 74.4605Z" fill="#352D2A"/>
</svg>
