<svg width="100" height="105" viewBox="0 0 100 105" fill="none" xmlns="http://www.w3.org/2000/svg">
<path d="M31.3809 89.8092C32.3339 88.2462 33.8599 87.1742 35.0029 85.7672C35.8909 84.6822 36.5789 83.2922 36.3749 81.8502C36.3469 81.6492 36.3149 81.4032 36.2169 81.2042C36.3049 81.1562 36.3939 81.1112 36.4809 81.0632C36.7849 80.8912 37.0909 80.7152 37.3859 80.5312L37.1959 80.2182C36.8889 80.4022 36.5759 80.5812 36.2609 80.7532C36.2399 80.7062 36.1999 80.6622 36.1339 80.6442C35.8069 80.5542 35.5029 80.4092 35.2149 80.2352C34.7399 79.9462 34.3129 79.5652 33.8999 79.1912C33.3169 78.6642 32.7359 78.1222 32.0389 77.7512C31.3259 77.3702 30.5299 77.2602 29.7299 77.2952C28.1269 77.3712 26.4369 78.0342 24.8559 77.4752C24.6619 77.4062 24.5049 77.6372 24.6649 77.7812C25.8479 78.8472 27.0599 79.9302 28.5009 80.6392C29.8119 81.2822 31.2409 81.4862 32.6909 81.4522C33.4349 81.4342 34.1799 81.3642 34.9209 81.2842C35.0079 81.2752 35.1309 81.2492 35.2569 81.2302C35.2989 81.2262 35.3439 81.2212 35.3849 81.2172C34.7709 81.5232 34.1429 81.8122 33.5079 82.0712C33.2939 82.1582 33.0789 82.2422 32.8659 82.3212C32.8479 82.3162 32.8309 82.3112 32.8119 82.3142C32.5489 82.3222 32.2829 82.3232 32.0199 82.3192C31.9889 82.3192 31.9569 82.3192 31.9259 82.3192C31.0829 82.3042 30.2399 82.2452 29.3959 82.2382C28.4119 82.2322 27.4139 82.3062 26.4689 82.5942C25.6169 82.8602 24.8639 83.3282 24.1829 83.8942C22.8789 84.9732 21.7669 86.3922 20.1229 86.9682C19.8969 87.0442 20.0239 87.3762 20.2509 87.3122C21.2449 87.0292 22.2849 87.0802 23.3069 87.1352C24.2249 87.1852 25.1459 87.2302 26.0549 87.0762C26.9929 86.9152 27.8929 86.5812 28.7119 86.1002C30.2999 85.1622 31.3459 83.4942 33.0289 82.7082C33.0619 82.6922 33.0899 82.6622 33.1099 82.6312C33.2919 82.5632 33.4729 82.4922 33.6509 82.4142C33.9719 82.2872 34.2869 82.1462 34.6019 82.0062C34.4169 82.1722 34.2379 82.3412 34.0659 82.5222C32.2109 84.4562 31.1049 87.0692 31.0329 89.7482C31.0279 89.9522 31.2979 89.9422 31.3809 89.8092Z" fill="#82C4C4"/>
<path d="M37.7259 90.5567C37.9209 88.9547 38.6779 87.5077 39.2339 86.0147C39.7529 84.6127 40.0539 83.1597 39.7069 81.6767C39.5419 80.9797 39.2559 80.1897 38.7489 79.6587C39.2399 79.3157 39.7179 78.9617 40.1859 78.5887C40.7119 78.1737 41.2199 77.7387 41.7159 77.2847C41.5019 77.6657 41.3189 78.0577 41.1659 78.4667C40.0829 81.3847 40.5289 84.5627 41.4889 87.4497C41.5419 87.6137 41.8319 87.6037 41.8409 87.4167C41.8879 86.5967 42.1259 85.8167 42.4279 85.0587C42.9549 83.7397 43.6639 82.4597 43.8529 81.0317C44.0779 79.3637 43.5029 77.7317 42.7579 76.2637C43.3299 75.6757 43.8789 75.0687 44.3929 74.4317C44.5469 74.2457 44.6919 74.0467 44.8399 73.8547L44.5469 73.6347C43.9469 74.4207 43.3039 75.1727 42.6179 75.8847C42.2349 75.2957 41.7599 74.7647 41.2099 74.3267C40.5409 73.8007 39.7889 73.4187 38.9859 73.1857C38.5029 73.0447 38.0059 72.9597 37.4969 72.9257C36.1819 72.8397 34.7589 73.0007 33.5719 72.3117C33.4019 72.2107 33.2569 72.4447 33.3489 72.5857C33.7629 73.2457 34.2659 73.8527 34.8389 74.3827C36.7289 76.1327 39.3469 76.9437 41.8859 76.6177C41.2689 77.2107 40.6299 77.7727 39.9619 78.3027C39.5449 78.6337 39.1139 78.9467 38.6789 79.2487C38.4669 78.5417 38.1289 77.8727 37.6789 77.2847C36.7909 76.1277 35.5689 75.3967 34.1809 75.0097C32.7799 74.6187 31.3019 74.5037 29.9699 73.8877C29.8379 73.8277 29.6489 73.9717 29.7239 74.1197C30.4249 75.5097 31.4589 76.7137 32.7189 77.6307C33.8309 78.4337 35.1019 79.0097 36.4409 79.2987C36.9799 79.4117 37.6149 79.3947 38.1129 79.6397C37.8149 79.8367 37.5099 80.0277 37.2009 80.2177L37.3909 80.5307C37.5259 80.4527 37.6569 80.3727 37.7869 80.2897C37.5779 80.6847 37.3929 81.0927 37.2469 81.5197C36.2199 84.4717 36.6909 87.6217 37.3789 90.5887C37.4139 90.7707 37.7039 90.7297 37.7259 90.5567Z" fill="#82C4C4"/>
<path d="M66.0919 89.3107C66.0199 86.6317 64.914 84.0187 63.059 82.0847C62.888 81.9037 62.7079 81.7347 62.5229 81.5687C62.8379 81.7097 63.154 81.8497 63.474 81.9767C63.652 82.0547 63.833 82.1257 64.015 82.1937C64.035 82.2247 64.0629 82.2547 64.0959 82.2707C65.7789 83.0567 66.8259 84.7247 68.4129 85.6627C69.2319 86.1427 70.1319 86.4777 71.0699 86.6387C71.9789 86.7927 72.8989 86.7477 73.8179 86.6977C74.8399 86.6427 75.8799 86.5917 76.8739 86.8747C77.0999 86.9397 77.228 86.6067 77.002 86.5307C75.358 85.9547 74.2459 84.5367 72.9419 83.4567C72.2609 82.8907 71.507 82.4227 70.656 82.1567C69.711 81.8677 68.713 81.7947 67.729 81.8007C66.885 81.8077 66.042 81.8657 65.199 81.8817C65.168 81.8817 65.136 81.8817 65.1049 81.8817C64.8419 81.8857 64.576 81.8847 64.313 81.8767C64.295 81.8737 64.2769 81.8787 64.2589 81.8837C64.0459 81.8047 63.831 81.7207 63.617 81.6337C62.982 81.3737 62.354 81.0857 61.74 80.7797C61.782 80.7837 61.827 80.7887 61.868 80.7927C61.994 80.8117 62.1169 80.8387 62.2039 80.8467C62.9449 80.9267 63.69 80.9957 64.434 81.0147C65.884 81.0487 67.3139 80.8447 68.6239 80.2017C70.0649 79.4937 71.277 78.4107 72.46 77.3437C72.619 77.1997 72.462 76.9687 72.269 77.0377C70.688 77.5967 68.999 76.9327 67.395 76.8577C66.595 76.8227 65.798 76.9327 65.086 77.3137C64.389 77.6847 63.808 78.2267 63.225 78.7537C62.812 79.1287 62.385 79.5097 61.91 79.7977C61.622 79.9727 61.318 80.1177 60.991 80.2067C60.925 80.2257 60.886 80.2697 60.864 80.3157C60.549 80.1437 60.2359 79.9647 59.9289 79.7807L59.739 80.0937C60.034 80.2777 60.34 80.4537 60.644 80.6257C60.732 80.6737 60.821 80.7187 60.908 80.7667C60.811 80.9657 60.7779 81.2117 60.7499 81.4127C60.5459 82.8547 61.2349 84.2447 62.1219 85.3297C63.2649 86.7367 64.7919 87.8087 65.7439 89.3717C65.828 89.5057 66.0979 89.5157 66.0919 89.3107Z" fill="#82C4C4"/>
<path d="M59.7509 90.1532C60.4389 87.1862 60.91 84.0352 59.8829 81.0842C59.7359 80.6582 59.5519 80.2492 59.3429 79.8542C59.4719 79.9372 59.603 80.0172 59.739 80.0952L59.9289 79.7822C59.6199 79.5932 59.316 79.4012 59.017 79.2042C59.515 78.9592 60.1499 78.9762 60.6889 78.8632C62.0279 78.5752 63.299 77.9982 64.4109 77.1952C65.6709 76.2792 66.705 75.0752 67.406 73.6842C67.481 73.5362 67.292 73.3912 67.16 73.4522C65.828 74.0682 64.349 74.1832 62.949 74.5742C61.561 74.9622 60.339 75.6932 59.451 76.8492C59.002 77.4372 58.663 78.1052 58.451 78.8132C58.016 78.5102 57.584 78.1982 57.168 77.8672C56.5 77.3372 55.8609 76.7752 55.2439 76.1822C57.7829 76.5082 60.3999 75.6972 62.2909 73.9472C62.8639 73.4172 63.367 72.8102 63.781 72.1502C63.873 72.0082 63.729 71.7752 63.558 71.8762C62.371 72.5652 60.948 72.4042 59.6329 72.4902C59.124 72.5242 58.627 72.6092 58.144 72.7502C57.341 72.9842 56.589 73.3652 55.92 73.8912C55.37 74.3282 54.8949 74.8602 54.5119 75.4492C53.8259 74.7362 53.1829 73.9852 52.5829 73.1992L52.2899 73.4192C52.4379 73.6112 52.5829 73.8102 52.7369 73.9962C53.2509 74.6332 53.7999 75.2402 54.3719 75.8282C53.6269 77.2962 53.0509 78.9282 53.2769 80.5962C53.4659 82.0242 54.175 83.3042 54.702 84.6232C55.003 85.3802 55.2409 86.1612 55.2889 86.9812C55.2979 87.1682 55.587 87.1782 55.641 87.0142C56.6 84.1282 57.046 80.9492 55.964 78.0312C55.811 77.6222 55.6279 77.2292 55.4139 76.8492C55.9099 77.3032 56.4169 77.7382 56.9439 78.1532C57.4119 78.5262 57.89 78.8802 58.381 79.2232C57.874 79.7542 57.589 80.5442 57.423 81.2412C57.075 82.7242 57.376 84.1772 57.896 85.5792C58.452 87.0732 59.209 88.5202 59.404 90.1212C59.421 90.2922 59.7109 90.3342 59.7509 90.1532Z" fill="#82C4C4"/>
<path d="M65.1179 45.9369C65.1179 44.5789 64.9409 43.2599 64.6109 42.0059C66.7779 45.0129 68.0529 48.7039 68.0529 52.6919C68.0529 62.8059 59.8539 71.0059 49.7399 71.0059C39.6259 71.0059 31.4269 62.8069 31.4269 52.6919C31.4269 48.7039 32.7019 45.0129 34.8689 42.0059C34.5389 43.2599 34.3619 44.5789 34.3619 45.9369C34.3619 54.4299 41.2479 61.3159 49.7409 61.3159C58.2319 61.3159 65.1179 54.4299 65.1179 45.9369Z" fill="#82C4C4"/>
<path d="M49.2619 31.5885V85.6855H50.2149V31.5885H49.2619Z" fill="#352D2A"/>
<path d="M49.738 32.2104L44.1889 35.3845L49.738 22.2734L56.4399 35.3845L49.738 32.2104Z" fill="#82C4C4"/>
<path d="M49.738 84.5586L43.7169 89.8976V104.849L49.738 99.1526L55.7599 104.849V89.7496L49.738 84.5586Z" fill="#82C4C4"/>
<path d="M49.6769 56.1207C53.9527 56.1207 57.419 52.6545 57.419 48.3787C57.419 44.1029 53.9527 40.6367 49.6769 40.6367C45.4012 40.6367 41.935 44.1029 41.935 48.3787C41.935 52.6545 45.4012 56.1207 49.6769 56.1207Z" fill="#352D2A"/>
<path d="M39.921 35.2301C41.275 36.3251 44.2809 37.8232 49.6749 36.1842L49.8189 38.7072C49.8189 38.7072 44.8349 38.4672 42.1809 41.0822C40.8239 42.4172 38.692 42.6281 37.104 41.5751C36.547 41.2041 35.98 40.7652 35.449 40.2402C34.569 39.3762 33.3199 38.9911 32.0939 39.1521C31.0499 39.2861 29.8949 39.5041 29.2229 39.8341L28.5229 36.8652C28.5229 36.8652 32.4249 34.5872 37.3449 34.3572C38.2819 34.3152 39.191 34.6381 39.921 35.2301Z" fill="#352D2A"/>
<path d="M29.2229 39.8342L28.5229 36.8652C28.5229 36.8652 17.9669 41.1252 13.6059 46.0642C9.24495 51.0032 2.57095 50.5142 0.0349461 47.6662C0.0349461 47.6662 -0.632054 50.3133 3.86195 51.3593C8.35595 52.4053 15.3719 51.5872 17.1659 47.9772C19.0339 44.2172 29.2229 39.8342 29.2229 39.8342Z" fill="#82C4C4"/>
<path d="M59.7859 35.2301C58.4319 36.3251 55.4259 37.8232 50.0319 36.1842L49.8879 38.7072C49.8879 38.7072 54.8719 38.4672 57.5259 41.0822C58.8829 42.4172 61.0149 42.6281 62.6029 41.5751C63.1599 41.2041 63.7269 40.7652 64.2579 40.2402C65.1379 39.3762 66.3869 38.9911 67.6129 39.1521C68.6569 39.2861 69.8119 39.5041 70.4839 39.8341L71.1839 36.8652C71.1839 36.8652 67.2819 34.5872 62.3619 34.3572C61.4249 34.3152 60.5159 34.6381 59.7859 35.2301Z" fill="#352D2A"/>
<path d="M70.4849 39.8342L71.1849 36.8652C71.1849 36.8652 81.7409 41.1252 86.1019 46.0642C90.4629 51.0032 97.1369 50.5142 99.6729 47.6662C99.6729 47.6662 100.34 50.3133 95.8459 51.3593C91.3519 52.4053 84.3359 51.5872 82.5419 47.9772C80.6729 44.2172 70.4849 39.8342 70.4849 39.8342Z" fill="#82C4C4"/>
<path d="M50.0219 84.4807V88.0407C52.2369 89.7057 54.4 91.4727 56.461 93.3027C56.534 93.3687 56.571 93.4567 56.571 93.5447C56.571 93.6217 56.5449 93.7027 56.4869 93.7687C56.3549 93.9157 56.1349 93.9297 55.9919 93.8017C54.0669 92.0967 52.0609 90.4467 50.0229 88.8997V91.6097C52.3549 93.5197 54.4709 95.2947 56.5389 97.0807C56.6119 97.1467 56.6529 97.2307 56.6529 97.3227C56.6529 97.3447 56.6529 97.3627 56.6489 97.3847C56.6229 97.5057 56.5319 97.6087 56.4109 97.6487C56.2939 97.6927 56.1649 97.6667 56.0699 97.5827C54.0899 95.8707 52.0589 94.1617 50.0239 92.4937V95.4127L56.0959 101.005C56.1689 101.071 56.2019 101.159 56.2019 101.247C56.2019 101.328 56.1729 101.408 56.1099 101.474C55.9779 101.621 55.7619 101.632 55.6189 101.5L50.0239 96.3477V99.1927C50.0239 99.3867 49.8739 99.5297 49.6789 99.5297C49.4849 99.5297 49.3339 99.3867 49.3339 99.1927V96.2227L43.599 101.499C43.46 101.631 43.2429 101.62 43.1079 101.473C42.9799 101.334 42.9869 101.128 43.1259 101.004L49.3039 95.3127C49.3149 95.3057 49.3219 95.2977 49.3329 95.2907V92.3827C47.2539 94.0837 45.1749 95.8327 43.1469 97.5817C42.9819 97.7247 42.7659 97.6737 42.6479 97.5417C42.5269 97.3987 42.5419 97.2007 42.6809 97.0797C44.8369 95.2167 47.0409 93.3687 49.2369 91.5757C49.2549 91.5207 49.2879 91.4727 49.3319 91.4397V88.7957C47.2419 90.3727 45.1919 92.0557 43.2269 93.8007C43.0799 93.9287 42.8639 93.9147 42.7319 93.7677C42.6069 93.6247 42.6179 93.4267 42.7579 93.3017C44.8589 91.4357 47.0699 89.6317 49.3319 87.9337V84.4797C49.3319 84.2857 49.4819 84.1387 49.6769 84.1387C49.8709 84.1397 50.0219 84.2867 50.0219 84.4807Z" fill="#352D2A"/>
<path d="M91.0699 48.7592L90.7029 49.4922C90.839 49.2612 90.9779 49.0371 91.1249 48.8171C91.2309 48.6561 91.448 48.6121 91.613 48.7221C91.62 48.7261 91.624 48.7292 91.628 48.7332C91.679 48.6852 91.7449 48.6522 91.8149 48.6382C91.9979 48.6092 92.16 48.7222 92.1889 48.9022C92.361 49.9292 92.5959 50.9521 92.8859 51.9561C92.8899 51.9741 92.8929 51.9892 92.8969 52.0042L97.319 48.3922C97.491 48.2492 97.708 48.3081 97.821 48.4471C97.872 48.5091 97.8979 48.5832 97.8979 48.6522C97.8979 48.7472 97.8579 48.8352 97.7769 48.9012L52.061 86.2311C51.962 86.3121 51.8339 86.3342 51.7159 86.2862C51.5949 86.2422 51.5069 86.1361 51.4849 86.0151C51.4699 85.9051 51.511 85.7951 51.602 85.7221L92.449 52.3702C92.343 52.3412 92.258 52.2602 92.225 52.1392C91.965 51.2372 91.7449 50.3091 91.5799 49.3821C90.9709 50.3571 90.5499 51.1682 90.1899 52.0002C90.146 52.1062 90.054 52.1722 89.948 52.1912C89.845 52.2242 89.732 52.2092 89.644 52.1512C89.468 52.0342 89.4529 51.7511 89.6109 51.6191C89.7099 51.3951 89.809 51.1722 89.919 50.9482L89.2919 52.0262C89.1889 52.1912 88.9879 52.2391 88.8189 52.1361C88.6539 52.0371 88.603 51.8352 88.702 51.6742C89.3359 50.6252 89.93 49.5362 90.466 48.4362C90.5169 48.3262 90.616 48.2601 90.7299 48.2531C90.8509 48.2421 90.9759 48.3082 91.049 48.4112C91.089 48.4702 91.1079 48.5362 91.1079 48.6052C91.1069 48.6572 91.0959 48.7082 91.0699 48.7592Z" fill="#352D2A"/>
<path d="M89.9659 48.2541C90.0909 48.2501 90.2119 48.3161 90.2779 48.4261C90.3109 48.4771 90.3289 48.5401 90.3289 48.5981C90.3289 48.6531 90.3139 48.7121 90.2849 48.7631C89.7279 49.7931 89.1149 50.8051 88.4699 51.7771C88.3999 51.8831 88.2869 51.9381 88.1619 51.9311C88.0369 51.9241 87.9159 51.8471 87.8649 51.7371C87.8099 51.6341 87.8209 51.5171 87.8869 51.4141C88.5289 50.4501 89.1339 49.4451 89.6869 48.4261C89.7459 48.3201 89.8449 48.2581 89.9659 48.2541Z" fill="#352D2A"/>
<path d="M9.56395 48.2965C9.64095 48.2565 9.72494 48.2415 9.80194 48.2595C9.89394 48.2775 9.97395 48.3365 10.0219 48.4285C10.5719 49.4445 11.1769 50.4485 11.8189 51.4135C11.8589 51.4685 11.8779 51.5345 11.8779 51.5965C11.8779 51.6445 11.8669 51.6915 11.8449 51.7355C11.7899 51.8455 11.6729 51.9225 11.5439 51.9295C11.4229 51.9365 11.3059 51.8815 11.2359 51.7755C10.5909 50.8035 9.98194 49.7915 9.42094 48.7615C9.39194 48.7065 9.38095 48.6515 9.38095 48.5965C9.37995 48.4765 9.44595 48.3625 9.56395 48.2965Z" fill="#352D2A"/>
<path d="M47.9939 86.2891C47.8729 86.3371 47.7449 86.3151 47.6459 86.2341L1.93395 48.9041C1.79095 48.7871 1.76895 48.5921 1.88595 48.4491C1.99995 48.3101 2.21995 48.2511 2.39195 48.3941L6.80995 52.0021C6.81395 51.9871 6.81695 51.9731 6.82095 51.9581C7.11095 50.9531 7.34495 49.9301 7.51795 48.9041C7.55095 48.7241 7.70895 48.6111 7.89195 48.6401C7.96195 48.6551 8.02795 48.6881 8.08295 48.7351C8.08695 48.7311 8.09395 48.7281 8.09795 48.7241C8.26295 48.6141 8.47595 48.6581 8.58195 48.8191C8.72895 49.0391 8.86795 49.2631 9.00395 49.4941C8.87895 49.2521 8.75795 49.0061 8.63695 48.7611C8.58195 48.6471 8.58895 48.5191 8.65895 48.4131C8.73195 48.3101 8.85695 48.2441 8.97795 48.2551C9.09495 48.2621 9.19095 48.3281 9.24195 48.4381C9.77695 49.5381 10.3709 50.6271 11.0089 51.6761C11.0419 51.7311 11.0569 51.7931 11.0569 51.8521C11.0569 51.9661 10.9979 52.0721 10.8919 52.1381C10.7229 52.2411 10.5179 52.1931 10.4189 52.0281C10.2099 51.6831 10.0049 51.3351 9.80695 50.9831C9.90995 51.1961 10.0089 51.4081 10.0999 51.6211C10.1729 51.6831 10.2139 51.7711 10.2139 51.8741C10.2139 51.9881 10.1589 52.0901 10.0669 52.1531C9.97894 52.2121 9.86195 52.2261 9.75895 52.1931C9.65295 52.1751 9.56495 52.1091 9.52095 52.0021C9.13195 51.0961 8.66295 50.2161 8.12795 49.3841C7.96295 50.3121 7.74695 51.2391 7.48595 52.1451C7.45295 52.2591 7.36495 52.3431 7.26195 52.3721L48.1049 85.7241C48.1859 85.7861 48.2259 85.8741 48.2259 85.9701C48.2259 85.9851 48.2259 86.0031 48.2219 86.0181C48.2029 86.1381 48.1109 86.2451 47.9939 86.2891Z" fill="#352D2A"/>
<path d="M49.8879 0L51.8389 9.51599L57.0979 7.01599L54.5979 12.275L64.1139 14.226L54.5979 16.177L57.0979 21.436L51.8389 18.936L49.8879 28.452L47.9369 18.936L42.6779 21.436L45.1779 16.177L35.6619 14.226L45.1779 12.275L42.6779 7.01599L47.9369 9.51599L49.8879 0Z" fill="#352D2A"/>
<path d="M21.2089 54.5913L19.5699 51.6323L21.2089 48.5273L22.7849 51.6543L21.2089 54.5913Z" fill="#352D2A"/>
<path d="M27.182 54.1572C28.308 54.1572 28.31 52.4062 27.182 52.4062C26.056 52.4062 26.054 54.1572 27.182 54.1572Z" fill="#352D2A"/>
<path d="M20.6939 58.0381C21.8199 58.0381 21.8219 56.2871 20.6939 56.2871C19.5669 56.2871 19.5649 58.0381 20.6939 58.0381Z" fill="#352D2A"/>
<path d="M25.4909 58.9131C26.6169 58.9131 26.6189 57.1621 25.4909 57.1621C24.3649 57.1621 24.3629 58.9131 25.4909 58.9131Z" fill="#352D2A"/>
<path d="M61.3759 27.4624L59.7379 24.5044L61.3759 21.3984L62.9529 24.5254L61.3759 27.4624Z" fill="#352D2A"/>
<path d="M64.7839 22.9859C64.7839 24.1119 66.5349 24.1139 66.5349 22.9859C66.5339 21.8599 64.7839 21.8579 64.7839 22.9859Z" fill="#352D2A"/>
<path d="M60.8609 30.9092C61.9869 30.9092 61.9889 29.1582 60.8609 29.1582C59.7349 29.1582 59.7329 30.9092 60.8609 30.9092Z" fill="#352D2A"/>
<path d="M65.6589 31.7842C66.7849 31.7842 66.7869 30.0332 65.6589 30.0332C64.5329 30.0342 64.5309 31.7842 65.6589 31.7842Z" fill="#352D2A"/>
</svg>
