<svg width="72" height="98" viewBox="0 0 72 98" fill="none" xmlns="http://www.w3.org/2000/svg">
<path d="M70.5733 55.7251C70.9253 56.8121 70.9663 57.9461 70.6073 59.0391C69.8893 61.2391 67.8283 62.9961 65.4993 63.1281C66.1393 63.8661 65.8313 65.1151 65.2653 65.8461C64.7713 66.4861 64.1073 66.9801 63.6573 67.6541C63.2033 68.3381 63.0683 69.1401 63.0683 69.9461C63.0653 71.5031 63.5053 73.1041 63.0543 74.6351C62.6553 75.9921 61.5373 76.9911 60.2683 77.5401C58.5013 78.3021 56.5373 78.1661 54.6653 77.9701C55.7043 80.1431 55.4173 82.8181 53.8153 84.6521C53.0433 85.5361 52.0113 86.1921 50.8873 86.5241C49.7163 86.8731 48.5003 86.7781 47.3023 86.6561C46.1373 86.5411 44.8923 86.3551 43.7443 86.6931C43.3553 86.8081 43.0263 86.9941 42.7423 87.2241C42.6673 87.3121 42.5963 87.3971 42.5323 87.4911C41.8893 88.4321 41.8213 89.6171 41.5773 90.6971C41.3403 91.7431 40.8803 92.6911 40.0473 93.3881C39.6583 93.7161 39.2183 93.9741 38.7403 94.1501C38.1513 94.3701 37.5083 94.4551 36.9493 94.7491C36.5193 94.9761 36.0593 95.3751 36.0353 95.9001C36.0183 96.3541 36.3743 96.8381 36.8583 96.7771C37.0543 96.7531 37.0783 97.0581 36.9023 97.1091C35.6973 97.4711 34.3973 97.3091 33.2663 96.7741C31.2013 95.8021 30.0063 93.6871 29.5223 91.5341C29.2583 90.3531 29.1363 89.0831 28.5233 88.0171C28.1783 87.4081 27.6563 86.8561 27.0173 86.5681C26.0423 86.4191 25.0133 86.5611 24.0413 86.6561C22.8433 86.7781 21.6313 86.8731 20.4593 86.5241C19.3323 86.1921 18.2993 85.5361 17.5273 84.6521C15.9263 82.8171 15.6383 80.1431 16.6773 77.9701C14.8083 78.1661 12.8413 78.3021 11.0783 77.5401C9.80531 76.9921 8.68831 75.9931 8.28931 74.6351C7.83931 73.1051 8.28231 71.5041 8.27931 69.9461C8.27631 69.1401 8.14031 68.3381 7.68731 67.6541C7.24031 66.9801 6.57331 66.4861 6.07931 65.8461C5.51431 65.1151 5.20631 63.8661 5.84531 63.1281C3.51631 62.9961 1.45431 61.2391 0.73731 59.0391C0.38231 57.9461 0.42231 56.8111 0.77131 55.7251C1.16431 54.5001 1.84131 53.3931 2.31531 52.2011C2.83031 50.9151 2.94831 49.6321 2.43031 48.3211C1.93931 47.0791 1.11031 46.0051 0.592309 44.7771C-0.396691 42.4241 -0.135692 39.5841 1.28931 37.4651C2.61631 35.4951 4.84031 34.2351 7.20031 34.0491C6.28631 31.2701 7.00731 28.0501 9.02131 25.9241C9.99331 24.9021 11.2553 24.2451 12.4033 23.4531C13.0393 23.0161 13.6423 22.5251 14.1163 21.9131C14.5193 21.3921 14.8343 20.8091 15.1653 20.2411C15.7373 19.2661 16.4113 18.2541 17.5453 17.8951C18.7603 17.5091 19.9933 18.0471 21.0833 18.5551C22.3493 19.1411 23.6663 19.7971 25.0953 19.4391C26.5413 19.0771 27.6713 17.9561 28.6873 16.9311C30.3663 15.2351 33.0643 12.7231 35.6033 14.3211C35.6403 14.3451 35.6613 14.3721 35.6743 14.4061C35.6843 14.3761 35.7053 14.3451 35.7423 14.3211C38.2813 12.7231 40.9793 15.2351 42.6583 16.9311C43.6743 17.9571 44.8043 19.0771 46.2503 19.4391C47.6793 19.7981 48.9953 19.1411 50.2623 18.5551C51.3553 18.0471 52.5843 17.5091 53.8033 17.8951C54.9343 18.2541 55.6113 19.2661 56.1833 20.2411C56.5153 20.8101 56.8263 21.3921 57.2293 21.9131C57.7033 22.5261 58.3093 23.0171 58.9423 23.4531C60.0933 24.2451 61.3523 24.9021 62.3243 25.9241C64.3423 28.0501 65.0593 31.2691 64.1493 34.0491C66.5053 34.2351 68.7333 35.4941 70.0563 37.4651C71.4853 39.5841 71.7423 42.4241 70.7573 44.7771C70.2393 46.0061 69.4063 47.0791 68.9153 48.3211C68.3973 49.6311 68.5193 50.9141 69.0303 52.2011C69.5033 53.3931 70.1803 54.5001 70.5733 55.7251Z" fill="#352D2A"/>
<path d="M13.8703 41.7421C13.6603 41.8371 13.3963 41.8601 13.1733 41.8841C12.1643 41.9791 11.1553 41.5861 10.3673 40.9771C8.7223 39.7111 8.2213 37.5921 8.1843 35.6081C8.1503 33.6111 8.3403 31.2411 9.7753 29.7081C10.4113 29.0311 11.2783 28.5371 12.2123 28.4591C13.1633 28.3781 14.0163 28.8041 14.7413 29.3831C15.5093 29.9921 16.1393 30.7781 16.9723 31.3091C17.7813 31.8271 18.8543 32.1961 19.7383 31.6341C19.9113 31.5221 20.0533 31.7631 19.9413 31.9011C18.7393 33.3871 17.5373 34.8771 16.3363 36.3661C16.3163 36.3901 16.2923 36.4071 16.2653 36.4131C16.2653 36.4201 16.2623 36.4271 16.2583 36.4371C16.2143 36.5961 15.9773 36.5991 15.9333 36.4371C15.7103 35.5871 15.0193 34.9071 14.1863 34.6461C13.4413 34.4161 12.6463 34.5611 12.0603 35.0791C11.5123 35.5631 11.1703 36.2941 11.2143 37.0321C11.3053 38.5111 13.1503 39.4291 14.4063 38.6841C14.5353 38.6061 14.6873 38.7351 14.6533 38.8771C14.4913 39.5471 14.3283 40.2211 14.1663 40.8951C14.1193 41.0851 14.0753 41.2711 14.0273 41.4601C13.9953 41.5821 13.9923 41.6841 13.8703 41.7421Z" fill="#82C4C4"/>
<path d="M63.1623 35.6071C63.1283 37.5911 62.6243 39.7101 60.9823 40.9761C60.1903 41.5851 59.1843 41.9781 58.1763 41.8831C57.9533 41.8591 57.6853 41.8361 57.4793 41.7411C57.3573 41.6831 57.3503 41.5821 57.3203 41.4601C57.2763 41.2701 57.2293 41.0841 57.1853 40.8951C57.0233 40.2211 56.8573 39.5481 56.6943 38.8771C56.6603 38.7351 56.8123 38.6061 56.9453 38.6841C58.2013 39.4291 60.0423 38.5111 60.1343 37.0321C60.1813 36.2941 59.8403 35.5631 59.2913 35.0791C58.7023 34.5611 57.9063 34.4151 57.1653 34.6461C56.3293 34.9071 55.6423 35.5871 55.4153 36.4371C55.3743 36.5991 55.1343 36.5961 55.0903 36.4371C55.0873 36.4271 55.0873 36.4201 55.0833 36.4131C55.0593 36.4061 55.0363 36.3891 55.0153 36.3661C53.8103 34.8761 52.6083 33.3871 51.4063 31.9011C51.2943 31.7621 51.4363 31.5221 51.6133 31.6341C52.4973 32.1961 53.5663 31.8271 54.3793 31.3091C55.2083 30.7781 55.8383 29.9921 56.6073 29.3831C57.3313 28.8041 58.1843 28.3781 59.1363 28.4591C60.0703 28.5371 60.9373 29.0311 61.5733 29.7081C63.0103 31.2411 63.2003 33.6101 63.1623 35.6071Z" fill="#82C4C4"/>
<path d="M56.3623 52.9322C57.2563 54.5332 57.6793 56.3002 57.5713 58.1352C57.4633 59.9702 56.8873 61.7612 56.0213 63.3752C54.1863 66.7842 51.0653 69.2592 47.9983 71.5032C47.7103 71.7132 47.4233 71.9232 47.1353 72.1292C47.1863 73.6662 47.1493 75.2102 46.7123 76.6922C46.2313 78.3342 45.2433 79.8672 43.6823 80.6562C43.3063 80.8462 42.9103 80.9842 42.5073 81.0662C42.0703 82.2472 41.7933 83.4972 41.2613 84.6442C40.9063 85.4062 40.4323 86.1342 39.7753 86.6652C39.1153 87.2002 38.3163 87.5052 37.4833 87.6402C36.8843 87.7382 36.2813 87.7622 35.6753 87.7522C35.0693 87.7622 34.4663 87.7382 33.8673 87.6402C33.0343 87.5052 32.2353 87.2002 31.5753 86.6652C30.9153 86.1342 30.4413 85.4062 30.0893 84.6442C29.5543 83.4962 29.2803 82.2472 28.8433 81.0662C28.4373 80.9852 28.0443 80.8462 27.6683 80.6562C26.1043 79.8672 25.1163 78.3342 24.6353 76.6922C24.1983 75.2092 24.1643 73.6662 24.2153 72.1292C23.9273 71.9222 23.6363 71.7132 23.3523 71.5032C20.2823 69.2592 17.1603 66.7842 15.3293 63.3752C14.4623 61.7602 13.8843 59.9692 13.7753 58.1352C13.6703 56.3002 14.0903 54.5332 14.9843 52.9322C15.9083 51.2772 17.1743 49.8212 17.9293 48.0712C18.7043 46.2802 18.8093 44.2962 19.3243 42.4282C19.5683 41.5312 19.9203 40.6612 20.4383 39.8862C20.9363 39.1382 21.5593 38.4782 22.2533 37.9092C23.7123 36.7112 25.4863 35.7932 27.3173 35.3262C29.1013 34.8762 31.0203 34.9032 32.6833 35.7532C34.1183 36.4842 35.3003 37.7912 35.6183 39.3992C35.6213 39.4132 35.6213 39.4232 35.6213 39.4362H35.7263C35.7263 39.4222 35.7263 39.4122 35.7293 39.3992C36.0473 37.7912 37.2293 36.4842 38.6643 35.7532C40.3263 34.9032 42.2493 34.8762 44.0303 35.3262C45.8613 35.7932 47.6393 36.7112 49.0983 37.9092C49.7893 38.4782 50.4153 39.1382 50.9123 39.8862C51.4303 40.6612 51.7793 41.5312 52.0263 42.4282C52.5373 44.2972 52.6463 46.2802 53.4173 48.0712C54.1713 49.8212 55.4413 51.2772 56.3623 52.9322Z" fill="#82C4C4"/>
<path d="M20.4653 41.1768C20.4403 41.1528 20.4053 41.1398 20.3673 41.1338C20.4563 41.0268 20.5493 40.9228 20.6353 40.8138C20.7683 40.6438 20.5303 40.4028 20.3963 40.5748C17.9113 43.7438 14.0653 45.7528 10.0603 46.0818C8.93229 46.1748 7.79329 46.1358 6.67629 45.9538C6.46329 45.9188 6.37129 46.2458 6.58629 46.2798C10.6483 46.9398 14.9103 45.7898 18.1553 43.2748C18.8363 42.7468 19.4673 42.1598 20.0413 41.5198C18.3553 45.3598 14.9503 48.2878 10.8893 49.3608C9.66829 49.6838 8.41029 49.8378 7.14729 49.8228C6.92929 49.8198 6.92929 50.1588 7.14729 50.1618C11.6853 50.2168 16.0393 48.0608 18.7473 44.4228C19.2083 43.8038 19.6083 43.1458 19.9613 42.4628C19.1643 44.8858 17.9133 47.1568 16.2793 49.1178C14.3703 51.4088 11.9563 53.2478 9.25129 54.5008C7.71329 55.2128 6.08629 55.7268 4.41929 56.0358C4.20529 56.0758 4.29629 56.4018 4.50929 56.3618C7.51429 55.8058 10.3893 54.5698 12.8623 52.7728C15.2983 51.0028 17.3213 48.6958 18.7713 46.0568C19.5803 44.5828 20.2083 43.0108 20.6363 41.3848C20.6693 41.2588 20.5663 41.1778 20.4653 41.1768Z" fill="#82C4C4"/>
<path d="M17.4033 74.0408C15.6933 72.4288 14.4653 70.3378 13.8793 68.0628C13.2773 65.7228 13.4043 63.2408 14.1963 60.9608C14.6463 59.6678 15.3103 58.4468 16.1583 57.3718C16.2923 57.2028 16.0543 56.9618 15.9193 57.1328C14.3723 59.0938 13.4243 61.4888 13.2063 63.9768C12.9933 66.4098 13.5243 68.8738 14.6743 71.0248C15.3213 72.2348 16.1643 73.3388 17.1633 74.2808C17.3223 74.4298 17.5623 74.1908 17.4033 74.0408Z" fill="#82C4C4"/>
<path d="M21.0003 73.7341C17.6123 71.8091 15.3293 68.2791 15.0003 64.3911C14.9003 63.2061 14.9743 62.0111 15.2253 60.8481C15.2713 60.6361 14.9443 60.5451 14.8993 60.7581C14.0233 64.8291 15.2913 69.1431 18.2513 72.0731C19.0203 72.8341 19.8893 73.4921 20.8303 74.0261C21.0193 74.1341 21.1903 73.8411 21.0003 73.7341Z" fill="#82C4C4"/>
<path d="M22.3833 72.1092C20.0613 71.0222 18.2433 68.9652 17.4083 66.5452C17.1693 65.8522 17.0103 65.1322 16.9413 64.4022C16.9213 64.1872 16.5823 64.1852 16.6023 64.4022C16.8503 67.0522 18.2233 69.5512 20.3023 71.2112C20.8913 71.6812 21.5293 72.0822 22.2123 72.4022C22.4093 72.4932 22.5813 72.2022 22.3833 72.1092Z" fill="#82C4C4"/>
<path d="M33.5173 32.2567C32.5743 29.8537 31.1883 27.6287 29.4293 25.7377C28.4363 24.6697 27.3253 23.7157 26.1193 22.8967C25.9383 22.7737 25.7693 23.0667 25.9483 23.1887C28.0533 24.6197 29.8523 26.4787 31.2493 28.6047C32.6423 30.7257 33.6393 33.1027 34.1593 35.5867C34.4543 36.9957 34.5893 38.4347 34.5603 39.8737C34.5563 40.0917 34.8943 40.0917 34.8993 39.8737C34.9513 37.2747 34.4663 34.6747 33.5173 32.2567Z" fill="#82C4C4"/>
<path d="M31.7893 32.838C30.3893 30.877 28.5063 29.282 26.3463 28.215C25.1373 27.618 23.8513 27.185 22.5263 26.935C22.3133 26.895 22.2223 27.221 22.4363 27.261C24.7343 27.693 26.9223 28.683 28.7563 30.135C30.6073 31.601 32.0683 33.518 33.0103 35.682C33.5473 36.915 33.9103 38.228 34.0833 39.562C34.1113 39.775 34.4493 39.778 34.4223 39.562C34.1093 37.148 33.2053 34.822 31.7893 32.838Z" fill="#82C4C4"/>
<path d="M33.5023 39.0761C32.8323 37.0331 31.6263 35.1771 30.0303 33.7351C28.3333 32.2021 26.2143 31.1741 23.9633 30.7751C22.6693 30.5461 21.3523 30.5231 20.0523 30.7051C19.8373 30.7351 19.9293 31.0611 20.1423 31.0311C22.3923 30.7171 24.7333 31.0621 26.7993 32.0071C28.7233 32.8871 30.3893 34.2871 31.6013 36.0211C32.2763 36.9871 32.8093 38.0461 33.1773 39.1661C33.2433 39.3721 33.5703 39.2841 33.5023 39.0761Z" fill="#82C4C4"/>
<path d="M27.9583 34.2224C25.7883 33.0314 23.2453 32.6234 20.8113 33.0674C20.5973 33.1064 20.6883 33.4324 20.9013 33.3934C23.2423 32.9654 25.7023 33.3683 27.7873 34.5143C27.9783 34.6193 28.1493 34.3274 27.9583 34.2224Z" fill="#82C4C4"/>
<path d="M24.8563 34.414C23.3733 34.157 21.8473 34.296 20.4403 34.835C20.2393 34.912 20.3263 35.239 20.5303 35.161C21.8783 34.645 23.3433 34.494 24.7663 34.74C24.9793 34.777 25.0713 34.451 24.8563 34.414Z" fill="#82C4C4"/>
<path d="M12.2643 43.7636C10.7243 44.4106 9.01532 44.5817 7.38032 44.2347C7.16732 44.1897 7.07732 44.5157 7.29032 44.5607C8.98232 44.9197 10.7583 44.7606 12.3543 44.0896C12.5523 44.0076 12.4653 43.6796 12.2643 43.7636Z" fill="#82C4C4"/>
<path d="M11.3013 42.8939C10.4123 43.2199 9.46829 43.3349 8.52729 43.2349C8.31129 43.2119 8.31229 43.5509 8.52729 43.5739C9.49429 43.6769 10.4783 43.5559 11.3913 43.2209C11.5943 43.1469 11.5063 42.8189 11.3013 42.8939Z" fill="#82C4C4"/>
<path d="M12.4053 54.5403C10.6213 56.2613 8.38128 57.4813 5.97128 58.0593C5.28728 58.2233 4.59128 58.3343 3.89028 58.3913C3.67428 58.4093 3.67328 58.7473 3.89028 58.7303C6.42928 58.5233 8.89928 57.6303 10.9793 56.1583C11.5683 55.7413 12.1243 55.2803 12.6443 54.7803C12.8013 54.6283 12.5623 54.3893 12.4053 54.5403Z" fill="#82C4C4"/>
<path d="M11.9143 57.9949C10.5033 59.9259 8.63932 61.5 6.50732 62.581C6.31332 62.679 6.48431 62.9719 6.67831 62.8729C8.86431 61.7649 10.7613 60.1429 12.2063 58.1659C12.3353 57.9899 12.0413 57.8209 11.9143 57.9949Z" fill="#82C4C4"/>
<path d="M35.6033 68.1183H35.6003C35.5973 68.1183 35.5973 68.1183 35.5933 68.1183C35.4243 68.1153 35.2543 68.1153 35.0853 68.1113C34.9433 68.0473 34.9673 67.7863 35.1563 67.7863C35.3023 67.7833 35.4513 67.7833 35.5963 67.7793H35.6103C35.8163 67.7943 35.8133 68.1183 35.6033 68.1183Z" fill="#352D2A"/>
<path d="M35.6133 50.6819C35.5763 50.7259 35.5183 50.753 35.4473 50.733C35.4303 50.73 35.4103 50.7229 35.3933 50.7189C35.3053 50.6989 35.2203 50.682 35.1363 50.675C35.0753 50.59 35.0893 50.448 35.2213 50.414C35.2793 50.4 35.3333 50.387 35.3903 50.377C35.3903 50.377 35.3903 50.377 35.3933 50.377C35.4403 50.384 35.4883 50.394 35.5353 50.407C35.6783 50.445 35.6843 50.5969 35.6133 50.6819Z" fill="#352D2A"/>
<path d="M28.6673 56.9475C28.6303 56.8765 28.5823 56.8055 28.5423 56.7345C28.4953 56.7105 28.4573 56.6635 28.4543 56.5955C28.4543 56.5925 28.4543 56.5925 28.4543 56.5885C28.0553 55.9255 27.5603 55.3255 26.9813 54.8075C26.1553 55.5825 24.9533 55.9285 23.8733 55.4815C22.8613 55.0585 22.2313 53.9685 22.4783 52.8955C21.5743 52.6585 20.6333 52.6755 19.7363 52.9425C19.5803 52.9935 19.4453 52.7735 19.5743 52.6615C20.2753 52.0355 21.1283 51.6015 22.0453 51.3955C23.6603 51.0295 25.3633 51.3755 26.6663 52.4075C27.8003 53.3115 28.5583 54.6555 28.7483 56.0905C28.8333 56.3305 28.9143 56.5715 28.9783 56.8185C29.0263 57.0015 28.7583 57.1205 28.6673 56.9475Z" fill="#352D2A"/>
<path d="M50.2913 41.1826C50.3163 41.1586 50.3513 41.1456 50.3893 41.1396C50.3003 41.0326 50.2073 40.9287 50.1213 40.8197C49.9883 40.6497 50.2263 40.4087 50.3603 40.5807C52.8453 43.7497 56.6913 45.7587 60.6963 46.0877C61.8243 46.1807 62.9633 46.1417 64.0803 45.9597C64.2933 45.9247 64.3853 46.2517 64.1703 46.2857C60.1083 46.9457 55.8463 45.7957 52.6013 43.2807C51.9203 42.7527 51.2893 42.1656 50.7153 41.5256C52.4013 45.3656 55.8063 48.2937 59.8673 49.3667C61.0883 49.6897 62.3463 49.8437 63.6093 49.8287C63.8273 49.8257 63.8273 50.1646 63.6093 50.1676C59.0713 50.2226 54.7173 48.0666 52.0093 44.4286C51.5483 43.8096 51.1483 43.1517 50.7953 42.4687C51.5923 44.8917 52.8433 47.1627 54.4773 49.1237C56.3863 51.4147 58.8003 53.2537 61.5053 54.5067C63.0433 55.2187 64.6703 55.7327 66.3373 56.0417C66.5513 56.0817 66.4603 56.4077 66.2473 56.3677C63.2423 55.8117 60.3673 54.5757 57.8943 52.7787C55.4583 51.0087 53.4353 48.7017 51.9853 46.0627C51.1763 44.5887 50.5483 43.0167 50.1203 41.3907C50.0873 41.2647 50.1913 41.1836 50.2913 41.1826Z" fill="#82C4C4"/>
<path d="M53.3533 74.0467C55.0633 72.4347 56.2913 70.3437 56.8773 68.0687C57.4793 65.7287 57.3523 63.2467 56.5603 60.9667C56.1103 59.6737 55.4463 58.4527 54.5983 57.3777C54.4643 57.2087 54.7023 56.9677 54.8373 57.1387C56.3843 59.0997 57.3323 61.4947 57.5503 63.9827C57.7633 66.4157 57.2323 68.8797 56.0823 71.0307C55.4353 72.2407 54.5923 73.3447 53.5933 74.2867C53.4343 74.4357 53.1943 74.1967 53.3533 74.0467Z" fill="#82C4C4"/>
<path d="M49.7563 73.738C53.1443 71.813 55.4273 68.283 55.7563 64.395C55.8563 63.21 55.7823 62.015 55.5313 60.852C55.4853 60.64 55.8123 60.549 55.8573 60.762C56.7333 64.833 55.4653 69.147 52.5053 72.077C51.7363 72.838 50.8673 73.496 49.9263 74.03C49.7383 74.139 49.5673 73.846 49.7563 73.738Z" fill="#82C4C4"/>
<path d="M48.3733 72.1151C50.6953 71.0281 52.5123 68.9711 53.3483 66.5511C53.5873 65.8581 53.7463 65.1381 53.8143 64.4081C53.8343 64.1931 54.1733 64.1911 54.1533 64.4081C53.9053 67.0581 52.5323 69.5571 50.4533 71.2171C49.8643 71.6871 49.2263 72.0881 48.5433 72.4081C48.3483 72.4991 48.1763 72.2081 48.3733 72.1151Z" fill="#82C4C4"/>
<path d="M37.6063 32.2626C38.5493 29.8596 39.9353 27.6346 41.6943 25.7436C42.6873 24.6756 43.7983 23.7216 45.0043 22.9026C45.1853 22.7796 45.3543 23.0726 45.1753 23.1946C43.0703 24.6256 41.2713 26.4846 39.8743 28.6106C38.4813 30.7316 37.4843 33.1086 36.9643 35.5926C36.6693 37.0016 36.5343 38.4406 36.5633 39.8796C36.5673 40.0976 36.2293 40.0976 36.2243 39.8796C36.1723 37.2806 36.6573 34.6806 37.6063 32.2626Z" fill="#82C4C4"/>
<path d="M39.3353 32.8439C40.7353 30.8829 42.6183 29.2879 44.7783 28.2209C45.9873 27.6239 47.2733 27.1909 48.5983 26.9409C48.8113 26.9009 48.9023 27.2269 48.6883 27.2669C46.3903 27.6989 44.2023 28.6889 42.3683 30.1409C40.5173 31.6069 39.0563 33.5239 38.1143 35.6879C37.5773 36.9209 37.2143 38.2339 37.0413 39.5679C37.0133 39.7809 36.6753 39.7839 36.7023 39.5679C37.0143 37.1539 37.9183 34.8279 39.3353 32.8439Z" fill="#82C4C4"/>
<path d="M37.6213 39.0819C38.2913 37.0389 39.4973 35.1829 41.0933 33.7409C42.7903 32.2079 44.9093 31.1799 47.1603 30.7809C48.4543 30.5519 49.7713 30.5289 51.0713 30.7109C51.2863 30.7409 51.1943 31.0669 50.9813 31.0369C48.7313 30.7229 46.3903 31.0679 44.3243 32.0129C42.4003 32.8929 40.7343 34.2929 39.5223 36.0269C38.8473 36.9929 38.3143 38.0519 37.9463 39.1719C37.8803 39.3779 37.5533 39.2899 37.6213 39.0819Z" fill="#82C4C4"/>
<path d="M43.1653 34.2282C45.3353 33.0372 47.8783 32.6292 50.3123 33.0732C50.5263 33.1122 50.4353 33.4382 50.2223 33.3992C47.8813 32.9712 45.4213 33.3742 43.3363 34.5202C43.1453 34.6252 42.9743 34.3332 43.1653 34.2282Z" fill="#82C4C4"/>
<path d="M46.2673 34.4218C47.7503 34.1648 49.2763 34.3038 50.6833 34.8428C50.8843 34.9198 50.7973 35.2468 50.5933 35.1688C49.2453 34.6528 47.7803 34.5018 46.3573 34.7478C46.1443 34.7848 46.0523 34.4588 46.2673 34.4218Z" fill="#82C4C4"/>
<path d="M58.4923 43.7695C60.0323 44.4165 61.7413 44.5875 63.3763 44.2405C63.5893 44.1955 63.6793 44.5215 63.4663 44.5665C61.7743 44.9255 59.9983 44.7665 58.4023 44.0955C58.2043 44.0125 58.2913 43.6855 58.4923 43.7695Z" fill="#82C4C4"/>
<path d="M59.4553 42.8998C60.3443 43.2258 61.2883 43.3408 62.2293 43.2408C62.4453 43.2178 62.4443 43.5568 62.2293 43.5798C61.2623 43.6828 60.2783 43.5618 59.3653 43.2268C59.1623 43.1518 59.2503 42.8248 59.4553 42.8998Z" fill="#82C4C4"/>
<path d="M58.3513 54.5462C60.1353 56.2672 62.3753 57.4872 64.7853 58.0652C65.4693 58.2292 66.1653 58.3402 66.8663 58.3972C67.0823 58.4152 67.0833 58.7532 66.8663 58.7362C64.3273 58.5292 61.8573 57.6362 59.7773 56.1642C59.1883 55.7472 58.6323 55.2862 58.1123 54.7862C57.9553 54.6342 58.1953 54.3952 58.3513 54.5462Z" fill="#82C4C4"/>
<path d="M58.8433 58.0008C60.2543 59.9318 62.1183 61.5058 64.2503 62.5868C64.4443 62.6848 64.2733 62.9778 64.0793 62.8788C61.8933 61.7708 59.9963 60.1488 58.5513 58.1718C58.4223 57.9958 58.7153 57.8268 58.8433 58.0008Z" fill="#82C4C4"/>
<path d="M35.6033 68.1183H35.6003C35.5973 68.1183 35.5973 68.1183 35.5933 68.1183C35.4473 68.1213 35.3023 68.1213 35.1563 68.1253C35.1293 68.1253 35.1053 68.1183 35.0853 68.1113C34.9433 68.0473 34.9673 67.7863 35.1563 67.7863C35.3023 67.7833 35.4513 67.7833 35.5963 67.7793H35.6103C35.8163 67.7943 35.8133 68.1183 35.6033 68.1183Z" fill="#352D2A"/>
<path d="M25.6373 64.1712C25.9183 67.4682 24.5813 70.5862 24.1753 73.8122C24.1513 74.0252 23.8133 74.0292 23.8363 73.8122C23.8503 73.7272 23.8633 73.6432 23.8733 73.5582C23.6363 73.5382 23.4303 73.3482 23.3113 73.1282C23.1053 72.7522 23.0303 72.2882 23.0133 71.8652C22.9493 70.0982 24.0353 68.5812 24.5233 66.9462C25.0243 65.2672 25.0883 63.4692 24.7163 61.7602C24.6693 61.5402 24.9603 61.4722 25.0413 61.6692C25.3763 62.4652 25.5623 63.3112 25.6373 64.1712Z" fill="#352D2A"/>
<path d="M43.3793 81.5764C40.2953 81.7724 38.1933 78.9734 35.3663 78.2864C32.5493 78.9874 30.4513 81.7664 27.3773 81.5734C27.1913 81.5594 27.1433 81.2954 27.3333 81.2384C28.1423 81.0044 28.9173 80.6794 29.6493 80.2604C32.3033 78.7434 34.1683 76.1104 34.7473 73.1144C34.2633 72.1934 33.2913 71.6114 32.3473 71.2454C31.3043 70.8464 30.2013 70.6124 29.1993 70.1114C28.7563 69.8884 28.2513 69.6074 28.0213 69.1434C27.8453 68.7814 27.8653 68.3344 28.1333 68.0434C27.7913 67.7494 27.6023 67.2924 27.5743 66.8284C27.5503 66.4054 27.6453 65.9854 27.7533 65.5794C27.8653 65.1634 27.9833 64.7464 28.0983 64.3304C28.9513 61.2634 29.8013 58.1934 30.6573 55.1264C31.0093 53.8604 31.4053 52.5194 32.3193 51.5314C33.0913 50.6954 34.2523 50.1464 35.3893 50.3804C35.3313 50.3904 35.2773 50.4044 35.2203 50.4174C35.0883 50.4514 35.0743 50.5934 35.1353 50.6784C33.9203 50.5294 32.7723 51.3454 32.1263 52.3304C31.4223 53.4104 31.1273 54.6964 30.7853 55.9224C30.3923 57.3374 30.0003 58.7554 29.6073 60.1704C29.2143 61.5754 28.8253 62.9764 28.4363 64.3814C28.3343 64.7434 28.2333 65.1094 28.1353 65.4714C28.0373 65.8234 27.9353 66.1794 27.9123 66.5444C27.8853 67.0154 28.0243 67.5604 28.4163 67.8414C28.8093 67.6554 29.3063 67.7064 29.7233 67.7124C30.3663 67.7194 31.0093 67.7264 31.6533 67.7364C32.9703 67.7504 34.2803 67.7664 35.5973 67.7834C35.4513 67.7864 35.3023 67.7864 35.1573 67.7904C34.9673 67.7904 34.9443 68.0514 35.0863 68.1154C35.1063 68.1224 35.1303 68.1294 35.1573 68.1294C35.3033 68.1264 35.4483 68.1264 35.5943 68.1224C35.5973 68.1224 35.5973 68.1224 35.6013 68.1224H35.6043C35.8143 68.1224 35.8173 67.7974 35.6113 67.7834C36.7763 67.7694 37.9403 67.7534 39.1053 67.7394C39.7483 67.7324 40.3913 67.7254 41.0353 67.7154C41.4513 67.7124 41.9493 67.6614 42.3423 67.8444C42.7383 67.5664 42.8733 67.0214 42.8463 66.5514C42.8223 66.1854 42.7213 65.8304 42.6263 65.4784C42.5243 65.1124 42.4233 64.7504 42.3213 64.3854C41.9323 62.9844 41.5423 61.5794 41.1533 60.1774C40.7573 58.7594 40.3643 57.3444 39.9723 55.9294C39.6303 54.7044 39.3363 53.4174 38.6313 52.3374C37.9843 51.3454 36.8303 50.5294 35.6153 50.6854C35.6863 50.6004 35.6793 50.4484 35.5373 50.4114C35.4903 50.3974 35.4423 50.3874 35.3953 50.3814C36.5263 50.1614 37.6733 50.7094 38.4383 51.5394C39.3523 52.5284 39.7483 53.8654 40.1003 55.1344C40.9563 58.2014 41.8063 61.2684 42.6593 64.3394C42.7743 64.7554 42.8933 65.1684 43.0043 65.5884C43.1123 65.9914 43.2073 66.4144 43.1833 66.8374C43.1563 67.2974 42.9703 67.7544 42.6243 68.0524C42.8913 68.3434 42.9123 68.7904 42.7363 69.1524C42.5063 69.6164 42.0013 69.8974 41.5583 70.1204C40.5563 70.6214 39.4523 70.8514 38.4103 71.2544C37.4663 71.6204 36.4943 72.2024 36.0103 73.1194C36.5923 76.1154 38.4583 78.7524 41.1083 80.2694C41.8393 80.6894 42.6143 81.0144 43.4243 81.2474C43.6133 81.2984 43.5693 81.5664 43.3793 81.5764Z" fill="#352D2A"/>
<path d="M35.6133 50.6819C35.5393 50.6889 35.4673 50.7019 35.3933 50.7189C35.3663 50.7259 35.3353 50.733 35.3083 50.739C35.2303 50.759 35.1693 50.725 35.1353 50.675C35.0743 50.59 35.0883 50.448 35.2203 50.414C35.2783 50.4 35.3323 50.387 35.3893 50.377C35.3893 50.377 35.3893 50.377 35.3923 50.377C35.4393 50.384 35.4873 50.394 35.5343 50.407C35.6783 50.445 35.6843 50.5969 35.6133 50.6819Z" fill="#352D2A"/>
<path d="M47.7433 71.8738C47.7263 72.2968 47.6523 72.7578 47.4483 73.1328C47.3263 73.3558 47.1203 73.5458 46.8833 73.5628C46.8933 73.6508 46.9103 73.7318 46.9203 73.8198C46.9473 74.0328 46.6093 74.0328 46.5813 73.8198C46.1753 70.5938 44.8383 67.4758 45.1193 64.1788C45.1943 63.3188 45.3803 62.4728 45.7153 61.6768C45.7963 61.4808 46.0873 61.5478 46.0403 61.7648C45.6683 63.4778 45.7323 65.2748 46.2333 66.9548C46.7243 68.5898 47.8073 70.1068 47.7433 71.8738Z" fill="#352D2A"/>
<path d="M51.0203 52.9491C50.1233 52.6781 49.1823 52.6652 48.2813 52.8982C48.5283 53.9752 47.8953 55.0652 46.8833 55.4842C45.8033 55.9342 44.6013 55.5892 43.7753 54.8102C43.1963 55.3282 42.7023 55.9272 42.3023 56.5942C42.3023 56.5942 42.3023 56.5972 42.3023 56.6012C42.2993 56.6692 42.2613 56.7131 42.2143 56.7401C42.1733 56.8111 42.1263 56.8791 42.0893 56.9531C41.9983 57.1261 41.7303 57.0071 41.7783 56.8241C41.8423 56.5771 41.9243 56.3332 42.0083 56.0962C42.1983 54.6612 42.9563 53.3132 44.0903 52.4132C45.3933 51.3802 47.0993 51.0351 48.7113 51.3971C49.6283 51.6031 50.4813 52.0401 51.1863 52.6661C51.3113 52.7801 51.1793 52.9971 51.0203 52.9491Z" fill="#352D2A"/>
<path d="M70.2173 78.9993C67.8213 78.3003 65.1883 78.5373 62.9453 79.6323C62.7363 79.7323 62.5353 79.8443 62.3353 79.9603C62.5503 79.7203 62.7643 79.4813 62.9683 79.2333C63.0883 79.0973 63.2033 78.9573 63.3143 78.8153C63.3473 78.8063 63.3823 78.7903 63.4053 78.7653C64.5813 77.4963 66.3593 77.0433 67.6433 75.9023C68.3023 75.3123 68.8553 74.6093 69.2653 73.8233C69.6603 73.0613 69.8823 72.2323 70.1003 71.4033C70.3433 70.4813 70.5933 69.5443 71.1273 68.7443C71.2493 68.5623 70.9903 68.3543 70.8593 68.5333C69.8803 69.8273 68.3063 70.4093 66.9773 71.2583C66.2813 71.7013 65.6523 72.2363 65.1733 72.9163C64.6483 73.6723 64.2993 74.5363 64.0243 75.4103C63.7903 76.1603 63.6023 76.9243 63.3753 77.6763C63.3663 77.7043 63.3573 77.7323 63.3493 77.7593C63.2773 77.9943 63.2013 78.2293 63.1193 78.4603C63.1113 78.4763 63.1113 78.4933 63.1103 78.5103C62.9793 78.6763 62.8433 78.8433 62.7053 79.0083C62.2943 79.4973 61.8603 79.9723 61.4133 80.4293C61.4283 80.3933 61.4453 80.3553 61.4613 80.3193C61.5143 80.2133 61.5723 80.1113 61.6053 80.0373C61.8873 79.4033 62.1603 78.7623 62.3893 78.1073C62.8323 76.8313 63.0583 75.5053 62.8613 74.1593C62.6433 72.6803 62.0283 71.2963 61.4193 69.9443C61.3363 69.7623 61.0873 69.8353 61.0933 70.0273C61.1383 71.5883 60.0693 72.8983 59.5463 74.2983C59.2873 74.9983 59.1583 75.7353 59.2933 76.4763C59.4233 77.2003 59.7393 77.8703 60.0403 78.5373C60.2553 79.0103 60.4713 79.4973 60.5923 80.0013C60.6653 80.3063 60.7073 80.6173 60.6943 80.9323C60.6923 80.9963 60.7193 81.0433 60.7553 81.0763C60.5133 81.3073 60.2653 81.5333 60.0143 81.7533L60.2373 82.0113C60.4843 81.8013 60.7283 81.5803 60.9673 81.3603C61.0353 81.2963 61.1003 81.2303 61.1683 81.1663C61.3163 81.3093 61.5253 81.4083 61.6963 81.4903C62.9173 82.0813 64.3463 81.8673 65.5613 81.3883C67.1343 80.7753 68.5193 79.7263 70.1763 79.3263C70.3153 79.2893 70.4013 79.0533 70.2173 78.9993Z" fill="#82C4C4"/>
<path d="M69.1593 84.8635C66.7233 83.4085 64.0643 82.0935 61.1543 82.1645C60.7343 82.1735 60.3193 82.2205 59.9103 82.2935C60.0213 82.2025 60.1293 82.1095 60.2363 82.0115L60.0133 81.7535C59.7573 81.9735 59.5013 82.1895 59.2413 82.3975C59.1653 81.8865 59.3613 81.3275 59.4153 80.8175C59.5413 79.5475 59.3913 78.2565 58.9963 77.0415C58.5423 75.6635 57.7693 74.4035 56.7353 73.3865C56.6253 73.2785 56.4433 73.4045 56.4593 73.5385C56.6263 74.8955 56.3073 76.2395 56.2553 77.5925C56.2043 78.9335 56.5043 80.2255 57.2773 81.3425C57.6703 81.9085 58.1673 82.3985 58.7343 82.7885C58.3423 83.0885 57.9413 83.3815 57.5293 83.6575C56.8693 84.0985 56.1883 84.5055 55.4873 84.8845C56.4993 82.7255 56.5253 80.1735 55.5113 77.9985C55.2043 77.3395 54.8093 76.7205 54.3413 76.1655C54.2413 76.0435 53.9933 76.1045 54.0343 76.2845C54.3073 77.5335 53.7593 78.7495 53.4613 79.9405C53.3463 80.4015 53.2803 80.8664 53.2683 81.3354C53.2473 82.1135 53.3713 82.8895 53.6473 83.6325C53.8783 84.2445 54.2143 84.8175 54.6273 85.3245C53.8003 85.7295 52.9503 86.0865 52.0823 86.3945L52.1933 86.7165C52.4053 86.6405 52.6233 86.5675 52.8323 86.4845C53.5433 86.2095 54.2383 85.8955 54.9223 85.5565C56.0113 86.6355 57.2953 87.6105 58.8393 87.8855C60.1593 88.1245 61.4973 87.8595 62.8163 87.7675C63.5743 87.7155 64.3343 87.7275 65.0743 87.9185C65.2423 87.9645 65.3343 87.7095 65.2033 87.6165C62.9173 85.9435 60.2253 84.6435 57.3293 84.7725C56.9233 84.7915 56.5233 84.8425 56.1243 84.9235C56.6683 84.6125 57.1983 84.2865 57.7163 83.9385C58.1803 83.6305 58.6303 83.3065 59.0743 82.9685C59.4013 83.5695 60.0203 84.0475 60.5913 84.3925C61.8073 85.1225 63.1813 85.2695 64.5723 85.2085C66.0553 85.1405 67.5543 84.8815 69.0303 85.1645C69.1893 85.1955 69.3083 84.9505 69.1593 84.8635Z" fill="#82C4C4"/>
<path d="M59.5613 91.023C58.4173 90.605 57.1793 90.7091 55.9833 90.6331C54.8363 90.5611 53.7533 90.269 52.8833 89.476C52.3953 89.031 51.9953 88.5001 51.6413 87.9391C51.4623 87.6591 51.2933 87.3701 51.1303 87.0811C51.1273 87.0791 51.1273 87.0741 51.1243 87.0721C50.4533 87.2791 49.7793 87.456 49.0943 87.609C51.2513 88.115 52.6953 90.0901 53.8973 91.8431C53.9883 91.9761 53.8523 92.1771 53.6923 92.1031C53.0533 91.8051 52.4193 91.5061 51.7833 91.2101C51.1803 90.9271 50.5653 90.66 49.9943 90.32C49.0753 89.771 48.2353 88.9101 48.1503 87.7921C47.3473 87.9341 46.5313 88.0391 45.7163 88.0851C44.8733 88.1351 44.0273 88.0991 43.2213 87.8261C43.0143 87.7581 43.1493 87.443 43.3543 87.513C44.2743 87.824 45.2553 87.792 46.2103 87.704C47.0983 87.625 47.9823 87.4951 48.8563 87.3131C49.5183 87.1731 50.1713 87.0051 50.8173 86.8141C50.2523 85.6481 50.0623 84.304 50.3123 83.032C50.5963 81.561 51.4473 80.2361 52.6433 79.3391C52.7483 79.2611 52.8953 79.333 52.9153 79.457C53.0043 80.079 53.0293 80.6981 52.9993 81.317C52.9123 83.173 52.3223 84.995 51.4223 86.625C51.6443 86.552 51.8643 86.4771 52.0803 86.3961L52.1913 86.7181C52.5223 86.7441 52.8533 86.782 53.1813 86.841C55.7603 87.297 58.1453 88.699 59.7643 90.763C59.8753 90.9 59.7113 91.075 59.5613 91.023Z" fill="#82C4C4"/>
<path d="M1.35229 80.383C3.00929 80.783 4.39429 81.8309 5.96729 82.4449C7.18229 82.9229 8.61129 83.138 9.83229 82.547C10.0023 82.465 10.2113 82.366 10.3603 82.223C10.4283 82.287 10.4933 82.353 10.5613 82.417C10.8003 82.638 11.0433 82.859 11.2913 83.068L11.5143 82.81C11.2633 82.59 11.0153 82.364 10.7733 82.133C10.8093 82.101 10.8363 82.053 10.8343 81.989C10.8213 81.674 10.8633 81.363 10.9363 81.058C11.0573 80.554 11.2733 80.067 11.4883 79.594C11.7893 78.927 12.1053 78.257 12.2353 77.533C12.3703 76.793 12.2413 76.055 11.9823 75.355C11.4593 73.955 10.3893 72.645 10.4353 71.084C10.4413 70.893 10.1923 70.8189 10.1093 71.0009C9.50029 72.3529 8.88529 73.7369 8.66729 75.2159C8.47029 76.5619 8.69629 77.8869 9.13929 79.1639C9.36729 79.8189 9.64129 80.459 9.92329 81.094C9.95529 81.168 10.0143 81.2699 10.0673 81.3759C10.0823 81.4119 10.0993 81.45 10.1153 81.486C9.66929 81.029 9.23429 80.5539 8.82329 80.0649C8.68529 79.8999 8.54929 79.733 8.41829 79.567C8.41829 79.55 8.41729 79.5329 8.40929 79.5169C8.32729 79.2859 8.25129 79.0509 8.17929 78.8159C8.17029 78.7879 8.16129 78.7599 8.15329 78.7329C7.92729 77.9809 7.73829 77.217 7.50429 76.467C7.22929 75.593 6.88029 74.729 6.35529 73.973C5.87729 73.293 5.24829 72.7579 4.55129 72.3149C3.22229 71.4659 1.64829 70.884 0.669288 69.59C0.537288 69.411 0.279286 69.619 0.401286 69.801C0.935286 70.602 1.18629 71.539 1.42829 72.46C1.64529 73.289 1.86729 74.1179 2.26329 74.8799C2.67329 75.6659 3.22629 76.369 3.88529 76.959C5.16929 78.1 6.94629 78.553 8.12329 79.822C8.14729 79.847 8.18129 79.8629 8.21429 79.8719C8.32629 80.0139 8.44029 80.1539 8.56029 80.2899C8.76429 80.5379 8.97829 80.7779 9.19329 81.0169C8.99329 80.9009 8.79228 80.789 8.58329 80.689C6.34029 79.594 3.70829 79.3579 1.31129 80.0559C1.12429 80.1099 1.21029 80.346 1.35229 80.383Z" fill="#82C4C4"/>
<path d="M2.49528 86.2235C3.97128 85.9405 5.47028 86.1995 6.95328 86.2675C8.34428 86.3295 9.71928 86.1815 10.9343 85.4515C11.5053 85.1065 12.1243 84.6285 12.4513 84.0275C12.8953 84.3655 13.3453 84.6885 13.8093 84.9975C14.3273 85.3465 14.8573 85.6725 15.4013 85.9825C15.0023 85.9005 14.6023 85.8505 14.1963 85.8315C11.3003 85.7025 8.60828 87.0025 6.32228 88.6755C6.19228 88.7695 6.28328 89.0235 6.45128 88.9775C7.19128 88.7865 7.95128 88.7745 8.70928 88.8265C10.0283 88.9185 11.3663 89.1825 12.6863 88.9445C14.2293 88.6695 15.5133 87.6945 16.6033 86.6155C17.2873 86.9555 17.9823 87.2695 18.6933 87.5435C18.9023 87.6265 19.1203 87.6985 19.3323 87.7755L19.4433 87.4535C18.5753 87.1455 17.7253 86.7885 16.8983 86.3835C17.3113 85.8755 17.6473 85.3035 17.8783 84.6915C18.1543 83.9485 18.2783 83.1735 18.2573 82.3945C18.2453 81.9265 18.1793 81.4605 18.0643 80.9995C17.7663 79.8085 17.2183 78.5925 17.4913 77.3435C17.5323 77.1635 17.2843 77.1025 17.1843 77.2245C16.7163 77.7795 16.3213 78.3985 16.0143 79.0575C15.0003 81.2325 15.0263 83.7845 16.0383 85.9435C15.3373 85.5655 14.6563 85.1585 13.9963 84.7165C13.5843 84.4415 13.1843 84.1475 12.7913 83.8475C13.3583 83.4585 13.8543 82.9675 14.2483 82.4015C15.0213 81.2855 15.3213 79.9935 15.2703 78.6515C15.2183 77.2975 14.8993 75.9535 15.0663 74.5975C15.0823 74.4635 14.9003 74.3365 14.7903 74.4455C13.7563 75.4625 12.9833 76.7225 12.5293 78.1005C12.1333 79.3155 11.9843 80.6065 12.1103 81.8765C12.1633 82.3865 12.3593 82.9445 12.2843 83.4565C12.0243 83.2475 11.7683 83.0325 11.5123 82.8125L11.2893 83.0705C11.3963 83.1685 11.5053 83.2615 11.6153 83.3525C11.2053 83.2795 10.7903 83.2325 10.3713 83.2235C7.46128 83.1535 4.80128 84.4675 2.36628 85.9225C2.21728 86.0075 2.33628 86.2525 2.49528 86.2235Z" fill="#82C4C4"/>
<path d="M11.9643 92.0797C13.1083 91.6617 14.3463 91.7657 15.5423 91.6897C16.6893 91.6177 17.7723 91.3257 18.6423 90.5327C19.1303 90.0877 19.5303 89.5567 19.8843 88.9957C20.0633 88.7157 20.2323 88.4267 20.3953 88.1377C20.3983 88.1357 20.3983 88.1307 20.4013 88.1287C21.0723 88.3357 21.7463 88.5127 22.4313 88.6657C20.2743 89.1717 18.8293 91.1467 17.6283 92.8997C17.5373 93.0327 17.6733 93.2337 17.8333 93.1597C18.4723 92.8617 19.1063 92.5627 19.7423 92.2667C20.3453 91.9837 20.9603 91.7167 21.5313 91.3767C22.4503 90.8277 23.2903 89.9667 23.3753 88.8487C24.1783 88.9907 24.9943 89.0957 25.8093 89.1417C26.6523 89.1917 27.4983 89.1557 28.3043 88.8827C28.5113 88.8147 28.3763 88.4997 28.1713 88.5697C27.2513 88.8807 26.2703 88.8487 25.3153 88.7607C24.4273 88.6817 23.5433 88.5517 22.6693 88.3697C22.0073 88.2297 21.3543 88.0617 20.7083 87.8707C21.2733 86.7047 21.4633 85.3607 21.2133 84.0887C20.9293 82.6177 20.0783 81.2927 18.8823 80.3957C18.7773 80.3177 18.6303 80.3897 18.6103 80.5137C18.5213 81.1357 18.4963 81.7547 18.5263 82.3737C18.6133 84.2297 19.2033 86.0517 20.1033 87.6817C19.8813 87.6087 19.6613 87.5337 19.4453 87.4527L19.3343 87.7747C19.0033 87.8007 18.6723 87.8387 18.3443 87.8977C15.7653 88.3537 13.3803 89.7557 11.7613 91.8197C11.6503 91.9567 11.8143 92.1327 11.9643 92.0797Z" fill="#82C4C4"/>
<path d="M36.2203 19.1302C39.8256 19.1302 42.7483 16.2075 42.7483 12.6022C42.7483 8.9969 39.8256 6.07422 36.2203 6.07422C32.615 6.07422 29.6923 8.9969 29.6923 12.6022C29.6923 16.2075 32.615 19.1302 36.2203 19.1302Z" fill="#82C4C4"/>
<path d="M37.8053 3.44099C37.7003 3.86499 37.5073 4.26301 37.3913 4.68401C37.3143 4.96701 37.2733 5.272 37.3163 5.56C36.9593 5.506 36.5943 5.478 36.2223 5.478C35.6493 5.478 35.0923 5.545 34.5603 5.673C34.4933 5.072 34.7663 4.44 35.1233 3.931C35.5573 3.314 36.1253 2.788 36.4803 2.12C36.8323 1.455 36.9223 0.555 36.4113 0C37.5353 0.699 38.1233 2.15899 37.8053 3.44099Z" fill="#82C4C4"/>
<path d="M34.6363 21.7847C34.7413 21.3607 34.9343 20.9627 35.0503 20.5417C35.1273 20.2587 35.1683 19.9537 35.1253 19.6657C35.4823 19.7197 35.8473 19.7477 36.2193 19.7477C36.7923 19.7477 37.3493 19.6807 37.8813 19.5527C37.9483 20.1537 37.6753 20.7857 37.3183 21.2947C36.8843 21.9117 36.3163 22.4377 35.9613 23.1057C35.6093 23.7707 35.5193 24.6707 36.0303 25.2257C34.9053 24.5257 34.3173 23.0667 34.6363 21.7847Z" fill="#82C4C4"/>
<path d="M27.0483 11.0272C27.4723 11.1322 27.8703 11.3252 28.2913 11.4412C28.5743 11.5182 28.8793 11.5592 29.1673 11.5162C29.1133 11.8732 29.0853 12.2382 29.0853 12.6102C29.0853 13.1832 29.1523 13.7402 29.2803 14.2722C28.6793 14.3392 28.0473 14.0662 27.5383 13.7092C26.9213 13.2752 26.3953 12.7072 25.7273 12.3522C25.0623 12.0002 24.1623 11.9102 23.6073 12.4212C24.3073 11.2972 25.7663 10.7092 27.0483 11.0272Z" fill="#82C4C4"/>
<path d="M45.3923 14.1966C44.9683 14.0916 44.5703 13.8986 44.1493 13.7826C43.8663 13.7056 43.5613 13.6646 43.2733 13.7076C43.3273 13.3506 43.3553 12.9856 43.3553 12.6136C43.3553 12.0406 43.2883 11.4836 43.1603 10.9516C43.7613 10.8846 44.3933 11.1576 44.9023 11.5146C45.5193 11.9486 46.0453 12.5166 46.7133 12.8716C47.3783 13.2236 48.2783 13.3136 48.8333 12.8026C48.1343 13.9266 46.6743 14.5156 45.3923 14.1966Z" fill="#82C4C4"/>
<path d="M30.8553 5.00736C31.0803 5.38136 31.2263 5.79935 31.4423 6.17935C31.5873 6.43335 31.7743 6.67935 32.0093 6.85135C31.7183 7.06535 31.4403 7.30336 31.1773 7.56736C30.7723 7.97236 30.4253 8.41436 30.1403 8.88036C29.6683 8.50236 29.4133 7.86335 29.3063 7.25035C29.1773 6.50735 29.2063 5.73335 28.9843 5.01035C28.7623 4.29135 28.1903 3.59135 27.4363 3.56035C28.7263 3.25935 30.1743 3.87536 30.8553 5.00736Z" fill="#82C4C4"/>
<path d="M41.5853 20.2187C41.3603 19.8447 41.2143 19.4267 40.9983 19.0467C40.8533 18.7927 40.6663 18.5467 40.4313 18.3747C40.7223 18.1607 41.0003 17.9227 41.2633 17.6587C41.6683 17.2537 42.0153 16.8117 42.3003 16.3457C42.7723 16.7237 43.0273 17.3627 43.1343 17.9757C43.2633 18.7187 43.2343 19.4927 43.4563 20.2157C43.6783 20.9347 44.2503 21.6347 45.0043 21.6657C43.7153 21.9657 42.2673 21.3507 41.5853 20.2187Z" fill="#82C4C4"/>
<path d="M28.6143 17.9782C28.9883 17.7532 29.4063 17.6072 29.7863 17.3912C30.0403 17.2462 30.2863 17.0592 30.4583 16.8242C30.6723 17.1152 30.9103 17.3932 31.1743 17.6562C31.5793 18.0612 32.0213 18.4082 32.4873 18.6932C32.1093 19.1652 31.4703 19.4202 30.8573 19.5272C30.1143 19.6562 29.3403 19.6272 28.6173 19.8492C27.8983 20.0712 27.1983 20.6432 27.1673 21.3972C26.8673 20.1072 27.4823 18.6592 28.6143 17.9782Z" fill="#82C4C4"/>
<path d="M43.8263 7.24713C43.4523 7.47213 43.0343 7.61812 42.6543 7.83412C42.4003 7.97912 42.1543 8.16612 41.9823 8.40112C41.7683 8.11012 41.5303 7.83212 41.2663 7.56912C40.8613 7.16412 40.4193 6.81714 39.9533 6.53214C40.3313 6.06013 40.9703 5.80514 41.5833 5.69814C42.3263 5.56914 43.1003 5.59813 43.8233 5.37613C44.5423 5.15413 45.2423 4.58213 45.2733 3.82812C45.5743 5.11713 44.9583 6.56513 43.8263 7.24713Z" fill="#82C4C4"/>
<path d="M19.4023 11.4648L21.0403 14.4218L19.4023 17.5258L17.8273 14.3998L19.4023 11.4648Z" fill="#352D2A"/>
<path d="M14.9243 15.6113C13.7983 15.6113 13.7963 17.3613 14.9243 17.3613C16.0503 17.3613 16.0523 15.6113 14.9243 15.6113Z" fill="#352D2A"/>
<path d="M23.1593 15.4707C22.0333 15.4707 22.0313 17.2207 23.1593 17.2207C24.2853 17.2197 24.2873 15.4707 23.1593 15.4707Z" fill="#352D2A"/>
<path d="M16.9823 9.92188C15.8563 9.92188 15.8543 11.6719 16.9823 11.6719C18.1083 11.6709 18.1093 9.92188 16.9823 9.92188Z" fill="#352D2A"/>
<path d="M68.5333 27.7949L70.1703 30.7519L68.5333 33.8559L66.9573 30.7299L68.5333 27.7949Z" fill="#352D2A"/>
<path d="M69.0733 22.3789C67.9473 22.3789 67.9453 24.1289 69.0733 24.1289C70.1993 24.1289 70.2013 22.3789 69.0733 22.3789Z" fill="#352D2A"/>
<path d="M65.2883 25.8008C64.1623 25.8008 64.1603 27.5508 65.2883 27.5508C66.4143 27.5508 66.4163 25.8008 65.2883 25.8008Z" fill="#352D2A"/>
</svg>
