<svg width="55" height="55" viewBox="0 0 55 55" fill="none" xmlns="http://www.w3.org/2000/svg">
<path d="M23.7276 16.5664C21.0014 18.6333 18.4219 20.8867 16.0076 23.3104C4.63155 34.6824 -1.12845 47.3624 3.13555 51.6264C7.39955 55.8904 20.0796 50.1304 31.4516 38.7544C33.8753 36.3401 36.1287 33.7605 38.1956 31.0344" stroke="#4147D5" stroke-width="3" stroke-linecap="round" stroke-linejoin="round"/>
<path d="M38.1955 31.0303C44.9035 39.9343 47.6355 48.3143 44.3235 51.6263C40.0555 55.8903 27.3795 50.1303 16.0035 38.7543C4.63555 27.3823 -1.12445 14.7023 3.13955 10.4383C6.44755 7.12628 14.8235 9.85828 23.7275 16.5663" stroke="#29485A" stroke-width="3" stroke-linecap="round" stroke-linejoin="round"/>
<path d="M21.7275 31.0312C21.7275 31.5617 21.9383 32.0704 22.3133 32.4455C22.6884 32.8205 23.1971 33.0312 23.7275 33.0312C24.258 33.0312 24.7667 32.8205 25.1418 32.4455C25.5168 32.0704 25.7275 31.5617 25.7275 31.0312C25.7275 30.5008 25.5168 29.9921 25.1418 29.617C24.7667 29.242 24.258 29.0312 23.7275 29.0312C23.1971 29.0312 22.6884 29.242 22.3133 29.617C21.9383 29.9921 21.7275 30.5008 21.7275 31.0312Z" stroke="#40C4DF" stroke-width="2" stroke-linecap="round" stroke-linejoin="round"/>
<path d="M31.7663 13.5147C30.5063 13.2987 30.5063 11.4947 31.7663 11.2747C33.9923 10.8891 36.0528 9.84856 37.6844 8.28603C39.3161 6.7235 40.4448 4.70995 40.9263 2.50271L41.0023 2.15471C41.2743 0.914713 43.0423 0.906713 43.3223 2.14671L43.4183 2.54671C43.9204 4.74302 45.0598 6.74219 46.6936 8.29347C48.3274 9.84475 50.3829 10.8791 52.6023 11.2667C53.8663 11.4907 53.8663 13.3027 52.6023 13.5227C50.3829 13.9103 48.3274 14.9447 46.6936 16.496C45.0598 18.0472 43.9204 20.0464 43.4183 22.2427L43.3223 22.6427C43.0423 23.8827 41.2743 23.8787 41.0023 22.6347L40.9223 22.2907C40.4415 20.0827 39.3131 18.0683 37.6814 16.505C36.0497 14.9417 33.9928 13.9006 31.7663 13.5147Z" fill="#7BEFE4"/>
<path d="M31.7663 13.5147C30.5063 13.2987 30.5063 11.4947 31.7663 11.2747C33.9923 10.8891 36.0528 9.84856 37.6844 8.28603C39.3161 6.7235 40.4448 4.70995 40.9263 2.50271L41.0023 2.15471C41.2743 0.914713 43.0423 0.906713 43.3223 2.14671L43.4183 2.54671C43.9204 4.74302 45.0598 6.74219 46.6936 8.29347C48.3274 9.84475 50.3829 10.8791 52.6023 11.2667C53.8663 11.4907 53.8663 13.3027 52.6023 13.5227C50.3829 13.9103 48.3274 14.9447 46.6936 16.496C45.0598 18.0472 43.9204 20.0464 43.4183 22.2427L43.3223 22.6427C43.0423 23.8827 41.2743 23.8787 41.0023 22.6347L40.9223 22.2907C40.4415 20.0827 39.3131 18.0683 37.6814 16.505C36.0497 14.9417 33.9928 13.9006 31.7663 13.5147Z" stroke="#4147D5" stroke-width="2" stroke-linecap="round" stroke-linejoin="round"/>
</svg>
