<svg width="55" height="55" viewBox="0 0 55 55" fill="none" xmlns="http://www.w3.org/2000/svg">
<path d="M23.7271 16.5665C21.0009 18.6334 18.4214 20.8868 16.0071 23.3105C4.63106 34.6825 -1.12893 47.3625 3.13507 51.6265C7.39907 55.8905 20.0791 50.1305 31.4511 38.7545C33.8748 36.3402 36.1282 33.7607 38.1951 31.0345" stroke="#4147D5" stroke-width="3" stroke-linecap="round" stroke-linejoin="round"/>
<path d="M38.1951 31.0305C44.9031 39.9345 47.6351 48.3145 44.3231 51.6265C40.0551 55.8905 27.3791 50.1305 16.0031 38.7545C4.63506 27.3825 -1.12494 14.7025 3.13906 10.4385C6.44706 7.12652 14.8231 9.85852 23.7271 16.5665" stroke="#29485A" stroke-width="3" stroke-linecap="round" stroke-linejoin="round"/>
<path d="M21.7271 31.0305C21.7271 31.561 21.9378 32.0697 22.3128 32.4447C22.6879 32.8198 23.1966 33.0305 23.7271 33.0305C24.2575 33.0305 24.7662 32.8198 25.1413 32.4447C25.5163 32.0697 25.7271 31.561 25.7271 31.0305C25.7271 30.5001 25.5163 29.9914 25.1413 29.6163C24.7662 29.2412 24.2575 29.0305 23.7271 29.0305C23.1966 29.0305 22.6879 29.2412 22.3128 29.6163C21.9378 29.9914 21.7271 30.5001 21.7271 31.0305Z" stroke="#40C4DF" stroke-width="2" stroke-linecap="round" stroke-linejoin="round"/>
<path d="M31.7673 13.5145C30.5073 13.2985 30.5073 11.4945 31.7673 11.2745C33.9933 10.8889 36.0537 9.84838 37.6854 8.28585C39.317 6.72331 40.4457 4.70977 40.9273 2.50253L41.0033 2.15453C41.2753 0.91453 43.0433 0.90653 43.3233 2.14653L43.4193 2.54653C43.9213 4.74284 45.0607 6.74201 46.6946 8.29329C48.3284 9.84457 50.3839 10.8789 52.6033 11.2665C53.8673 11.4905 53.8673 13.3025 52.6033 13.5225C50.3839 13.9102 48.3284 14.9445 46.6946 16.4958C45.0607 18.0471 43.9213 20.0462 43.4193 22.2425L43.3233 22.6425C43.0433 23.8825 41.2753 23.8785 41.0033 22.6345L40.9233 22.2905C40.4425 20.0826 39.3141 18.0681 37.6824 16.5048C36.0507 14.9415 33.9938 13.9004 31.7673 13.5145Z" fill="#7BEFE4"/>
<path d="M31.7673 13.5145C30.5073 13.2985 30.5073 11.4945 31.7673 11.2745C33.9933 10.8889 36.0537 9.84838 37.6854 8.28585C39.317 6.72331 40.4457 4.70977 40.9273 2.50253L41.0033 2.15453C41.2753 0.91453 43.0433 0.90653 43.3233 2.14653L43.4193 2.54653C43.9213 4.74284 45.0607 6.74201 46.6946 8.29329C48.3284 9.84457 50.3839 10.8789 52.6033 11.2665C53.8673 11.4905 53.8673 13.3025 52.6033 13.5225C50.3839 13.9102 48.3284 14.9445 46.6946 16.4958C45.0607 18.0471 43.9213 20.0462 43.4193 22.2425L43.3233 22.6425C43.0433 23.8825 41.2753 23.8785 41.0033 22.6345L40.9233 22.2905C40.4425 20.0826 39.3141 18.0681 37.6824 16.5048C36.0507 14.9415 33.9938 13.9004 31.7673 13.5145Z" stroke="#4147D5" stroke-width="2" stroke-linecap="round" stroke-linejoin="round"/>
</svg>
