<svg width="51" height="50" viewBox="0 0 51 50" fill="none" xmlns="http://www.w3.org/2000/svg">
<path d="M6.75 14.0625C6.75 12.8193 7.24386 11.627 8.12294 10.7479C9.00201 9.86886 10.1943 9.375 11.4375 9.375H20.8125C22.0557 9.375 23.248 9.86886 24.1271 10.7479C25.0061 11.627 25.5 12.8193 25.5 14.0625V25C25.5 25.8288 25.1708 26.6237 24.5847 27.2097C23.9987 27.7958 23.2038 28.125 22.375 28.125H9.875C9.0462 28.125 8.25134 27.7958 7.66529 27.2097C7.07924 26.6237 6.75 25.8288 6.75 25V14.0625Z" fill="url(#paint0_linear_1490_1925)"/>
<path d="M36.4375 25C37.6807 25 38.873 25.4939 39.7521 26.3729C40.6311 27.252 41.125 28.4443 41.125 29.6875V39.0625C41.125 40.3057 40.6311 41.498 39.7521 42.3771C38.873 43.2561 37.6807 43.75 36.4375 43.75H25.5C24.6712 43.75 23.8763 43.4208 23.2903 42.8347C22.7042 42.2487 22.375 41.4538 22.375 40.625V28.125C22.375 27.2962 22.7042 26.5013 23.2903 25.9153C23.8763 25.3292 24.6712 25 25.5 25H36.4375Z" fill="url(#paint1_linear_1490_1925)"/>
<path d="M25.5 40.625C25.5 41.4538 25.1708 42.2487 24.5847 42.8347C23.9987 43.4208 23.2038 43.75 22.375 43.75H11.4375C10.1943 43.75 9.00201 43.2561 8.12294 42.3771C7.24386 41.498 6.75 40.3057 6.75 39.0625V28.125C6.75 27.2962 7.07924 26.5013 7.66529 25.9153C8.25134 25.3292 9.0462 25 9.875 25H22.375C23.2038 25 23.9987 25.3292 24.5847 25.9153C25.1708 26.5013 25.5 27.2962 25.5 28.125V40.625Z" fill="url(#paint2_linear_1490_1925)"/>
<path d="M30.7822 7.63181C31.2175 7.19622 31.7344 6.85067 32.3033 6.61491C32.8722 6.37916 33.482 6.25781 34.0978 6.25781C34.7137 6.25781 35.3234 6.37916 35.8923 6.61491C36.4613 6.85067 36.9781 7.19622 37.4135 7.63181L42.8885 13.1068C43.7672 13.9858 44.2609 15.1779 44.2609 16.4209C44.2609 17.6638 43.7672 18.8559 42.8885 19.7349L37.4197 25.2037C36.5408 26.0815 35.3494 26.5746 34.1072 26.5746C32.865 26.5746 31.6736 26.0815 30.7947 25.2037L25.3197 19.7224C24.4409 18.8434 23.9473 17.6513 23.9473 16.4084C23.9473 15.1654 24.4409 13.9733 25.3197 13.0943L30.7822 7.63181Z" fill="url(#paint3_linear_1490_1925)"/>
<defs>
<linearGradient id="paint0_linear_1490_1925" x1="25.5" y1="18.75" x2="6.75" y2="18.75" gradientUnits="userSpaceOnUse">
<stop stop-color="#72AFDD"/>
<stop offset="1" stop-color="#E78667"/>
</linearGradient>
<linearGradient id="paint1_linear_1490_1925" x1="41.125" y1="34.375" x2="22.375" y2="34.375" gradientUnits="userSpaceOnUse">
<stop stop-color="#72AFDD"/>
<stop offset="1" stop-color="#E78667"/>
</linearGradient>
<linearGradient id="paint2_linear_1490_1925" x1="25.5" y1="34.375" x2="6.75" y2="34.375" gradientUnits="userSpaceOnUse">
<stop stop-color="#72AFDD"/>
<stop offset="1" stop-color="#E78667"/>
</linearGradient>
<linearGradient id="paint3_linear_1490_1925" x1="40.8072" y1="22.0631" x2="29.1822" y2="7.72244" gradientUnits="userSpaceOnUse">
<stop stop-color="#2764E7"/>
<stop offset="1" stop-color="#36DFF1"/>
</linearGradient>
</defs>
</svg>
