<svg width="50" height="50" viewBox="0 0 50 50" fill="none" xmlns="http://www.w3.org/2000/svg">
<path d="M22.8125 40.7298C23.5069 41.1465 24.2361 41.3465 25 41.3298C25.7639 41.3131 26.4931 41.0958 27.1875 40.6777L36.6667 34.8965C34.9306 33.6812 33.0729 32.7701 31.0938 32.1631C29.1146 31.5562 27.0833 31.252 25 31.2507C22.9167 31.2493 20.8771 31.5534 18.8812 32.1631C16.8854 32.7729 15.0014 33.6666 13.2292 34.8444L22.8125 40.7298ZM25 27.084C27.0139 27.084 28.7326 26.3722 30.1562 24.9486C31.5799 23.525 32.2917 21.8062 32.2917 19.7923C32.2917 17.7784 31.5799 16.0597 30.1562 14.6361C28.7326 13.2125 27.0139 12.5007 25 12.5007C22.9861 12.5007 21.2674 13.2125 19.8437 14.6361C18.4201 16.0597 17.7083 17.7784 17.7083 19.7923C17.7083 21.8062 18.4201 23.525 19.8437 24.9486C21.2674 26.3722 22.9861 27.084 25 27.084ZM22.8125 45.5736L8.22917 36.6152C7.60417 36.2333 7.11806 35.7298 6.77083 35.1048C6.42361 34.4798 6.25 33.8027 6.25 33.0736V16.9277C6.25 16.1986 6.42361 15.5215 6.77083 14.8965C7.11806 14.2715 7.60417 13.768 8.22917 13.3861L22.8125 4.42773C23.5069 4.01107 24.2361 3.80273 25 3.80273C25.7639 3.80273 26.4931 4.01107 27.1875 4.42773L41.7708 13.3861C42.3958 13.768 42.8819 14.2715 43.2292 14.8965C43.5764 15.5215 43.75 16.1986 43.75 16.9277V33.0736C43.75 33.8027 43.5764 34.4798 43.2292 35.1048C42.8819 35.7298 42.3958 36.2333 41.7708 36.6152L27.1875 45.5736C26.4931 45.9902 25.7639 46.1986 25 46.1986C24.2361 46.1986 23.5069 45.9902 22.8125 45.5736Z" fill="url(#paint0_linear_1490_1912)"/>
<defs>
<linearGradient id="paint0_linear_1490_1912" x1="43.75" y1="25.0006" x2="6.25" y2="25.0006" gradientUnits="userSpaceOnUse">
<stop stop-color="#72AFDD"/>
<stop offset="1" stop-color="#E78667"/>
</linearGradient>
</defs>
</svg>
