<?xml version="1.0" encoding="UTF-8"?>
<svg version="1.1" xmlns="http://www.w3.org/2000/svg" width="678" height="140">
<path d="M0 0 C1.1668338 19.31482336 1.53686393 38.6584846 2 58 C2.66386719 57.65066406 3.32773438 57.30132812 4.01171875 56.94140625 C4.89472656 56.48636719 5.77773437 56.03132813 6.6875 55.5625 C7.55761719 55.11003906 8.42773438 54.65757813 9.32421875 54.19140625 C16.06670756 51.1892762 23.65617439 51.03652482 30.6875 53.0625 C37.76529288 57.20234112 41.88670954 61.96210501 44 70 C44.42596023 73.97199881 44.44097583 77.91795688 44.44140625 81.91015625 C44.46121803 83.59956581 44.46121803 83.59956581 44.48143005 85.32310486 C44.52213507 88.90292877 44.54394327 92.48249785 44.5625 96.0625 C44.58634661 99.64599467 44.61454954 103.22925156 44.65428162 106.81260681 C44.67849045 109.0362876 44.69346919 111.26009381 44.69789124 113.48390198 C44.75327854 119.00124934 44.92204911 123.84803746 47 129 C50.24939773 130.77239876 52.44493398 131.01110132 56.125 130.9375 C59.80477836 129.73757227 60.96254379 128.24483767 63 125 C63.97149122 121.97392353 64.1312929 119.20311186 64.14526367 116.03540039 C64.15164352 115.05080338 64.15802338 114.06620636 64.16459656 113.05177307 C64.16570938 111.99441452 64.1668222 110.93705597 64.16796875 109.84765625 C64.17129715 108.75537216 64.17462555 107.66308807 64.17805481 106.53770447 C64.18311524 104.22867249 64.18546341 101.91963322 64.18530273 99.6105957 C64.18748949 96.07946733 64.20565555 92.54865125 64.22460938 89.01757812 C64.22754341 86.77343857 64.22952814 84.52929753 64.23046875 82.28515625 C64.24124702 80.70215477 64.24124702 80.70215477 64.25224304 79.08717346 C64.2476281 77.6055497 64.2476281 77.6055497 64.24291992 76.09399414 C64.24434494 75.22891739 64.24576996 74.36384064 64.24723816 73.47254944 C63.96599045 70.65988143 63.23084458 68.53794986 62 66 C60.31953843 64.78473015 60.31953843 64.78473015 58.375 64.1875 C56.704375 63.5996875 56.704375 63.5996875 55 63 C55.33 62.01 55.66 61.02 56 60 C57.11117187 59.84144531 58.22234375 59.68289062 59.3671875 59.51953125 C67.11781377 58.33322869 74.0350614 57.15961383 80.921875 53.18359375 C83.2104154 51.88015815 85.54023994 50.93316072 88 50 C88 52.64 88 55.28 88 58 C88.67804688 57.66226563 89.35609375 57.32453125 90.0546875 56.9765625 C99.04341331 52.66894598 108.00514603 49.36273452 118 52 C121.34101435 53.70088003 123.33949385 54.97921776 125.375 58.125 C126.60084075 63.76386744 126.73239363 68.98591752 124.75 74.4375 C122.27315576 78.06430764 120.39858582 79.52320938 116.25 80.9375 C110.77137482 81.04285818 106.95664698 78.35460175 102.5625 75.3125 C100.19209617 71.80430234 100.17757715 68.15530534 100 64 C95.65736138 63.83297544 92.79039366 63.87000003 89 66 C88.95363438 73.49314607 88.91810931 80.98627724 88.89637566 88.47953415 C88.88594392 91.95906394 88.87179599 95.43849549 88.84912109 98.91796875 C88.82320905 102.91928037 88.81352218 106.92048897 88.8046875 110.921875 C88.79436493 112.16990906 88.78404236 113.41794312 88.77340698 114.70379639 C88.77325592 115.86469788 88.77310486 117.02559937 88.77294922 118.22167969 C88.768508 119.24316101 88.76406677 120.26464233 88.75949097 121.31707764 C89.00650598 124.07257536 89.52384164 125.68132875 91 128 C92.69727225 129.31210005 92.69727225 129.31210005 94.625 130.25 C95.73875 130.8275 96.8525 131.405 98 132 C98 132.99 98 133.98 98 135 C70.28 135 42.56 135 14 135 C14 133.68 14 132.36 14 131 C15.64333504 129.96210419 17.31243867 128.96432076 19 128 C21.00943922 124.90541066 21.25635028 122.40608804 21.2746582 118.76000977 C21.28419022 117.71535049 21.29372223 116.67069122 21.30354309 115.59437561 C21.30263168 114.47139572 21.30172028 113.34841583 21.30078125 112.19140625 C21.30720894 110.45309792 21.30720894 110.45309792 21.31376648 108.67967224 C21.31950828 106.22940728 21.32001115 103.77912527 21.31567383 101.32885742 C21.31251497 97.58027055 21.33597222 93.83247361 21.36132812 90.08398438 C21.36360123 87.703126 21.36430456 85.32226549 21.36328125 82.94140625 C21.372491 81.82045059 21.38170074 80.69949493 21.39118958 79.54457092 C21.38496078 78.49675949 21.37873199 77.44894806 21.37231445 76.36938477 C21.37294388 75.45101334 21.3735733 74.53264191 21.3742218 73.58644104 C20.916856 70.42534868 19.90472758 68.54872379 18 66 C14.38132441 64.7937748 11.07493749 64.89183082 7.3125 64.9375 C6.61060547 64.94201172 5.90871094 64.94652344 5.18554688 64.95117188 C3.45699462 64.96293073 1.72848635 64.98086546 0 65 C0.03811863 72.58929291 0.09756957 80.17816795 0.18390274 87.76706123 C0.22333303 91.29134041 0.25554282 94.81537141 0.27099609 98.33984375 C0.28910326 102.39623752 0.33907322 106.45170488 0.390625 110.5078125 C0.39185364 111.76739777 0.39308228 113.02698303 0.39434814 114.32473755 C0.49651529 122.97429185 0.49651529 122.97429185 5 130 C7.10039331 131.38868516 7.10039331 131.38868516 9 132 C8.67 132.99 8.34 133.98 8 135 C-4.87 135 -17.74 135 -31 135 C-31 134.01 -31 133.02 -31 132 C-29.01310269 130.64721885 -27.01254782 129.31431695 -25 128 C-24.06784667 125.20354 -23.86864959 123.49566335 -23.85282898 120.60401917 C-23.84567368 119.70536133 -23.83851837 118.80670349 -23.83114624 117.8808136 C-23.82845734 116.89735458 -23.82576843 115.91389557 -23.82299805 114.90063477 C-23.81642685 113.86298981 -23.80985565 112.82534485 -23.80308533 111.7562561 C-23.78335215 108.31797212 -23.77169165 104.87973174 -23.76171875 101.44140625 C-23.75764322 100.2686659 -23.7535677 99.09592556 -23.74936867 97.88764763 C-23.72851111 91.68445893 -23.71420616 85.48129236 -23.70483398 79.27807617 C-23.69375054 72.86065901 -23.65932714 66.44358678 -23.61966228 60.02629185 C-23.59356787 55.09957721 -23.58514869 50.17294581 -23.58155251 45.24616814 C-23.57667054 42.8798177 -23.56501114 40.51347137 -23.54651451 38.14718819 C-23.52226889 34.84076344 -23.52306129 31.53524545 -23.5300293 28.22875977 C-23.51721924 27.24732498 -23.50440918 26.2658902 -23.49121094 25.25471497 C-23.46784519 19.98775334 -23.46784519 19.98775334 -25.85749817 15.43882751 C-28.16212787 13.89112073 -30.36936926 12.87687691 -33 12 C-33 11.01 -33 10.02 -33 9 C-32.11699219 8.96261719 -31.23398438 8.92523438 -30.32421875 8.88671875 C-21.35760187 8.39552921 -13.48646367 6.82882122 -5 4 C-5 3.34 -5 2.68 -5 2 C-2 0 -2 0 0 0 Z " fill="#000000" transform="translate(166,5)"/>
<path d="M0 0 C3.4197563 1.62747438 7.15466983 2.73138932 10.9453125 2.92578125 C14.42448432 0.60633337 15.23961016 -1.33791839 16.9453125 -5.07421875 C17.6053125 -5.07421875 18.2653125 -5.07421875 18.9453125 -5.07421875 C19.05047508 12.28893283 19.11205349 29.59134361 17.9453125 46.92578125 C17.2853125 46.92578125 16.6253125 46.92578125 15.9453125 46.92578125 C15.77515625 46.17554688 15.605 45.4253125 15.4296875 44.65234375 C12.87657553 33.10602771 12.87657553 33.10602771 7.3203125 22.83203125 C5.9453125 20.92578125 5.9453125 20.92578125 5.9453125 17.92578125 C5.2853125 17.92578125 4.6253125 17.92578125 3.9453125 17.92578125 C0.9453125 14.46424279 0.9453125 14.46424279 0.9453125 11.92578125 C0.36136719 11.65636719 -0.22257812 11.38695313 -0.82421875 11.109375 C-3.0555889 9.92530292 -4.79671595 8.59115403 -6.7421875 6.98828125 C-14.00027582 1.47751049 -22.78629417 -0.56117021 -31.8203125 0.140625 C-38.24097826 1.06162214 -42.03939731 2.87086577 -47.0546875 6.92578125 C-47.7146875 6.92578125 -48.3746875 6.92578125 -49.0546875 6.92578125 C-49.7146875 8.57578125 -50.3746875 10.22578125 -51.0546875 11.92578125 C-51.7146875 11.92578125 -52.3746875 11.92578125 -53.0546875 11.92578125 C-58.48970864 26.16036042 -59.53529353 40.70125806 -59.39086914 55.79150391 C-59.36720518 58.42381476 -59.37034891 61.05510877 -59.37695312 63.6875 C-59.36419628 71.93631714 -59.107161 80.10619054 -58.1953125 88.30859375 C-58.12278763 88.98700317 -58.05026276 89.6654126 -57.97554016 90.36437988 C-57.20292472 96.50743818 -54.93666893 101.52332128 -52.0546875 106.92578125 C-51.7246875 107.91578125 -51.3946875 108.90578125 -51.0546875 109.92578125 C-50.3946875 109.92578125 -49.7346875 109.92578125 -49.0546875 109.92578125 C-48.5803125 110.64765625 -48.1059375 111.36953125 -47.6171875 112.11328125 C-42.82242806 117.3758221 -35.15074512 120.46299488 -28.0546875 120.92578125 C-27.39210938 120.98765625 -26.72953125 121.04953125 -26.046875 121.11328125 C-20.49494868 121.42279631 -16.40872226 120.18123061 -11.35546875 117.93359375 C-9.0546875 116.92578125 -9.0546875 116.92578125 -5.5546875 115.92578125 C-2.90680772 115.14588139 -2.90680772 115.14588139 -1.6796875 112.80078125 C-1.4734375 112.18203125 -1.2671875 111.56328125 -1.0546875 110.92578125 C-0.3946875 110.92578125 0.2653125 110.92578125 0.9453125 110.92578125 C1.2134375 110.28640625 1.4815625 109.64703125 1.7578125 108.98828125 C2.9453125 106.92578125 2.9453125 106.92578125 5.9453125 105.92578125 C6.0484375 105.18328125 6.1515625 104.44078125 6.2578125 103.67578125 C6.9453125 100.92578125 6.9453125 100.92578125 8.33203125 99.125 C14.12343966 91.23017449 16.04934681 80.34395227 17.9453125 70.92578125 C18.9353125 70.92578125 19.9253125 70.92578125 20.9453125 70.92578125 C20.6153125 90.06578125 20.2853125 109.20578125 19.9453125 128.92578125 C19.2853125 128.92578125 18.6253125 128.92578125 17.9453125 128.92578125 C17.59919922 128.09433594 17.59919922 128.09433594 17.24609375 127.24609375 C16.91996094 126.52164063 16.59382813 125.7971875 16.2578125 125.05078125 C15.94457031 124.33148438 15.63132812 123.6121875 15.30859375 122.87109375 C13.44709001 120.21485059 12.10229205 119.62633432 8.9453125 118.92578125 C5.83942798 119.62445518 5.83942798 119.62445518 2.6953125 121.05078125 C1.55578125 121.52257812 0.41625 121.994375 -0.7578125 122.48046875 C-4.20775233 123.99288313 -7.65403492 125.50828275 -11.0546875 127.12890625 C-22.64952498 131.74872431 -35.78518033 128.82511643 -47.0546875 124.92578125 C-47.81394531 124.68730469 -48.57320312 124.44882813 -49.35546875 124.203125 C-56.16280847 121.92491712 -62.1177181 117.88376085 -68.0546875 113.92578125 C-68.0546875 113.26578125 -68.0546875 112.60578125 -68.0546875 111.92578125 C-68.92867187 111.55453125 -68.92867187 111.55453125 -69.8203125 111.17578125 C-72.38582986 109.74052679 -73.89193548 108.14915112 -75.8046875 105.92578125 C-76.72507812 104.87390625 -76.72507812 104.87390625 -77.6640625 103.80078125 C-79.0546875 101.92578125 -79.0546875 101.92578125 -79.0546875 99.92578125 C-79.7146875 99.92578125 -80.3746875 99.92578125 -81.0546875 99.92578125 C-81.7250002 98.58515585 -82.39473238 97.24423868 -83.0625 95.90234375 C-83.79921291 94.43471882 -84.54551896 92.97190125 -85.296875 91.51171875 C-93.72515576 75.00425761 -94.36042894 55.89237288 -89.2421875 38.1015625 C-85.21323355 26.06506257 -78.17564256 16.59963067 -69.0546875 7.92578125 C-68.3946875 7.92578125 -67.7346875 7.92578125 -67.0546875 7.92578125 C-67.0546875 7.26578125 -67.0546875 6.60578125 -67.0546875 5.92578125 C-66.24644531 5.52746094 -65.43820313 5.12914062 -64.60546875 4.71875 C-63.53683594 4.18894531 -62.46820313 3.65914062 -61.3671875 3.11328125 C-59.78357422 2.33017578 -59.78357422 2.33017578 -58.16796875 1.53125 C-55.09022004 -0.00820221 -55.09022004 -0.00820221 -52.390625 -1.703125 C-37.8971602 -10.21015869 -14.08095901 -7.62964097 0 0 Z " fill="#000000" transform="translate(104.0546875,11.07421875)"/>
<path d="M0 0 C7.1084184 7.03588352 8.69546885 14.26789841 8.82775879 23.97561646 C8.83567444 25.5384285 8.83567444 25.5384285 8.84375 27.1328125 C8.8583728 28.22085175 8.87299561 29.30889099 8.88806152 30.42990112 C8.95008162 35.06399119 8.989953 39.69820992 9.03173828 44.33251953 C9.06549095 47.72442471 9.11058579 51.11605016 9.15625 54.5078125 C9.16416565 56.07669724 9.16416565 56.07669724 9.17224121 57.67727661 C9.18565552 58.65534271 9.19906982 59.63340881 9.21289062 60.64111328 C9.22382751 61.92515549 9.22382751 61.92515549 9.23498535 63.23513794 C9.54067438 66.06388789 10.21679928 68.14900434 11.5 70.6875 C14.51283733 73.00251804 14.51283733 73.00251804 17.5 74.6875 C17.005 76.1725 17.005 76.1725 16.5 77.6875 C-2.805 77.1925 -2.805 77.1925 -22.5 76.6875 C-22.83 75.6975 -23.16 74.7075 -23.5 73.6875 C-22.076875 73.378125 -22.076875 73.378125 -20.625 73.0625 C-17.35370078 72.01963078 -17.35370078 72.01963078 -16.32128906 69.3359375 C-15.1614656 64.1836183 -15.21477518 59.20312238 -15.234375 53.9375 C-15.23246155 52.80602539 -15.2305481 51.67455078 -15.22857666 50.50878906 C-15.22721851 48.12174252 -15.23088904 45.73468851 -15.23925781 43.34765625 C-15.24996228 39.70035157 -15.23934965 36.05353942 -15.2265625 32.40625 C-15.22788416 30.08333225 -15.23044669 27.7604148 -15.234375 25.4375 C-15.23032654 24.34985352 -15.22627808 23.26220703 -15.22210693 22.14160156 C-15.22841125 21.1203418 -15.23471558 20.09908203 -15.24121094 19.046875 C-15.24280212 18.15452148 -15.24439331 17.26216797 -15.24603271 16.34277344 C-15.45977825 13.05994775 -15.45977825 13.05994775 -17.5 7.6875 C-23.77 7.6875 -30.04 7.6875 -36.5 7.6875 C-36.39185583 15.31114235 -36.27974179 22.93470656 -36.16066074 30.55818558 C-36.10552345 34.09816693 -36.05211839 37.63815668 -36.00268555 41.17822266 C-35.94576415 45.24911313 -35.88128443 49.3198535 -35.81640625 53.390625 C-35.79969376 54.66053284 -35.78298126 55.93044067 -35.76576233 57.23883057 C-35.7358445 59.01021393 -35.7358445 59.01021393 -35.70532227 60.81738281 C-35.68200584 62.37625214 -35.68200584 62.37625214 -35.65821838 63.96661377 C-35.47112107 67.41656821 -35.47112107 67.41656821 -34.5 70.6875 C-31.01202512 72.48021391 -31.01202512 72.48021391 -27.5 73.6875 C-27.995 75.1725 -27.995 75.1725 -28.5 76.6875 C-42.03 77.0175 -55.56 77.3475 -69.5 77.6875 C-69.83 76.6975 -70.16 75.7075 -70.5 74.6875 C-69.95730469 74.47996094 -69.41460937 74.27242188 -68.85546875 74.05859375 C-68.14003906 73.75050781 -67.42460937 73.44242187 -66.6875 73.125 C-65.97980469 72.83496094 -65.27210938 72.54492188 -64.54296875 72.24609375 C-61.56052163 69.97076602 -60.4881136 67.20763193 -59.5 63.6875 C-59.08589194 59.86829835 -59.10278802 56.08068243 -59.13671875 52.2421875 C-59.13622025 51.15414825 -59.13572174 50.06610901 -59.13520813 48.94509888 C-59.13754075 46.65397304 -59.1472211 44.36284425 -59.16381836 42.07177734 C-59.18746862 38.56714986 -59.18436553 35.06328112 -59.17773438 31.55859375 C-59.18330981 29.32812047 -59.19041884 27.09765039 -59.19921875 24.8671875 C-59.19830734 23.82126434 -59.19739594 22.77534119 -59.19645691 21.69772339 C-59.20598892 20.71965729 -59.21552094 19.74159119 -59.2253418 18.73388672 C-59.22994919 17.87785858 -59.23455658 17.02183044 -59.23930359 16.13986206 C-59.53649131 13.3442275 -60.27878338 11.21350824 -61.5 8.6875 C-63.18046157 7.47223015 -63.18046157 7.47223015 -65.125 6.875 C-66.23875 6.483125 -67.3525 6.09125 -68.5 5.6875 C-68.5 4.6975 -68.5 3.7075 -68.5 2.6875 C-67.31664062 2.60113281 -66.13328125 2.51476562 -64.9140625 2.42578125 C-53.15638751 1.44176103 -53.15638751 1.44176103 -42.4453125 -3.2890625 C-40.5 -4.3125 -40.5 -4.3125 -36.5 -4.3125 C-36.005 -1.8375 -36.005 -1.8375 -35.5 0.6875 C-34.7265625 0.33816406 -33.953125 -0.01117188 -33.15625 -0.37109375 C-22.20110159 -5.157192 -10.13404012 -8.55059635 0 0 Z " fill="#000000" transform="translate(432.5,62.3125)"/>
<path d="M0 0 C1.53997547 1.18384079 3.06372564 2.38941152 4.5625 3.625 C5.92375 4.73875 5.92375 4.73875 7.3125 5.875 C15.1683646 15.47661229 19.25794259 27.10773942 18.3515625 39.51171875 C17.30099884 47.09361685 14.77599978 53.70738979 11.5625 60.625 C10.9025 60.625 10.2425 60.625 9.5625 60.625 C9.0675 62.605 9.0675 62.605 8.5625 64.625 C7.2425 64.955 5.9225 65.285 4.5625 65.625 C4.5625 66.615 4.5625 67.605 4.5625 68.625 C2.95544972 69.56826864 1.34274917 70.50258989 -0.2890625 71.40234375 C-2.45172966 72.59483855 -2.45172966 72.59483855 -4.4609375 74.00390625 C-12.65892648 79.05214157 -22.12572919 78.72765258 -31.4375 77.625 C-34.87190632 76.76867588 -37.48092992 75.53733469 -40.4375 73.625 C-41.10523438 73.274375 -41.77296875 72.92375 -42.4609375 72.5625 C-50.5937958 68.07540576 -57.40708548 60.46105076 -60.4375 51.625 C-63.51006712 39.58194954 -63.76801501 25.87971009 -57.85546875 14.609375 C-56.16429479 12.14814579 -54.39869215 9.87511778 -52.4375 7.625 C-51.65375 6.7175 -50.87 5.81 -50.0625 4.875 C-35.7522816 -7.39090148 -16.36821376 -11.16346229 0 0 Z M-34.45703125 5.88671875 C-43.06441824 17.7876621 -40.97605573 40.7510516 -38.78125 54.4921875 C-37.52086981 60.62014293 -35.71607976 66.10237529 -30.359375 69.7421875 C-25.78529809 71.84328787 -21.81774326 71.76778379 -16.8125 71.25 C-10.9867806 68.44502399 -8.66089648 63.81686901 -6.3984375 57.9140625 C-1.83627394 41.66934926 -2.20419928 19.60053123 -10.4375 4.625 C-12.47806739 2.1593144 -13.30723924 1.66842025 -16.4375 0.625 C-23.98815596 0.01720726 -29.18869726 -0.01340771 -34.45703125 5.88671875 Z " fill="#000000" transform="translate(350.4375,62.375)"/>
<path d="M0 0 C0.00423194 0.63537563 0.00846388 1.27075127 0.01282406 1.92538071 C0.11610773 17.38213941 0.22474209 32.83884984 0.33933926 48.29552841 C0.39462829 55.77024531 0.44810318 63.24496698 0.49731445 70.71972656 C0.54020922 77.23436688 0.58650054 83.74897267 0.63687855 90.26355958 C0.66343686 93.71329038 0.68828882 97.16301452 0.70907402 100.61278534 C0.73233514 104.46293197 0.76317899 108.31299744 0.79467773 112.16308594 C0.80331093 113.88075165 0.80331093 113.88075165 0.81211853 115.63311768 C0.82190735 116.68197144 0.83169617 117.7308252 0.84178162 118.8114624 C0.84823417 119.72219387 0.85468672 120.63292534 0.8613348 121.57125473 C0.99363562 123.88852679 1.19986179 125.82056368 2 128 C4.40952023 129.24714403 4.40952023 129.24714403 7 130 C7.66 130.33 8.32 130.66 9 131 C9 131.99 9 132.98 9 134 C-5.19 134 -19.38 134 -34 134 C-33.505 132.02 -33.505 132.02 -33 130 C-32.01 130 -31.02 130 -30 130 C-30 129.34 -30 128.68 -30 128 C-28.515 127.505 -28.515 127.505 -27 127 C-25.14367993 124.16950355 -24.74613259 121.89769376 -24.72584534 118.55296326 C-24.71587021 117.6683139 -24.70589508 116.78366455 -24.69561768 115.87220764 C-24.694953 114.90947433 -24.69428833 113.94674103 -24.69360352 112.95483398 C-24.68528 111.93494385 -24.67695648 110.91505371 -24.66838074 109.86425781 C-24.64427523 106.49149773 -24.63550944 103.11893084 -24.62890625 99.74609375 C-24.61994293 97.40487102 -24.61082114 95.06364889 -24.60154724 92.72242737 C-24.58505499 87.81566982 -24.57735623 82.90898055 -24.57446289 78.00219727 C-24.56906775 71.70454047 -24.53134137 65.40752165 -24.48571873 59.11004543 C-24.45603399 54.27600231 -24.44874126 49.44211473 -24.44773674 44.60798836 C-24.44352017 42.28546274 -24.43102885 39.96293724 -24.41021919 37.64050102 C-24.38347333 34.39844049 -24.38807975 31.15788461 -24.40063477 27.91577148 C-24.38580048 26.95101395 -24.37096619 25.98625641 -24.35568237 24.99226379 C-24.38264283 22.55725753 -24.44015372 20.36972744 -25 18 C-27.2519602 15.83420422 -27.2519602 15.83420422 -30 15 C-31.1446875 14.4121875 -31.1446875 14.4121875 -32.3125 13.8125 C-32.869375 13.544375 -33.42625 13.27625 -34 13 C-33.67 12.34 -33.34 11.68 -33 11 C-30.90742143 10.65073938 -28.79861012 10.3974574 -26.6875 10.1875 C-18.98580339 9.1884035 -10.51080528 7.53633841 -4.8515625 1.8359375 C-3 0 -3 0 0 0 Z " fill="#000000" transform="translate(589,6)"/>
<path d="M0 0 C3.84060829 2.75243594 6.85948139 5.70399812 9.609375 9.57421875 C10.145625 10.15171875 10.681875 10.72921875 11.234375 11.32421875 C15.29763677 17.97319255 14.86267479 26.04558624 14.609375 33.57421875 C11.70497739 34.54235129 9.8811926 34.69566709 6.86254883 34.68774414 C5.90177933 34.68766861 4.94100983 34.68759308 3.9511261 34.68751526 C2.91666855 34.68235397 1.882211 34.67719269 0.81640625 34.671875 C-0.77534172 34.66975258 -0.77534172 34.66975258 -2.39924622 34.66758728 C-5.79223435 34.66198481 -9.18515677 34.64943189 -12.578125 34.63671875 C-14.87695217 34.63170407 -17.17578038 34.62714111 -19.47460938 34.62304688 C-25.11330372 34.61201458 -30.75195966 34.59527405 -36.390625 34.57421875 C-35.65454149 37.14146083 -34.90248877 39.70212381 -34.140625 42.26171875 C-33.93566406 42.98294922 -33.73070312 43.70417969 -33.51953125 44.44726562 C-31.46266175 51.27233261 -28.05928319 55.97358474 -21.859375 59.6171875 C-16.07036357 61.86134541 -9.57479384 61.73511364 -3.765625 59.6171875 C0.97687578 57.09372847 7.15641072 53.48014731 9.609375 48.57421875 C10.599375 48.57421875 11.589375 48.57421875 12.609375 48.57421875 C13.38938956 54.65833231 11.04972253 58.76277918 7.609375 63.57421875 C5.18881785 66.32459777 2.59934942 68.46364857 -0.390625 70.57421875 C-1.20917969 71.156875 -2.02773438 71.73953125 -2.87109375 72.33984375 C-11.88253004 77.7797517 -22.16105752 78.32056791 -32.390625 76.57421875 C-42.46225818 72.94428231 -50.45682454 63.66226362 -55.390625 54.38671875 C-58.88379134 46.64413355 -58.59441614 38.91892953 -58.390625 30.57421875 C-58.39707031 29.73632812 -58.40351562 28.8984375 -58.41015625 28.03515625 C-58.11679874 19.45794145 -54.04444329 11.6010166 -48.32421875 5.296875 C-46.41611566 3.58428911 -44.48316705 2.05288872 -42.390625 0.57421875 C-41.6275 -0.00328125 -40.864375 -0.58078125 -40.078125 -1.17578125 C-26.98736895 -7.26450499 -12.58322915 -7.50470366 0 0 Z M-29.390625 4.57421875 C-29.390625 5.23421875 -29.390625 5.89421875 -29.390625 6.57421875 C-30.380625 6.90421875 -31.370625 7.23421875 -32.390625 7.57421875 C-35.10075497 13.49912357 -36.95649588 20.06228189 -37.390625 26.57421875 C-36.26634865 27.9252702 -36.26634865 27.9252702 -33.33959961 27.68774414 C-31.99071229 27.68758509 -30.64181886 27.68189487 -29.29296875 27.671875 C-28.58411026 27.67046005 -27.87525177 27.6690451 -27.14491272 27.66758728 C-24.87260788 27.66197318 -22.60040025 27.64941838 -20.328125 27.63671875 C-18.79101704 27.63170556 -17.25390755 27.62714234 -15.71679688 27.62304688 C-11.94136858 27.61199917 -8.16601329 27.59472516 -4.390625 27.57421875 C-4.53791049 25.99586282 -4.68824987 24.41779171 -4.83984375 22.83984375 C-4.92322998 21.96102539 -5.00661621 21.08220703 -5.0925293 20.17675781 C-5.93543658 12.81771474 -7.72569734 6.54578172 -13.703125 1.69921875 C-19.96884751 -0.92364184 -24.27599788 0.33282065 -29.390625 4.57421875 Z " fill="#000000" transform="translate(652.390625,63.42578125)"/>
<path d="M0 0 C3.31184927 2.81051429 5.2069782 5.69969621 6 10 C6 15.09252798 4.57296458 17.71920135 1.75 21.8125 C-1.08069712 23.73333019 -3.62564087 23.82842242 -7 24 C-10.65712651 23.29670644 -12.38149194 22.8202595 -14.640625 19.82421875 C-16.66454034 15.61936016 -16.4660928 11.65957189 -16.59375 7.05859375 C-17.03624439 3.72712157 -17.62568285 2.34110991 -20 0 C-24.856771 -1.28292064 -28.56066251 -1.46629861 -33 1 C-39.47768683 10.35665876 -39.99454412 23.92838387 -39 35 C-38.3766458 38.15097945 -37.62449221 41.21738272 -36.75390625 44.30859375 C-36.03929679 46.85971251 -35.48660035 49.39692435 -35 52 C-34.34 52 -33.68 52 -33 52 C-33 52.66 -33 53.32 -33 54 C-32.34 54 -31.68 54 -31 54 C-30.401875 54.61875 -29.80375 55.2375 -29.1875 55.875 C-25.97505719 58.99565873 -23.32999626 59.81000053 -18.9375 60.4375 C-10.10463806 59.4560709 -2.83572365 55.62355783 3.37890625 49.35546875 C5 48 5 48 8 48 C7.68380677 54.16576796 4.5597338 58.20644746 1 63 C0.41347656 63.83789062 -0.17304687 64.67578125 -0.77734375 65.5390625 C-5.98224052 71.30195348 -14.5999972 74.85918281 -22.296875 75.55078125 C-33.86569662 75.96850005 -43.07197262 72.23872187 -51.6875 64.625 C-60.30215273 54.846205 -64.12225684 44.11641189 -64 31 C-63.17187678 18.4724339 -57.17017605 7.44348285 -48 -1 C-34.09467284 -12.03769159 -13.77899731 -10.21209375 0 0 Z " fill="#000000" transform="translate(553,65)"/>
<path d="M0 0 C0.99 0.33 1.98 0.66 3 1 C4.09765625 3.58203125 4.09765625 3.58203125 5.0625 6.8125 C6.28681926 10.97725751 6.28681926 10.97725751 7.99609375 14.94921875 C9.41831376 17.85453199 10.13610507 20.88603654 11 24 C11.78827957 26.4246751 12.60081541 28.84159951 13.4375 31.25 C13.84871094 32.45140625 14.25992188 33.6528125 14.68359375 34.890625 C15.86404935 37.67888215 16.59120072 39.22712373 19 41 C19.66 41 20.32 41 21 41 C23.27440469 36.45119063 22.32017974 30.24362732 22.375 25.25 C22.41238281 23.97382813 22.44976562 22.69765625 22.48828125 21.3828125 C22.82663456 13.75955171 22.82663456 13.75955171 19.4140625 7.296875 C18.61742187 6.53890625 17.82078125 5.7809375 17 5 C17.33 4.01 17.66 3.02 18 2 C22.29 2 26.58 2 31 2 C31.495 3.98 31.495 3.98 32 6 C32.99 6.33 33.98 6.66 35 7 C36.1875 9.5625 36.1875 9.5625 37 12 C37.66 12 38.32 12 39 12 C39.4021875 13.2065625 39.4021875 13.2065625 39.8125 14.4375 C40.4003125 15.7059375 40.4003125 15.7059375 41 17 C42.485 17.495 42.485 17.495 44 18 C45.1875 20.5625 45.1875 20.5625 46 23 C46.66 23 47.32 23 48 23 C48.05382106 20.37472811 48.09358313 17.75055287 48.125 15.125 C48.15013672 14.00544922 48.15013672 14.00544922 48.17578125 12.86328125 C48.1933959 10.90805539 48.10320189 8.95257979 48 7 C47.01 6.01 47.01 6.01 46 5 C46 3.68 46 2.36 46 1 C48.97 1 51.94 1 55 1 C55 5 55 5 54.01220703 6.74707031 C52.50476648 10.10227084 52.7546809 13.43810615 52.8046875 17.046875 C52.80893234 18.20367767 52.80893234 18.20367767 52.81326294 19.3838501 C52.82442987 21.83939332 52.84952771 24.2945676 52.875 26.75 C52.88503432 28.41796347 52.89415939 30.08593268 52.90234375 31.75390625 C52.92435775 35.83607897 52.95886333 39.917977 53 44 C49 44 49 44 46.859375 41.8828125 C46.16328125 40.97273438 45.4671875 40.06265625 44.75 39.125 C44.04359375 38.22007813 43.3371875 37.31515625 42.609375 36.3828125 C41 34 41 34 41 32 C40.34 32 39.68 32 39 32 C37.76318359 30.71484375 37.76318359 30.71484375 36.3984375 28.9375 C35.95677246 28.36902344 35.51510742 27.80054687 35.06005859 27.21484375 C34.50398926 26.48394531 33.94791992 25.75304687 33.375 25 C31.60125 22.69 29.8275 20.38 28 18 C28 25.26 28 32.52 28 40 C29.32 40.66 30.64 41.32 32 42 C31.67 43.32 31.34 44.64 31 46 C20.77 46 10.54 46 0 46 C0.33 44.68 0.66 43.36 1 42 C1.66 41.67 2.32 41.34 3 41 C3.33 39.35 3.66 37.7 4 36 C-0.29 36 -4.58 36 -9 36 C-8.34 37.98 -7.68 39.96 -7 42 C-6.01 42.495 -6.01 42.495 -5 43 C-5.33 43.99 -5.66 44.98 -6 46 C-8.06242617 46.02717692 -10.12495703 46.0464758 -12.1875 46.0625 C-13.33605469 46.07410156 -14.48460937 46.08570313 -15.66796875 46.09765625 C-19 46 -19 46 -21.75390625 45.43359375 C-24.12054901 44.77726708 -24.12054901 44.77726708 -26.75 46 C-32.50640287 47.77120088 -37.81060123 46.76536096 -43.25 44.3125 C-49.33942467 40.92276062 -52.63165257 36.00882224 -54.5546875 29.421875 C-55.86041518 22.320549 -54.312022 16.09888464 -50.59765625 9.98046875 C-47.27546379 5.86224973 -42.94605018 3.64868339 -38 2 C-31.61671215 1.34530381 -26.84317533 2.45025077 -21 5 C-20.67 3.68 -20.34 2.36 -20 1 C-19.34 1.33 -18.68 1.66 -18 2 C-18 7.94 -18 13.88 -18 20 C-21 19 -21 19 -22.0625 17.2578125 C-22.371875 16.55398437 -22.68125 15.85015625 -23 15.125 C-24.30464909 12.17866748 -25.50560449 10.08075203 -28 8 C-31.65628566 6.88721741 -33.31539221 6.68051637 -36.8125 8.3125 C-39.08915626 9.81578588 -39.08915626 9.81578588 -40 12 C-40.66 12 -41.32 12 -42 12 C-43.40753293 21.67678887 -44.0711954 29.24571012 -39 38 C-36.61874088 40.38125912 -35.89292462 40.34521641 -32.625 40.4375 C-29.15908888 40.34863048 -28.32990389 40.28649548 -25.625 37.9375 C-23.82184758 34.67795524 -22.35984745 31.467611 -21 28 C-20.01 28 -19.02 28 -18 28 C-18 32.95 -18 37.9 -18 43 C-13.35306255 37.19132819 -11.16753481 32.06904696 -9.53125 24.96484375 C-9 23 -9 23 -7.5 19.5625 C-6.29569713 16.70228069 -5.63431366 14.49063603 -5.0625 11.5 C-4.16571174 7.03138842 -2.44426484 3.82934825 0 0 Z M-4 21 C-5.485 26.445 -5.485 26.445 -7 32 C-4.36 32 -1.72 32 1 32 C0.69078116 30.54096742 0.37751201 29.08279278 0.0625 27.625 C-0.11152344 26.81289063 -0.28554688 26.00078125 -0.46484375 25.1640625 C-0.92330693 22.970537 -0.92330693 22.970537 -2 21 C-2.66 21 -3.32 21 -4 21 Z " fill="#000000" transform="translate(365,0)"/>
<path d="M0 0 C1.32 0.33 2.64 0.66 4 1 C4.00546844 2.36183159 4.00546844 2.36183159 4.01104736 3.75117493 C4.04888899 12.30054023 4.10569776 20.84952257 4.18390274 29.39861774 C4.22343911 33.79399946 4.25559713 38.18917899 4.27099609 42.5847168 C4.28612246 46.82543931 4.32049537 51.06560621 4.36830902 55.30608177 C4.38316456 56.92517459 4.3910434 58.54434671 4.39188385 60.16350746 C4.39424289 62.4290273 4.42123259 64.69299824 4.45410156 66.95825195 C4.46298401 68.24842728 4.47186646 69.5386026 4.48101807 70.86787415 C4.70071799 74.05575772 4.70071799 74.05575772 6.84661865 75.87760925 C9.08341671 77.11561936 9.08341671 77.11561936 12 78 C12 78.99 12 79.98 12 81 C-1.2 81 -14.4 81 -28 81 C-28 80.01 -28 79.02 -28 78 C-25.625 76.4375 -25.625 76.4375 -23 75 C-20.75696329 73.17990211 -20.75696329 73.17990211 -20.75949097 70.55758667 C-20.76393219 69.53166412 -20.76837341 68.50574158 -20.77294922 67.44873047 C-20.77310028 66.28767792 -20.77325134 65.12662537 -20.77340698 63.9303894 C-20.78372955 62.67203278 -20.79405212 61.41367615 -20.8046875 60.1171875 C-20.8075174 58.83264679 -20.81034729 57.54810608 -20.81326294 56.22463989 C-20.82090191 52.80837233 -20.84055248 49.39227463 -20.8626709 45.97607422 C-20.88312376 42.49058327 -20.89226345 39.0050649 -20.90234375 35.51953125 C-20.92379825 28.67961769 -20.95793729 21.839817 -21 15 C-21.99 14.67 -22.98 14.34 -24 14 C-24 13.34 -24 12.68 -24 12 C-25.65 11.67 -27.3 11.34 -29 11 C-29 10.34 -29 9.68 -29 9 C-28.17757813 8.89042969 -27.35515625 8.78085938 -26.5078125 8.66796875 C-19.42761018 7.6623511 -12.77440396 6.28254692 -6 4 C-4.80375 3.608125 -3.6075 3.21625 -2.375 2.8125 C-1.59125 2.544375 -0.8075 2.27625 0 2 C0 1.34 0 0.68 0 0 Z " fill="#000000" transform="translate(481,58)"/>
<path d="M0 0 C0.99 -0.99 1.98 -1.98 3 -3 C3 2.94 3 8.88 3 15 C-1 10 -1 10 -2.45703125 7.98046875 C-5.05320508 4.5463368 -6.20133607 3.15412813 -10.5625 2.3125 C-14.62809663 3.12561933 -16.26689407 3.87645036 -19 7 C-22.14100763 15.82473573 -21.81267643 23.49479874 -18 32 C-16.22210149 35.42573253 -16.22210149 35.42573253 -12.125 35.8125 C-8.77416239 36.25205855 -6.79627652 35.95963957 -4 34 C-2.22289539 31.38622957 -2.22289539 31.38622957 -0.75 28.375 C-0.22921875 27.37210938 0.2915625 26.36921875 0.828125 25.3359375 C1.21484375 24.56507812 1.6015625 23.79421875 2 23 C2.66 23.33 3.32 23.66 4 24 C4 29.61 4 35.22 4 41 C2.02 40.67 0.04 40.34 -2 40 C-2.763125 40.309375 -3.52625 40.61875 -4.3125 40.9375 C-8.86501531 42.73733163 -13.48735356 42.84516289 -18.1484375 41.27734375 C-22.65529149 39.14479023 -26.39400599 36.43009186 -30 33 C-30.33 32.01 -30.66 31.02 -31 30 C-31.20496094 30.71027344 -31.40992188 31.42054687 -31.62109375 32.15234375 C-31.89050781 33.07144531 -32.15992188 33.99054687 -32.4375 34.9375 C-32.70433594 35.85402344 -32.97117187 36.77054688 -33.24609375 37.71484375 C-34 40 -34 40 -35 41 C-37.3756852 41.0883967 -39.72208674 41.11530305 -42.09765625 41.09765625 C-43.16094398 41.09553383 -43.16094398 41.09553383 -44.24571228 41.09336853 C-46.51801712 41.08775443 -48.79022475 41.07519963 -51.0625 41.0625 C-52.59960796 41.05748681 -54.13671745 41.05292359 -55.67382812 41.04882812 C-59.44925642 41.03778042 -63.22461171 41.02050641 -67 41 C-67 40.01 -67 39.02 -67 38 C-66.01 37.34 -65.02 36.68 -64 36 C-63.51497917 32.86463145 -63.51497917 32.86463145 -63.56640625 29.1640625 C-63.5611644 28.4883017 -63.55592255 27.81254089 -63.55052185 27.11630249 C-63.54409537 25.68562189 -63.54544683 24.25488849 -63.55395508 22.82421875 C-63.56244304 20.63966006 -63.53375612 18.45773604 -63.50195312 16.2734375 C-63.50034038 14.88281328 -63.50092004 13.49218445 -63.50390625 12.1015625 C-63.50205322 10.83650879 -63.5002002 9.57145508 -63.49829102 8.26806641 C-64.0870839 4.43274693 -65.17005848 3.50606848 -68 1 C-68 0.01 -68 -0.98 -68 -2 C-57.77 -2 -47.54 -2 -37 -2 C-33.625 5.875 -33.625 5.875 -34 11 C-36.48347479 9.93565366 -37.90016173 9.12287788 -39.625 7 C-43.33764235 3.87356434 -47.24985502 3.75002289 -52 3 C-52 7.62 -52 12.24 -52 17 C-46.99447626 15.131071 -46.99447626 15.131071 -44.25 11.375 C-43.51721146 10.23871397 -42.77177794 9.11017288 -42 8 C-41.67 8 -41.34 8 -41 8 C-41 14.93 -41 21.86 -41 29 C-41.66 29 -42.32 29 -43 29 C-43.495 26.525 -43.495 26.525 -44 24 C-46.64 23.34 -49.28 22.68 -52 22 C-52 26.95 -52 31.9 -52 37 C-49.89625 36.7525 -47.7925 36.505 -45.625 36.25 C-44.44164062 36.11078125 -43.25828125 35.9715625 -42.0390625 35.828125 C-38.91861193 35.33109036 -38.91861193 35.33109036 -37.6796875 33.0625 C-37.34324219 32.0415625 -37.34324219 32.0415625 -37 31 C-35.5 28.75 -35.5 28.75 -34 27 C-33.34 27 -32.68 27 -32 27 C-32.495 26.01 -32.495 26.01 -33 25 C-33.92112934 16.03031433 -32.32080266 10.29750933 -26.875 3.25 C-17.95653462 -3.72966856 -10.37424429 -3.89034161 0 0 Z " fill="#000000" transform="translate(306,5)"/>
<path d="M0 0 C4.00123806 0.02298008 7.99968139 0.10053655 12 0.1875 C13.12535156 0.19330078 14.25070313 0.19910156 15.41015625 0.20507812 C23.50433825 0.41808291 28.65997971 1.86498775 34.55053711 7.47729492 C39.37849059 12.77776066 39.29769621 18.43211322 39.21484375 25.28125 C38.80839384 30.42468886 37.08933337 33.6988518 33.75 37.6875 C23.70203431 46.13692569 13.63259644 45.17820277 1 45 C1 41 1 41 3 39 C3.43265029 35.02548374 3.13127566 30.98998458 3 27 C2.96302002 25.77531006 2.96302002 25.77531006 2.92529297 24.52587891 C2.83874568 21.82906526 2.73476732 19.13346289 2.625 16.4375 C2.5943042 15.55658691 2.5636084 14.67567383 2.53198242 13.76806641 C2.49306885 12.93581543 2.45415527 12.10356445 2.4140625 11.24609375 C2.3826416 10.50029053 2.3512207 9.7544873 2.31884766 8.98608398 C2.09071128 6.68561915 2.09071128 6.68561915 0 4 C0 2.68 0 1.36 0 0 Z M14 6 C14 17.22 14 28.44 14 40 C21.36007941 39.80759538 21.36007941 39.80759538 23.83984375 37.4765625 C24.20207031 36.86554687 24.56429687 36.25453125 24.9375 35.625 C25.31777344 35.01914062 25.69804687 34.41328125 26.08984375 33.7890625 C29.02609669 28.01737217 29.07985598 20.69733298 27.28125 14.5390625 C25.35955638 10.37022716 23.41444416 7.72270992 19 6 C17.35 6 15.7 6 14 6 Z " fill="#000000" transform="translate(202,2)"/>
<path d="M0 0 C3.0625 2.375 3.0625 2.375 5 5 C5.66 5.66 6.32 6.32 7 7 C7.5024386 10.22681684 7.4167114 13.4884991 7.4375 16.75 C7.48680664 18.09191406 7.48680664 18.09191406 7.53710938 19.4609375 C7.57312173 23.90027853 7.48932851 27.02019672 4.62109375 30.55078125 C0.87565893 34.05061378 -1.25158348 35 -6.375 35 C-11.66573459 33.54048701 -15.31106273 30.89446847 -18.10546875 26.10546875 C-20.34751841 20.768759 -21.15714805 15.40923189 -19.2734375 9.859375 C-15.23844525 1.00207493 -9.64393491 -1.72575677 0 0 Z " fill="#000000" transform="translate(478,12)"/>
</svg>
