<svg width="40" height="34" viewBox="0 0 40 34" fill="none" xmlns="http://www.w3.org/2000/svg">
<path d="M20.0047 29.5854C26.0813 29.583 31.0124 24.6424 31.0089 18.5658C31.0066 12.4895 26.071 7.55812 19.9945 7.56153C13.9182 7.56385 8.98256 12.4991 8.98511 18.576C8.98777 24.6519 13.9277 29.5879 20.0047 29.5854ZM19.9957 8.51391C25.5575 8.51158 30.0544 13.0047 30.057 18.5666C30.0593 24.1284 25.5654 28.6304 20.0042 28.633C14.4428 28.6353 9.94043 24.1368 9.93788 18.5751C9.93555 13.0134 14.4337 8.51561 19.9957 8.51391Z" fill="#B6F214"/>
<path d="M34.0547 10.4459C35.1648 10.4456 36.0636 9.52154 36.0633 8.40683C36.063 7.28906 35.1628 6.36431 34.0527 6.36499C32.9425 6.36532 32.0437 7.29076 32.0441 8.40879C32.0447 9.52316 32.9446 10.4466 34.0547 10.4459ZM34.0534 7.31763C34.6386 7.3173 35.1107 7.79229 35.111 8.40777C35.1114 9.01729 34.6397 9.49365 34.0544 9.49391C33.4691 9.49391 32.9971 9.01758 32.9967 8.4087C32.9964 7.79254 33.4681 7.31754 34.0534 7.31754V7.31763Z" fill="#B6F214"/>
<path d="M3.7684 33.9775L36.2395 33.9635C38.3089 33.9625 40.0006 32.236 40 30.1384L39.9904 6.99122C39.9894 4.89326 38.2967 3.168 36.2269 3.16868L10.9743 3.17931V2.91259C10.974 1.59226 9.91005 0.49413 8.59704 0.494385L5.23521 0.495713C3.92186 0.496046 2.8546 1.59384 2.85528 2.91587V3.29587C1.21607 3.71174 -0.00101977 5.22538 6.41154e-07 7.00778L0.00963341 30.1549C0.0102978 32.2522 1.69901 33.9785 3.76806 33.9775L3.7684 33.9775ZM5.23592 1.44853L8.59774 1.4472C9.37966 1.44687 10.0221 2.09991 10.0221 2.91336V3.18009L3.80794 3.18241V2.91569C3.80794 2.10421 4.454 1.44851 5.23592 1.44851V1.44853ZM3.32894 4.16997C3.37478 4.1703 3.42028 4.16365 3.46413 4.15103C3.55946 4.1404 3.65744 4.13476 3.7561 4.13476L10.4213 4.13177C10.4728 4.1404 10.5246 4.1404 10.5761 4.13177L36.2275 4.12114C37.7674 4.1208 39.0376 5.40362 39.0387 6.99172L39.048 30.1389C39.0483 31.7266 37.7798 33.0107 36.2395 33.0111L3.7684 33.025C2.22852 33.0253 0.963298 31.7432 0.962278 30.1544L0.952977 7.00728C0.952645 5.57038 1.99601 4.3822 3.32926 4.16961L3.32894 4.16997Z" fill="#B6F214"/>
<path d="M32.2305 30.8176H32.2438L34.6915 30.8166C35.029 30.8166 35.31 30.808 35.5701 30.7591C35.8305 30.71 36.0896 30.6077 36.2842 30.408C36.6748 30.0091 36.6904 29.4753 36.6904 28.7352L36.6884 23.6448C36.6921 23.3821 36.4818 23.1659 36.2188 23.1619H36.2048C35.9421 23.1662 35.7318 23.3824 35.7358 23.6448L35.7378 28.7352C35.7381 29.4281 35.6474 29.6971 35.6029 29.7424C35.581 29.7646 35.5405 29.7952 35.393 29.8234C35.2449 29.8517 35.0077 29.8643 34.6905 29.8649L32.2428 29.8659C31.98 29.8623 31.7638 30.0725 31.7598 30.3356C31.7565 30.598 31.9674 30.8143 32.2305 30.8176L32.2305 30.8176Z" fill="#B6F214"/>
<path d="M15.142 19.0557C15.4047 19.0594 15.621 18.8491 15.625 18.5861V18.5728C15.624 16.1543 17.5755 14.2005 19.9992 14.1995C20.2619 14.2031 20.4782 13.9929 20.4822 13.7298C20.4858 13.4671 20.2756 13.2508 20.0125 13.2468H19.9992C17.0612 13.2482 14.6716 15.6391 14.6729 18.5731C14.6686 18.8362 14.8789 19.0524 15.1419 19.0557L15.142 19.0557Z" fill="#B6F214"/>
</svg>
