<svg width="50" height="50" viewBox="0 0 50 50" fill="none" xmlns="http://www.w3.org/2000/svg">
<g clip-path="url(#clip0_1490_1851)">
<path d="M7.37214 32.15V26.9667H42.6263V32.15M41.1971 10.8937H44.3076M40.5534 18.0271L42.7513 20.2271M40.5534 3.7625L42.7513 1.5625M8.8013 10.8937H5.69089M9.44505 18.0271L7.24505 20.2271M9.44505 3.7625L7.24505 1.5625M24.9992 20.4396V31.1146M1.66797 42.9937C1.66797 44.4375 2.24151 45.8222 3.26241 46.8431C4.28331 47.864 5.66795 48.4375 7.11172 48.4375C8.55549 48.4375 9.94013 47.864 10.961 46.8431C11.9819 45.8222 12.5555 44.4375 12.5555 42.9937C12.5555 41.55 11.9819 40.1653 10.961 39.1444C9.94013 38.1235 8.55549 37.55 7.11172 37.55C5.66795 37.55 4.28331 38.1235 3.26241 39.1444C2.24151 40.1653 1.66797 41.55 1.66797 42.9937ZM19.8138 37.8542H30.1826V48.2229H19.8138V37.8542ZM48.3305 48.2229H35.8867L42.1076 36.8167L48.3305 48.2229ZM32.7763 9.55208C32.7787 8.14937 32.4017 6.77211 31.6852 5.56619C30.9687 4.36027 29.9394 3.37058 28.7063 2.70196C27.4732 2.03333 26.0822 1.71066 24.6807 1.76812C23.2791 1.82558 21.9192 2.26103 20.745 3.02835C19.5707 3.79567 18.6259 4.86629 18.0105 6.12682C17.3951 7.38734 17.1321 8.79084 17.2494 10.1886C17.3666 11.5865 17.8597 12.9265 18.6764 14.067C19.4932 15.2074 20.6032 16.1057 21.8888 16.6667V20.4396H28.1096V16.6688C29.4954 16.0649 30.6749 15.0701 31.5038 13.806C32.3327 12.542 32.7749 11.0637 32.7763 9.55208Z" stroke="url(#paint0_linear_1490_1851)" stroke-width="3" stroke-linecap="round" stroke-linejoin="round"/>
</g>
<defs>
<linearGradient id="paint0_linear_1490_1851" x1="48.3305" y1="25" x2="1.66797" y2="25" gradientUnits="userSpaceOnUse">
<stop stop-color="#72AFDD"/>
<stop offset="1" stop-color="#E78667"/>
</linearGradient>
<clipPath id="clip0_1490_1851">
<rect width="50" height="50" fill="white"/>
</clipPath>
</defs>
</svg>
