<svg width="51" height="50" viewBox="0 0 51 50" fill="none" xmlns="http://www.w3.org/2000/svg">
<path fill-rule="evenodd" clip-rule="evenodd" d="M17.575 6.575C13.6862 8.25423 10.426 11.1171 8.25833 14.7562H14.499C14.9885 12.5875 15.6344 10.5938 16.4115 8.84271C16.7549 8.06483 17.1434 7.30765 17.575 6.575ZM5.44792 25C5.44792 23.4479 5.625 21.9365 5.95833 20.4854H13.6104C13.4754 21.9865 13.4083 23.4929 13.4094 25C13.4094 26.5375 13.4771 28.0469 13.6104 29.5125H5.95729C5.61762 28.0324 5.44674 26.5186 5.44792 25ZM8.25729 35.2417C10.4249 38.8818 13.6855 41.7454 17.575 43.425C17.1434 42.6924 16.7549 41.9352 16.4115 41.1573C15.6333 39.4062 14.9885 37.4115 14.499 35.2417H8.25729ZM19.8604 35.2417C20.1965 36.5413 20.635 37.8123 21.1719 39.0427C21.9417 40.776 22.7906 42.0167 23.6031 42.7896C24.401 43.55 25.0375 43.75 25.499 43.75C25.9604 43.75 26.5979 43.55 27.3969 42.7896C28.2083 42.0167 29.0583 40.776 29.8281 39.0427C30.325 37.9229 30.7677 36.6469 31.1396 35.2417H19.8604ZM36.501 35.2417C36.0115 37.4115 35.3656 39.4062 34.5875 41.1573C34.2441 41.9352 33.8555 42.6924 33.424 43.425C37.3138 41.7456 40.5748 38.8819 42.7427 35.2417H36.501ZM45.0427 29.5125H37.3896C37.5245 28.0121 37.5916 26.5064 37.5906 25C37.5906 23.4615 37.5219 21.9521 37.3896 20.4854H45.0417C45.375 21.9365 45.5521 23.4479 45.5521 25C45.5521 26.5521 45.375 28.0625 45.0417 29.5125M32.1562 29.5125H18.8417C18.6912 28.0131 18.6164 26.507 18.6177 25C18.6177 23.4375 18.6958 21.9271 18.8427 20.4854H32.1562C32.3021 21.9271 32.3813 23.4385 32.3813 25C32.3813 26.5615 32.3031 28.0708 32.1562 29.5125ZM36.5 14.7562H42.7406C40.5726 11.1169 37.3121 8.25405 33.4229 6.575C33.8458 7.2875 34.2333 8.04896 34.5865 8.84271C35.3646 10.5927 36.0094 12.5875 36.499 14.7562M21.1698 10.9573C20.633 12.187 20.1945 13.4573 19.8583 14.7562H31.1365C30.8006 13.4573 30.3624 12.187 29.826 10.9573C29.0552 9.22396 28.2062 7.98333 27.3948 7.21042C26.5979 6.45 25.9615 6.25 25.5 6.25C25.0385 6.25 24.401 6.45 23.6031 7.21042C22.7906 7.98333 21.9417 9.22396 21.1719 10.9573M25.5 0.78125C12.125 0.78125 1.28125 11.625 1.28125 25C1.28125 38.375 12.125 49.2188 25.5 49.2188C38.875 49.2188 49.7188 38.375 49.7188 25C49.7188 11.625 38.875 0.78125 25.5 0.78125Z" fill="url(#paint0_linear_1490_1922)"/>
<defs>
<linearGradient id="paint0_linear_1490_1922" x1="49.7188" y1="25" x2="1.28125" y2="25" gradientUnits="userSpaceOnUse">
<stop stop-color="#72AFDD"/>
<stop offset="1" stop-color="#E78667"/>
</linearGradient>
</defs>
</svg>
