<?xml version="1.0" encoding="UTF-8"?>
<svg version="1.1" xmlns="http://www.w3.org/2000/svg" width="185" height="185">
<path d="M0 0 C1.06413463 0.02839399 1.06413463 0.02839399 2.14976692 0.0573616 C2.88396795 0.07798031 3.61816898 0.09859901 4.37461853 0.11984253 C5.94286885 0.12295235 7.51113513 0.12119 9.07937622 0.11497498 C13.30104043 0.11184222 17.5192067 0.17610991 21.74006367 0.25328851 C26.16410478 0.3224578 30.58824267 0.32854587 35.01274109 0.34156799 C43.37481777 0.3756407 51.73529623 0.46574384 60.09667182 0.57641238 C69.62253967 0.69973343 79.14848736 0.75993621 88.67495584 0.81506217 C108.25659534 0.92977604 127.83604633 1.13134802 147.41661072 1.36862183 C147.41661072 19.51862183 147.41661072 37.66862183 147.41661072 56.36862183 C143.12661072 56.36862183 138.83661072 56.36862183 134.41661072 56.36862183 C134.41661072 60.32862183 134.41661072 64.28862183 134.41661072 68.36862183 C82.27661072 68.36862183 30.13661072 68.36862183 -23.58338928 68.36862183 C-23.58338928 49.88862183 -23.58338928 31.40862183 -23.58338928 12.36862183 C-9.70703842 -0.35136646 -9.70703842 -0.35136646 0 0 Z M-4.58338928 6.36862183 C-4.58338928 20.88862183 -4.58338928 35.40862183 -4.58338928 50.36862183 C43.92661072 50.36862183 92.43661072 50.36862183 142.41661072 50.36862183 C142.41661072 35.84862183 142.41661072 21.32862183 142.41661072 6.36862183 C93.90661072 6.36862183 45.39661072 6.36862183 -4.58338928 6.36862183 Z M-11.58338928 9.36862183 C-13.06838928 11.34862183 -13.06838928 11.34862183 -14.58338928 13.36862183 C-13.26338928 13.36862183 -11.94338928 13.36862183 -10.58338928 13.36862183 C-10.91338928 12.04862183 -11.24338928 10.72862183 -11.58338928 9.36862183 Z M-18.58338928 19.36862183 C-18.58338928 32.23862183 -18.58338928 45.10862183 -18.58338928 58.36862183 C-10.47030928 53.60550063 -10.47030928 53.60550063 -9.67518616 48.65817261 C-9.67643578 47.29277115 -9.72068017 45.92690428 -9.80213928 44.56393433 C-9.81345886 43.83995453 -9.82477844 43.11597473 -9.83644104 42.37005615 C-9.88095641 40.07512744 -9.98122061 37.78663389 -10.08338928 35.49362183 C-10.12355071 33.93121262 -10.16004689 32.36870463 -10.19276428 30.80612183 C-10.28060326 26.99117179 -10.41843434 23.18098435 -10.58338928 19.36862183 C-13.22338928 19.36862183 -15.86338928 19.36862183 -18.58338928 19.36862183 Z M-14.58338928 62.36862183 C-14.58338928 62.69862183 -14.58338928 63.02862183 -14.58338928 63.36862183 C32.60661072 63.36862183 79.79661072 63.36862183 128.41661072 63.36862183 C128.41661072 61.05862183 128.41661072 58.74862183 128.41661072 56.36862183 C110.80539315 56.2283631 93.19435026 56.12260775 75.58270168 56.05774879 C67.40499623 56.02683103 59.22763812 55.98469088 51.05015564 55.91598511 C43.92133872 55.85611867 36.7927734 55.81745754 29.66371208 55.80409086 C25.88994671 55.7962791 22.11690098 55.777965 18.34336662 55.73424149 C14.78829783 55.69338471 11.23424208 55.68097832 7.6789608 55.68997574 C5.75860518 55.68754902 3.83835886 55.65532824 1.91828918 55.62210083 C-5.29754006 55.67367688 -10.01502189 56.41910583 -14.58338928 62.36862183 Z " fill="#FF0000" transform="translate(30.583389282226563,57.631378173828125)"/>
<path d="M0 0 C0.66 0.66 1.32 1.32 2 2 C2.33 1.34 2.66 0.68 3 0 C8.33333333 0 13.66666667 0 19 0 C19.94875 -0.20625 20.8975 -0.4125 21.875 -0.625 C25.17106399 -1.02052768 26.33263648 -0.87703359 29 1 C30.88077284 4.76154568 30.22802645 9.29823274 30.25 13.4375 C30.270625 14.40494141 30.29125 15.37238281 30.3125 16.36914062 C30.32023437 17.76229492 30.32023437 17.76229492 30.328125 19.18359375 C30.34214355 20.46061157 30.34214355 20.46061157 30.35644531 21.76342773 C29.9231086 24.48246723 29.16989712 25.35650812 27 27 C24.27492202 27.39078556 21.76878044 27.13616953 19 27 C15.98332915 21.98013301 15.61285378 18.28676196 15.8125 12.625 C15.83280273 11.52091797 15.83280273 11.52091797 15.85351562 10.39453125 C15.88855131 8.59603257 15.94234712 6.79791578 16 5 C14.68 5 13.36 5 12 5 C12 12.26 12 19.52 12 27 C10.35 27 8.7 27 7 27 C7 19.74 7 12.48 7 5 C5.68 5 4.36 5 3 5 C2.67 6.32 2.34 7.64 2 9 C-0.475 8.505 -0.475 8.505 -3 8 C-3 7.01 -3 6.02 -3 5 C-3.66 5 -4.32 5 -5 5 C-2.93772733 8.60897718 -0.61520919 11.77457533 2 15 C3.40457737 17.80915474 3.24895157 19.88810534 3 23 C2 25.375 2 25.375 0 27 C-2.84683105 27.46573923 -5.06787431 27.27925007 -8 27 C-8.66 26.34 -9.32 25.68 -10 25 C-10.33 25.66 -10.66 26.32 -11 27 C-12.66611905 27.042721 -14.33382885 27.04063832 -16 27 C-17 26 -17 26 -17.09765625 23.71484375 C-17.08605469 22.79832031 -17.07445313 21.88179687 -17.0625 20.9375 C-17.05347656 20.01839844 -17.04445313 19.09929687 -17.03515625 18.15234375 C-17.01775391 17.08693359 -17.01775391 17.08693359 -17 16 C-17.66 16 -18.32 16 -19 16 C-19 19.63 -19 23.26 -19 27 C-20.98 27 -22.96 27 -25 27 C-25 18.09 -25 9.18 -25 0 C-21.37 0 -17.74 0 -14 0 C-10.85487673 4.1934977 -10.65070631 4.71379812 -10.875 9.5625 C-11.00868746 12.84675515 -11.0492581 14.85222569 -10 18 C-8.35 18 -6.7 18 -5 18 C-5 19.32 -5 20.64 -5 22 C-4.34 22 -3.68 22 -3 22 C-3.96928076 18.21099341 -4.6436456 16.31393126 -7.625 13.6875 C-10.59438032 10.32741174 -10.68688028 8.39197757 -10.41796875 4.03125 C-10 2 -10 2 -8.375 -0.125 C-5.19868478 -1.2952214 -3.22753103 -0.91212834 0 0 Z M-19 5 C-19 6.98 -19 8.96 -19 11 C-18.34 11 -17.68 11 -17 11 C-17 9.02 -17 7.04 -17 5 C-17.66 5 -18.32 5 -19 5 Z M22 5 C22 10.61 22 16.22 22 22 C22.99 21.67 23.98 21.34 25 21 C25 16.05 25 11.1 25 6 C24.01 5.67 23.02 5.34 22 5 Z " fill="#FF0000" transform="translate(104,73)"/>
<path d="M0 0 C6.33333333 0 12.66666667 0 19 0 C19.66 1.65 20.32 3.3 21 5 C21.66 3.35 22.32 1.7 23 0 C24.65 0 26.3 0 28 0 C27.59083076 3.40974367 27.16490087 6.54136946 26 9.78125 C24.88229741 13.37885522 24.58762913 16.61855198 24.375 20.375 C24.30023438 21.62023437 24.22546875 22.86546875 24.1484375 24.1484375 C24.09945312 25.08945313 24.05046875 26.03046875 24 27 C22.02 27 20.04 27 18 27 C17.92652344 25.69675781 17.92652344 25.69675781 17.8515625 24.3671875 C17.77679688 23.21476562 17.70203125 22.06234375 17.625 20.875 C17.55539063 19.73804687 17.48578125 18.60109375 17.4140625 17.4296875 C17.00556124 14.04606384 16.19032431 11.18387559 15 8 C13.84683274 14.34241995 13.90492937 20.56688704 14 27 C12.33388095 27.042721 10.66617115 27.04063832 9 27 C8 26 8 26 7.90234375 23.71484375 C7.91394531 22.79832031 7.92554688 21.88179687 7.9375 20.9375 C7.94652344 20.01839844 7.95554688 19.09929687 7.96484375 18.15234375 C7.98224609 17.08693359 7.98224609 17.08693359 8 16 C7.34 16 6.68 16 6 16 C6 19.63 6 23.26 6 27 C4.02 27 2.04 27 0 27 C0 18.09 0 9.18 0 0 Z M13 2 C14 4 14 4 14 4 Z M6 5 C6 6.98 6 8.96 6 11 C6.66 11 7.32 11 8 11 C8 9.02 8 7.04 8 5 C7.34 5 6.68 5 6 5 Z " fill="#FF0000" transform="translate(135,73)"/>
<path d="M0 0 C2.01064231 1.79874792 2.89018713 3.25208274 3.28393555 5.93383789 C3.40481573 8.27592358 3.40890136 10.59265619 3.375 12.9375 C3.38660156 13.73607422 3.39820312 14.53464844 3.41015625 15.35742188 C3.38721821 19.97179108 3.17923041 23.37481419 0 27 C-1.9375 27.62890625 -1.9375 27.62890625 -4 27.5625 C-4.680625 27.56378906 -5.36125 27.56507812 -6.0625 27.56640625 C-8 27 -8 27 -9.70703125 25.48046875 C-11.52224876 21.99810283 -11.56860455 18.59541847 -11.6875 14.75 C-11.73874023 13.63238281 -11.73874023 13.63238281 -11.79101562 12.4921875 C-11.87314054 10.66197508 -11.93825653 8.83101331 -12 7 C-13.47830208 11.71734606 -14.31786533 15.97215614 -14.625 20.9375 C-14.69976562 22.08089844 -14.77453125 23.22429687 -14.8515625 24.40234375 C-14.90054688 25.25957031 -14.94953125 26.11679688 -15 27 C-16.98 27 -18.96 27 -21 27 C-21.03867187 25.71029297 -21.03867187 25.71029297 -21.078125 24.39453125 C-21.49684438 15.6680387 -23.05078536 8.25780099 -26 0 C-24.02 0 -22.04 0 -20 0 C-19.34 1.65 -18.68 3.3 -18 5 C-17.34 3.35 -16.68 1.7 -16 0 C-13.98177083 0.03255208 -11.96354167 0.06510417 -9.9453125 0.09765625 C-1.27289258 -0.3377062 -1.27289258 -0.3377062 0 0 Z M-11 1 C-10 3 -10 3 -10 3 Z M-5 5 C-5 10.61 -5 16.22 -5 22 C-4.34 22 -3.68 22 -3 22 C-3 16.39 -3 10.78 -3 5 C-3.66 5 -4.32 5 -5 5 Z " fill="#FF0000" transform="translate(61,73)"/>
<path d="M0 0 C1.65 0 3.3 0 5 0 C5 7.26 5 14.52 5 22 C5.66 21.67 6.32 21.34 7 21 C7.33 14.07 7.66 7.14 8 0 C9.65 0 11.3 0 13 0 C13.08696177 3.93736123 13.14037835 7.87447628 13.1875 11.8125 C13.21263672 12.93205078 13.23777344 14.05160156 13.26367188 15.20507812 C13.27817383 16.81479492 13.27817383 16.81479492 13.29296875 18.45703125 C13.31653442 19.9416687 13.31653442 19.9416687 13.34057617 21.45629883 C13 24 13 24 11.70043945 25.82299805 C8.85387293 27.79332069 6.33657311 27.35748998 3 27 C1.29956055 25.82299805 1.29956055 25.82299805 0 24 C-0.34057617 21.45629883 -0.34057617 21.45629883 -0.29296875 18.45703125 C-0.28330078 17.38388672 -0.27363281 16.31074219 -0.26367188 15.20507812 C-0.23853516 14.08552734 -0.21339844 12.96597656 -0.1875 11.8125 C-0.16719727 10.11577148 -0.16719727 10.11577148 -0.14648438 8.38476562 C-0.11109958 5.58936683 -0.06172948 2.79492108 0 0 Z " fill="#FF0000" transform="translate(65,73)"/>
</svg>
